<mxfile host="app.diagrams.net" agent="Mozilla/5.0 (Windows NT 10.0; Win64; x64) AppleWebKit/537.36 (KHTML, like Gecko) Chrome/139.0.0.0 Safari/537.36 Edg/139.0.0.0" version="28.1.2">
  <diagram name="Page-1" id="6O0FSFbaZyHVQB0AIFsj">
    <mxGraphModel dx="1488" dy="710" grid="1" gridSize="10" guides="1" tooltips="1" connect="1" arrows="1" fold="1" page="1" pageScale="1" pageWidth="900" pageHeight="1600" math="0" shadow="0">
      <root>
        <mxCell id="0" />
        <mxCell id="1" parent="0" />
        <mxCell id="7Y2zW_6eb06IEe-usVE9-1" value="" style="shape=image;verticalLabelPosition=bottom;verticalAlign=top;imageAspect=0;aspect=fixed;image=data:image/svg+xml,PHN2ZyB4bWxucz0iaHR0cDovL3d3dy53My5vcmcvMjAwMC9zdmciIHZlcnNpb249IjEiIHZpZXdCb3g9IjAgMCA0OCA0OCIgZW5hYmxlLWJhY2tncm91bmQ9Im5ldyAwIDAgNDggNDgiPiYjeGE7ICAgIDxwYXRoIGZpbGw9Im5vbmUiIHN0cm9rZT0iI0Y0NDMzNiIgc3Ryb2tlLXdpZHRoPSI0IiBzdHJva2UtbWl0ZXJsaW1pdD0iMTAiIGQ9Ik03LDIwdi04YzAtMi4yLDEuOC00LDQtNGgxNGMxLjIsMCwyLjQsMC42LDMuMiwxLjYgTDM1LDE4Ii8+JiN4YTsgICAgPGcgZmlsbD0iIzM3NDc0RiI+JiN4YTsgICAgICAgIDxjaXJjbGUgY3g9IjM1IiBjeT0iMzciIHI9IjUiLz4mI3hhOyAgICAgICAgPGNpcmNsZSBjeD0iMTMiIGN5PSIzNyIgcj0iNSIvPiYjeGE7ICAgIDwvZz4mI3hhOyAgICA8cGF0aCBmaWxsPSIjRjQ0MzM2IiBkPSJNNDAuMiwxN0wzMywxNEg3Yy0xLjIsMC0yLDAuOC0yLDJ2MTBjMCwxLjIsMC44LDIsMiwyaDFjMC0yLjgsMi4yLTUsNS01czUsMi4yLDUsNWgxMmMwLTIuOCwyLjItNSw1LTUgczUsMi4yLDUsNWgxYzEuMiwwLDItMC44LDItMnYtNS4yQzQzLDE5LjIsNDEuOCwxNy42LDQwLjIsMTd6Ii8+JiN4YTsgICAgPGcgZmlsbD0iIzU0NkU3QSI+JiN4YTsgICAgICAgIDxjaXJjbGUgY3g9IjI0IiBjeT0iMzciIHI9IjMiLz4mI3hhOyAgICAgICAgPGNpcmNsZSBjeD0iMzUiIGN5PSIzNyIgcj0iMiIvPiYjeGE7ICAgICAgICA8Y2lyY2xlIGN4PSIxMyIgY3k9IjM3IiByPSIyIi8+JiN4YTsgICAgICAgIDxwYXRoIGQ9Ik0zMC40LDM5Yy0wLjMtMC42LTAuNC0xLjMtMC40LTJzMC4yLTEuNCwwLjQtMkgxNy42YzAuMywwLjYsMC40LDEuMywwLjQsMnMtMC4yLDEuNC0wLjQsMkgzMC40eiIvPiYjeGE7ICAgIDwvZz4mI3hhOzwvc3ZnPg==;" parent="1" vertex="1">
          <mxGeometry x="440" y="190" width="48" height="48" as="geometry" />
        </mxCell>
        <mxCell id="7Y2zW_6eb06IEe-usVE9-2" value="" style="shape=image;verticalLabelPosition=bottom;verticalAlign=top;imageAspect=0;aspect=fixed;image=data:image/svg+xml,PHN2ZyB4bWxucz0iaHR0cDovL3d3dy53My5vcmcvMjAwMC9zdmciIHZlcnNpb249IjEiIHZpZXdCb3g9IjAgMCA0OCA0OCIgZW5hYmxlLWJhY2tncm91bmQ9Im5ldyAwIDAgNDggNDgiPiYjeGE7ICAgIDxwYXRoIGZpbGw9IiMwMEEzNDQiIGQ9Ik0yNCwxM2MtNy4yLDAtMTMsNS44LTEzLDEzczUuOCwxMywxMywxM3MxMy01LjgsMTMtMTNTMzEuMiwxMywyNCwxM3ogTTI0LDM1Yy01LDAtOS00LTktOXM0LTksOS05czksNCw5LDkgUzI5LDM1LDI0LDM1eiIvPiYjeGE7ICAgIDxwYXRoIGZpbGw9IiMwMEM4NTMiIGQ9Ik04LjUsMjUuNGM0LTIuMiw5LTEuMSwxMS41LDIuNWMwLjEsMC4xLDAuMiwwLjEsMC4zLDAuMWwxLjItMC43YzAuMS0wLjEsMC4yLTAuMiwwLjEtMC4zIGMwLTAuMi0wLjEtMC40LTAuMS0wLjZjMCwwLDAsMCwwLDBjMC0wLjEsMC0wLjEsMC0wLjJjMCwwLDAsMCwwLDBjMC0wLjEsMC0wLjEsMC0wLjJjMCwwLDAsMCwwLDBjMC0wLjEsMC0wLjEsMC0wLjJsMCwwIGMwLTAuMSwwLTAuMSwwLjEtMC4yYzAsMCwwLDAsMCwwYzAtMC4xLDAtMC4xLDAuMS0wLjJjMCwwLDAsMCwwLDBjMCwwLDAtMC4xLDAuMS0wLjFjMCwwLDAtMC4xLDAuMS0wLjFjMCwwLDAtMC4xLDAuMS0wLjEgYzAsMCwwLjEtMC4xLDAuMS0wLjFjMCwwLDAsMCwwLDBjMCwwLDAuMS0wLjEsMC4xLTAuMWMwLDAsMCwwLDAsMGMwLDAsMC4xLTAuMSwwLjEtMC4xYzAsMCwwLDAsMCwwYzAsMCwwLjEtMC4xLDAuMS0wLjEgYzAsMCwwLDAsMCwwYzAsMCwwLjEtMC4xLDAuMS0wLjFjMCwwLDAsMCwwLjEsMGMwLjItMC4xLDAuNC0wLjIsMC41LTAuMmMwLjEsMCwwLjItMC4xLDAuMi0wLjN2LTEuM2MwLTAuMS0wLjEtMC4yLTAuMi0wLjIgYy00LjUtMC40LTgtNC4xLTgtOC42YzAtNC4xLDMtNy42LDYuOS04LjRjMC4xLDAsMC4yLTAuMSwwLjItMC4zVjQuOGMwLTAuMS0wLjEtMC4yLTAuMi0wLjJDMTYuNCw1LjUsMTIsMTAuNCwxMiwxNi4zIGMwLDEuMywwLjIsMi42LDAuNiwzLjhjLTEuMiwwLjItMi41LDAuNy0zLjYsMS4zYy01LjIsMy03LjMsOS4yLTUuMiwxNC41QzMuOSwzNiw0LDM2LDQuMSwzNmwwLjMtMC4yYzAuMS0wLjEsMC4yLTAuMiwwLjEtMC4zIEMzLjMsMzEuNyw0LjgsMjcuNCw4LjUsMjUuNEw4LjUsMjUuNHogTTM5LDIxLjRjLTEuMi0wLjctMi40LTEuMS0zLjYtMS4zYzAuNC0xLjIsMC42LTIuNCwwLjYtMy44YzAtNS45LTQuNC0xMC44LTEwLjItMTEuNyBjLTAuMSwwLTAuMiwwLjEtMC4yLDAuMnYwLjRjMCwwLjEsMC4xLDAuMiwwLjIsMC4zYzQsMC44LDYuOSw0LjMsNi45LDguNGMwLDQuNS0zLjUsOC4yLTgsOC42Yy0wLjEsMC0wLjIsMC4xLTAuMiwwLjJ2MS4zIGMwLDAuMSwwLjEsMC4yLDAuMiwwLjNjMC4yLDAuMSwwLjQsMC4xLDAuNiwwLjJjMCwwLDAsMCwwLDBjMCwwLDAuMSwwLjEsMC4xLDAuMWMwLDAsMCwwLDAsMGMwLjEsMCwwLjEsMC4xLDAuMSwwLjFjMCwwLDAsMCwwLDAgYzAuMSwwLjEsMC4yLDAuMiwwLjMsMC4zYzAsMCwwLDAsMCwwYzAsMCwwLjEsMC4xLDAuMSwwLjFjMCwwLDAsMCwwLDBjMCwwLDAuMSwwLjEsMC4xLDAuMWMwLDAsMCwwLjEsMCwwLjFjMCwwLDAsMC4xLDAsMC4xIGMwLDAsMCwwLjEsMC4xLDAuMWMwLDAsMCwwLDAsMGMwLDAuMSwwLDAuMSwwLjEsMC4yYzAsMCwwLDAsMCwwYzAsMC4xLDAsMC4xLDAsMC4yYzAsMCwwLDAsMCwwYzAsMC4xLDAsMC4xLDAsMC4yYzAsMCwwLDAsMCwwLjEgYzAsMCwwLDAuMSwwLDAuMWMwLDAsMCwwLDAsMC4xYzAsMC4yLDAsMC40LTAuMSwwLjZjMCwwLjEsMCwwLjIsMC4xLDAuM2wxLjIsMC43YzAuMSwwLjEsMC4yLDAsMC4zLTAuMWMyLjYtMy42LDcuNi00LjgsMTEuNS0yLjUgYzMuNiwyLjEsNS4yLDYuMywzLjksMTAuMWMwLDAuMSwwLDAuMiwwLjEsMC4zbDAuMywwLjJjMC4xLDAuMSwwLjIsMCwwLjMtMC4xQzQ2LjMsMzAuNSw0NC4yLDI0LjMsMzksMjEuNEwzOSwyMS40eiBNMzAuOCw0MC4zIGMtNC0yLjItNS41LTcuMS0zLjUtMTEuMWMwLjEtMC4xLDAtMC4yLTAuMS0wLjNMMjYsMjguMmMtMC4xLTAuMS0wLjIsMC0wLjMsMGMtMC4yLDAuMS0wLjMsMC4zLTAuNSwwLjNjMCwwLDAsMCwwLDAgYy0wLjEsMC0wLjEsMC4xLTAuMiwwLjFjMCwwLDAsMCwwLDBjLTAuMSwwLTAuMSwwLTAuMiwwLjFjMCwwLDAsMCwwLDBjLTAuMSwwLTAuMywwLjEtMC40LDAuMWMwLDAsMCwwLDAsMGMtMC4xLDAtMC4xLDAtMC4yLDAgYzAsMCwwLDAtMC4xLDBjMCwwLTAuMSwwLTAuMSwwYzAsMC0wLjEsMC0wLjEsMGMwLDAtMC4xLDAtMC4xLDBjMCwwLTAuMSwwLTAuMSwwYzAsMCwwLDAtMC4xLDBjLTAuMSwwLTAuMSwwLTAuMiwwYzAsMCwwLDAsMCwwIGMtMC4xLDAtMC4xLDAtMC4yLDBjMCwwLDAsMCwwLDBjLTAuMSwwLTAuMSwwLTAuMi0wLjFjMCwwLDAsMCwwLDBjMCwwLTAuMSwwLTAuMS0wLjFjMCwwLDAsMC0wLjEsMGMtMC4yLTAuMS0wLjMtMC4yLTAuNS0wLjMgYy0wLjEtMC4xLTAuMi0wLjEtMC4zLDBsLTEuMiwwLjdjLTAuMSwwLjEtMC4xLDAuMi0wLjEsMC4zYzEuOSw0LDAuNCw4LjgtMy41LDExLjFjLTMuNiwyLjEtOC4yLDEuMy0xMC45LTEuNyBjLTAuMS0wLjEtMC4yLTAuMS0wLjMtMC4xbC0wLjMsMC4yYy0wLjEsMC4xLTAuMSwwLjItMC4xLDAuM2MzLjYsNC41LDEwLjIsNS44LDE1LjQsMi44YzEuMi0wLjcsMi4yLTEuNSwzLTIuNCBjMC44LDAuOSwxLjgsMS44LDMsMi40YzUuMiwzLDExLjcsMS42LDE1LjQtMi44YzAuMS0wLjEsMC0wLjItMC4xLTAuM0w0MiwzOC41Yy0wLjEtMC4xLTAuMiwwLTAuMywwLjFDMzksNDEuNSwzNC40LDQyLjMsMzAuOCw0MC4zIEwzMC44LDQwLjN6Ii8+JiN4YTs8L3N2Zz4=;" parent="1" vertex="1">
          <mxGeometry x="250" y="300" width="48" height="48" as="geometry" />
        </mxCell>
        <mxCell id="_o_DuA_LSUnJIZQsM6B8-1" value="" style="shape=image;imageAspect=0;aspect=fixed;verticalLabelPosition=bottom;verticalAlign=top;image=data:image/jpeg,/9j/4AAQSkZJRgABAQEASABIAAD/2wBDAAgGBgcGBQgHBwcJCQgKDBQNDAsLDBkSEw8UHRofHh0aHBwgJC4nICIsIxwcKDcpLDAxNDQ0Hyc5PTgyPC4zNDL/2wBDAQkJCQwLDBgNDRgyIRwhMjIyMjIyMjIyMjIyMjIyMjIyMjIyMjIyMjIyMjIyMjIyMjIyMjIyMjIyMjIyMjIyMjL/wAARCAXsBFADASIAAhEBAxEB/8QAHAAAAgMBAQEBAAAAAAAAAAAAAAECAwQFBgcI/8QAQBAAAgIBBAEDAwIFAwEHAwMFAAECEQMEEiExBRNBUSIyYQZxFCMzQoFSkaGxBxUkNGJywVOC0RZD8PElNeFE/8QAGQEBAQEBAQEAAAAAAAAAAAAAAAECAwQF/8QAIhEBAQEBAAMBAQACAwEAAAAAAAERAgMhMRJBE1EEIjJh/9oADAMBAAIRAxEAPwD4OAwIpAMAEhgAAAARANdCGugoYDQwIASABkl0ABrAA0FWAhjqgJppAMAaQ0AEAA0MppDAYUAMAIsBsF2EIYwCGMBlCBDGgEBIPYKQ6AmSrhIkugoEiBoECVEl2FIYwIuAZIQMIBgDCQ7AAgCwABDTAa6GgsLGA0wBtAlEA2htJDQENoVRJ9ggIgSAqEAAAnG+RVRMVWSiIEqoZFVkiQ6LEqBF9lon2XRUBaJqxqqwJbQ2kCGLaMaYT7FVk0MqKmq5EWyVojtKIESwiURB9khMCDETkrFVEMRETAorAmBBAGiT7ENNRfRGybD2CarIlhEIgJkxFWRBgTAGIASAiIgSEwIS7IjfYBSESEVCESEAhMkJhCYiQARAkLcUIAAAAAAH0RJCAQDEACYxMAAAAQDAokMQGQAAAAAAQAAAA10IkugoQwBAADoKC4YAAU0NOhIKIJN2IEuR0AgHQUQIB0NIBIY0gooAHQUFADoKKYQJcjoaXJMQUFDpD2ouGCkOkOkRAdIBDQANBQ/cAolQhkq6kukMSfsSJgQ0gGgoAdD2olWGFDoQUUFDSCgUqCh0FBkqCh0PaguI0NLge0aQMKgodD2oCNEoxBRVliVBEdoUToTXIEGhEmhUAgHSCi6goKHQUAqQIdBRKBiHQURSGG0dFSkFJjoBSFSBpDoGRUQHQUURFtJUMCKVBSGATSaE+iVA1wUVUKkWbUQooVCpEqCgqLQqJOIUBCvwFE6FQ1EKCh0FEEGuQpDa5CgYjSFXA2IqWFSI0SoVBEWiLJPsVFaiIew2IBAOgoiEAAEQklYiUlyJoCL6ESfQqGhCJURGgExgUIB0IIBUMKAiA6E+GAAAFAIYUAhEqFQCEyVCoBANqhBAAAFSAAIAAAAAACAAHTCkSj0NLgKABrsQ12FhgA6DRAOgoAQxIZEC7GIZADEMAGhDTAYCsa7KGABQUAAFUxrsQ0Gakux0JdkiWgI0SHRFRoKJbSSiWJiFBROhqNsogMntHtMiKRIKCiqYIENIlULskJLkZFh0G0YwpJDoaQ0gI7R7SVMKIiO0KJ0woaqK66CidDoaK0h0TSHQRWlyTodAEBEkKmBFqwolQqKFQ9o6GkELaG0kBRBrkVE6YKJFRSsajySoKYCojROmKmEqND2jpjSZCI7fyJx4J8iaYVCgolTCmUR2hRKg2sIhQqLGuQoIglbG48EqoT6KIURonTFQNRoTROgpirKraFRZKLI0RUaFtJ0ICFCotog1yVEHEW0kxMoi48EHwWPog0wWI2KyVEQmAi+yRFrkqxFiHIQWiwoBkZKhDEEJ9kWSfZFgIQxEAKhhRRGgoYCBUD6GJ9FCAAACL7JEX2EJDACgAAAAoACEAAAn0IbCgEAABIAAimgBAACp/BJdjAhT+CYBuAYB2AAAAFP3JEfckGgAxkRECQECXYwGBEkAigAYmAIa7EhrsCRIiSAQABWgiSI+5NBKF2OgXY6IgpkhE/YiwhroCSAENdgMAAYAICQARGuxgFAxLsmQAwGFgRJJ/AkWLolVGn8BTvomhkIjT+CVDJbSKilwPaTUeAqgK5KiJZLoiaiIiJiKlRGMYQqE0SACNP4GMAFQiZEqGugGuhgRAbAlUhEgAiBIKsCIMlVAwIUHbJdMUpRhyA9tdiKcmrhHrko/jNzKjZKqsq9WEX9UqKPUlPldA1F9hGiOWEnSkStV2ZoqKfA25RVpWl7FRda+RWZZZpf/AE2Uyzt9poDocAjmQ1myVS6NmLV4sqVPklWL37cEWS7Vp2BGkKfwKn8FgqAiQadstIPsqK2Jk5dkGiiLF7EhPoqoESZECIDABJpdohJc2TaEwiADoKIIiGIMoy7EyT7EBECQARAkRKIvsTG+xMAAAAAAAIiGIIAAEVAAxBQIYggAAAAAAEAAFSAAIgACUVdhUQG1yACJCGBJdAC6ALAAAGjAAAkSXREkuiMoy7EOXYiKa7GRXZIoYxDCgAAIBrsQ12BITGACABlaOIxIYDXZMguyZKJRJkIkyIBDBlCQ12JDXYEhiGQSXQxLoYCasNo0NEUlHlFhFdkiAoAABpcEkRRNLgBASoEkFSiTEkSoy0AHQ6ArYibQqRqIgBKkFIqVECVIKCI+5JdAkNAJ9CJ0KkBEW0spBwVEUqQySSCkBFDHSCgI0R2kwJViI0OiLfwApV7lcsuOK+p0U6nUwxKpS5OTl1OTLKle2+AWtufWNNqHJTKefLHuh6fTuS3SRHK9rpOi4zqCxv8AuY0qdEHJvscdz6SKyuU1FUx77fCsr2z+CajJdo0LYNyfVG2MeEY4KSdpGvHKfG5cEEsiio8ozS9Kcfto2Oa6aIuGOUarkLHKy6fE1w+THLTvG7hM6ubSRptSo5mTC1J1JtAXYdTkxr63+xvx5lkhafJxZ2qVjx6nJifEuPghrvJ2hmLTayGRJSdM17uLTsigQDCoyK32WPsjJICtkX0TkuCD6LFRAAFARfBIBEqDE+ibRFrgqICGxEREAAoT7IsmJoCIDEQADIgJ9iG+xCAAAKpESREIAAAgAAKgfREk+iIUCGIAAAAAAAhAABU6ChgQKhx4sAQBVhQwoLCodBQ6CgAoaQqigHQUQIAoKLodj3BQUZZJuwXINDigGlyOgAqw6HQAFFBQUAAkMSGVTHQhrkjIoaXAbfySSASQUSSDaVokuSQKPI6AcSZFKiQBQJWA0RD2oKGBkIYUBRJMdCS4skuQhpWNRCKqxoyooBhtClQUSoklwURUSS4HQUAIklyhLsku0RYmo37jBcARRQUMAE+RUSrkKKzUaCiVCAVDoAKFQ0goaQCoKHQAKgoYAAAAAD6BAyaIgSoi+PyAL3MWr1awJ9WGt1XoQr3ODnzyzTbk3yaxi1PJllqJ3L/Bu0mnU9sa9zBijTX7ne0MKjurpFkRdq8D0+GOxdr3ODlv1G2zq+U1MtqSfRxZZG3bKqfBZBpFCdlsEmEaFmRbHNH3IYYQf3Lk1p4I8bUyghOL6L4zW2iEZQf27RSnJLiKAm5JfBny5ZXakS3ZJeyKMjyruKAhkyzadoyyfy6Lpzn7qjPllLbwr/IFE523XsZ23uLmpVyipxd2EG5pprijo6bXpQUZ0c1rgW0Yr0kZKatMkujm6DVLbsl2dJPhEa0n2JqxgRUJLgg48FkiLRVV7RbSbVEQFQmqJCYSkyDdE2VyCIsQxBCCgABPgQ32IBUAxAAqGBBBrkKJ0JoQRaE+hyEVUQodBQKVCJEX2EAABWQ+iJJ9EQAAAKKCgABANiCCgoAAmAwI0Q0AIBoAQyaEMBjQhgANAxARdAAAEgEMIKsEmNDKENIT6JILASoRIgiJkn2JliwkMRJdlUUSSESIyYwGAJDpjiMrRUx0wGADESIFTJJMF0SQAkwpjQzKFtY6GAANdANAwIYIa7ChXZIS7JAIklwIn7ECSY6Y10SQEdrGouySGNUwFT+AIadghEo9FNFByMAhNMiWBtArGT2htAhaBMk4iqgAKGuxgRpipkgKmlTFTJADSphyMAqLZnzZfTi5eyND7ON5XU1/Ki1b+CyJawa3US1M3zxZmiuVYy3Fhc6ZpjWrTQcpR29e51YZ/QTXDtGHHi9OKdklGWSXZVirX6j1ZLgwPk26uGx0ZaIIrgtxu3RUW41z0EbcEZt/g2ww179/gxYJtVcWb4TjKPLaKJfw8atz/wCA9Cud1oTywj2ymWWL4Uv+QJyUI/3L/YyZXF//ALkRZW31L/kwzv2QFsppcbkynJNNUmimUf8A+WQ2N9MIlKVLl2VylYOLj2yL6ABAADg3GW66Ozo9RHJBJvlI4xPHOUMkWnwF1307GVYZrJjTXZYjNbDFQ6YE1UHFvohTLSBZRGmJrkkJlEGVyLWVMJhURaomKRNZQAAKExDYmACAAAAAgBNgJgD5IjAoQAAUhPsACEA2IMh9EST6IlAADCkAPsSAYhgAgGAEwENdEUAgBBcNDEhkQDEMgYmAAA12IaAYxCCpAABDQCAoH0SRFkkFOJYVkiBsTAaAjVglRJDoq6iSCiQQ10MPYYXAhkRrsBrskJdkgET9iBL2BqS6JEV0SRA0MI9kqIqIEtoAIa6GCAErJJUwiSQCGNdkgIkvYNoyAJR9xLoaBEhrsiTiMUw2jGRIrfDGiW2+RqJdVBDJKI9o0R9yW0lGPI6Ja1ENoUT2g4khYrfZGRY48icSys4rGS20FFRAZKkOkVlWNEgC4iKm+uyYuxiVl1WZYINvujy2fN62dyOx5zM1JQXRw9v/AKTUZ1OJs0suUjHE0YL3WaJHUUN9MsjjcE2vgjp7ka4Q3QZnVxxNS3KZSb9Tij9VRe4xOMl/axogW4lXO5EOV3Eakr+xlRux8/3mmHD/ANRzseVx9qNC1XRRpyLdxtMeXEuWm0zTHVcEMmXHJNvsDnTUl7sh6kvwX5afyZ5IIhJ3yyH+aJvorcbVgKTqubIt2Dg/Zi2SX5AADbP/AEgoN98BTBumh7GG1rtJoDpePyXaOjFe5ydDiy7t3pzr5rg6sX7Wm0c66ZkSIMmDQiKxEwLKK32RkTfbIsuiplbL2VMJqIpEhBFYDEUJiZITAiBIAIkn0IRAhMYmAgAa7AQEyBV1D3AYBCAACAQxFAIYgE+xIkIAAAAAAYDJLoVDS4IoGkgBDV00kFIEPgiEA6XyIgAAABDEhgMQwoBgIZVAAOggStkkiK7JBTpDACAAAALGnyIcVyUSGFAUxIa6EuSVBRQJKx0CIHQxLslQSikTUVXQqJpcACiqGkhpcASrAlySEiSVkUrfyFE9o6IahQ0kSoKAEhoEqBFDXZIiOwJhQ6HtAikNIaiNKiBUSj2CQ12A2SpCosoixFIaQUSSpDDSSGkNMdlwC4AAsliwCfY7Cr5Ji1HsGuCVBRYitrgW0taVCoqYhSFRKhMrGFQqQ32KyropEbr9iRVle3HJ/CKlec8zm3axxT+lHOUm/ct1c3l1M2/kqSorKcTVhnVIyxNOGrTBHV0j3J26OzhwQWmc7bkcvRrpezO5CW3A8fCkZtbk153PnnDK0sSf5KXmnLuCRp1mOfqSfJjeLI/b/cav5RbvtC2pvobxZF7DjBr5LrH5qWPT+o7LFo6fJZgddmj1I3T5LplZf4evcJYUl0XyyRbqqISyJJjTGHJFroyuL9zdkmmZ5KxqYyyK2Xzh7lLjyNMRE20uGScSLXBQlOV9k1z2Q20TiFWqK/2R739Ef9nmTzWWOt16lDRL6oxXczh/pPxEPKeXw4s3GN8/ufcVqseg0kNHpUsfCjUfZHDvyfl6fH4t9uL5vN+n/A44ePhp8Mrjyowtr92fOvOeOx6Vx1mmX/h8zbS+H8H1DWfpnS6qHqPe3P7pP3Z5nzX6fyYfBajGrksL3QX4OXPk2vR34pj598DG1VV0kI7x4b6pUhEiBRF9kZdk32RaLEqEuitljIuPFlRClQiVCoqIUiLXJOiLRAhMYmUAhhQEREqFRBEB0FAKgHQUAiJIiUIBiYCYhhQQhDoKAQDoQAJjE1ZQgHQVQAILAImSXREl7GWp7AIKGkwBkeSVD4+SCHJIdBTAQ0rCmSS4KFQUMACgoYALaOhgFIBiCGuxiXYwqQAADSsNo10MBUNLkAQIkAh0VTiTIxRKgGCQJMaRECXJLaC7JpWAtpMKAhDXQxLodMjQJxI0yceAJAAEQ6CgvgdhSoKGBQJcj2iXZMCVjIkiIaAEgpgBJIVMkkA6J2RHYXadklyiFkovgBjEOygAAolaAxUMgAAABoQ2+CIQhMYjcSoPsBtchQZIo1XGnm/hGgy6646PK/8A0sqPIZHeRy+WKxO2NJsqJxNOnTckqKMcHfKOhpElkVktWR2tHhShboulle9p/cuvyRwxlNJJGiejckskk1KPSOXVduIogsud1PEuC2XjpPl4l/g04sbyJOP3e6Z1NPhk0rVfsZ/Tr+Xmnov/AESX/wBrD+Bf+n/g9jDTRfasvWgjk6ih+j8vDfwajLolDR23XJ7aXh1f2oivC475X+xf0n4eLn4zJPqJTLw+arUGfQI+Cv7W1/gl/wB0ZMfKlyurQ/TN8b5tLw+qk/6Uv9iifi9TFtOD/wBj6ZkxaiP0vGmvlI5eqxZ9724v+B+k/wAT5/m0OaCuUX/sZXp5r2PbajTaiS+rF/wYMnjcknbxtf4NTo/xvKyxNdqiEoUj0eTxl9xZlyeLkudjo3KxfG4dc0NRaOjPRKFuuUZ1ie/lcE1Meh/TWpeCePJFSU8c1VH2LHn0McUNXqc0YTkrUZdnxrwWKfqpRjynapnucni8/nMWHHjbjLCqu/Y83k917fFPT1Ev1TplJQhulD8Gp5cev08ltW3LFp8Hkcv6d1PjsSeRtcHofD6iH8EscprdDu/yYkyu3X/l8g1mL+H8hqdP7Y5tL/cpo2+drH+pNdF8XkbRjPVz8fNv0JEKLCNM0iuuRNE2qZFtFiVXJcirglIRpCa4K3GiyyMgK6ItEyLIiNCaJCZREB0KmAESQqYCAAIBiGIA9iBP2IUwAi+yQn2UIAAIBDEACGIAAAKABAAUFDAIZJdDxrdJj2mGiXQxpUgl7AJ9CAAGSIkgAaENFAAAAAABTAAAAGgCkMBhKYAMBroYl0MAGhUNdlIaGMQS1KJNEV0NdCqkAAZDXZYhR6GFiQgAFSXRIjHsn7oUgQ12NdDIoAAAYAADQBEkgElyTBdkiJQMCS6AS6GNAgBdjBEgEAAVQOIhroCfsC7IokuwGSIkiVQARJEERMk+xARfQvYkxGotRETEVhEGTIyAizL5D/yGb/2murMutjeky/8AtYSvG+44jmts2iWM0i7H0dLQYHlyp0zDjjwl8np/DadKKZi105mutodGowto3T08WuF0TwxWzgvUTh1Xo55xi/hfT/mRXPujp6GO+K4XJGMFLh+5bji9PnSX2PojTo49Gvg049FT4J6aW+Jtxx6JqoY8MUlGUTTDR4ZK0i3FiUuzZDTpLgfrUYo6CNlkfHxu7TNqw7SyMKKn9c6fjIt/bExZfFwlL+mv9j0G0hLAS1uPOZPFad8PGr/YpyeEwzXGNV+x6Z4Yr+0UcKm+uCWrjx2T9MYpRckqa/BxNf4T0otVx+x9PeLHGDjXJxPKaFTt7eKNc9Vi8a+Q63R+lNtx4OPl02+f0qj6F5Dx+OV/TyjiZPGqE9xv9OV4db9H+CjLCsuVcvhHtdJ4/wD7m1m77oSdpHL/AE3l00YRSadfLPT6jW6SShGcIvlO1Kzj19ejx/GLzfkFqtPshhub4pI52g8Vk08NslunLlr4OlpIx1k8uoUXGEZfSvk6umxK5ZJd1wZ326fx8C/VMPT/AFVq48p3/wDBhXSOn+stkv1bqpR/1U/9jnx+1Hr5+Pn9fUQJSIGmUZFb7LJECpUWRfRNifRUV+xEs9iIECLLCLCK2DJMTKqIwH7BEBDEQITGJgAAAARJESCIiYgIsRJiNIQiQgEAwAQmMTKEAAAwAAiyPA32KIPsw0AYCYAAAVASIkiUMaENCKAACgJEfckFMAAqgAAIAAYQxhQ6IGuiSEkT2oaqI12S2oNqGhBwS2oNoTCRMFEko8BokMKoEiInEkQT5JBUh0qIlkeUCmkqGh0kBCGhiXYwoAAAl7CY/YTKGiS7IrsmiBrsmQXZMiGIYBAgQAirEl2MS7GFBIiSAAAYAhrsSJLsoYxDJQySFQzKkxMlQNBYg+iJN9EaKlADA0yQmSCgIMqzq8E1XsXSXRFpNNP4DNeFzNxyzi17jxfcW6/Hs1uRNe/BVi+41/Btxqqf5PV+Lf0I8suMV+9no/GzrBB+9cnK+3fh6bDL6UaoOznafJceTfilZysdo1QRbkjuhx2irGy+MiDR47UbZwhNnaTe48vkbx6lVwm7PQ6fN6mKEk+WZxXUwUqbN+PIl0zlRbfC9ijWeRjpYcyXXyWcmvRerj28tFuPV6GMWsk0j5Vrf1Zkeo9HG2037Grx0PI63Lvk2sffJan19J/jNE5fTNNFc9Rh9pWcXR6JY8acuzdGK+EZrpI0p7+U+CxdcIpxyrhGzBFMlain0m+aKs2DdB7laOp6aXsVzxra+CK8J5jxiinOCfyeVz45u1X+59R1eCMoyjS5PGeX0DxZHKMeGWVixxvE5sOPUqMoVf5PVLSwnFO9sX8HlIaaUcyyQVUek0WWOWEd8fqrli+159O/pYwx4444NuPvZr1epx6PQZM0qShFsy6XFCGJOLd3Z5P9c+fjg0c9HiyLfP2Rnme16ucvmflMy1fldTqe982yiPQVubYLg9kmR87r6TYiTVkTSIvsiyT7IsEKRB9E5EQqJCSLKItFFQvcnSItKwhMiybSE0iiPsL2JUqFSJUViJ0gcUBWBKhMoQAAB7ECZEyIiD3AoAACgAACAQxAAmMTAAAAEAABNcDsQGVMAAIKCgA0Cie0gWBSoKGBAUFAAIKJJWIcStCgGIIAAAgGJdjAkSXJFE1wSqaXJYlaIIsXRCDaFUMPciiiRElZVSoklwRT4JLoIGhbUx1yNJk0JR5HQ0nY9pQkrJpUhKNEq4IHYxUNIKa7GJLkklyAuR0SoQDS4CgS4HTKaVck0uCKiyaRDQOwoVBLUgsdBtYQLlDSBKkNILDSHQJDoKVDodBQDS4HtGlwFFQqCh0FEUDoEuSVAC5GJRolRKpA+R0FEEWuCNFjTItcAQAdBRpAAJDoqIyIkpIVFR5bzuHbqt69zm4nyej81h3pV2zza+ltPhp1QHShFSwna8fkvFFfBw9PK8TR0vG5Poa+DnXXl6TT5Dp4clo4OnyNpHSwyfHJmu0dnHK0XRkY8MvpRoizKrM1Swy+V0y/xesuEYOrRknK40cvLqXpNRcXwueBg9ZrvNYtBgk5y+o8D5DzGp8nqdmGUtrJarLm8jme6T2P2N/jvHYtPJSkrLBo8N4qGNxy51cvl/J7HSuMYWvpSODCcMUbv/8ABn1f6k0Olxy9bM5SjxsiSzWo9nHXQjGpTVfhl0NfjkrR811H6wnhnjj/AN2Z1HJzByVWvwbtH5DymvqtJLHH8yMWWOnNl+PoOLVxySqPJ2dG+FZ5PxGLJDa8n3e6PWaX2Rhqxu2pornHgurgpyvgl+I5uoVyo5PkMMcuNpr/ACdbP9xhzq00IPKy0WzqzTgSxpJxXRuy4+OjLPHw38dFZcjyf6olj1H8BpYveu2vY8L56Gda71s0nLelVnt9P4uM9flzcbpPk5X6v8coaRZEuYu2a5+ufkvp4toVEYNyS+CZ63jv0qI0TIPgIg+yL7JPsjLsBPki+BsT6AViACiNEWuST4It2wqLENoKKhPojZKS4IBAJjEAqItEhMBUIYn0QIKAAIUFEqFQEQG0FAIAAsQCGIAExiYCsLARQWFgFEFgABFNACAuIABDAVFhEYUwENEAAAFhjQgK1iQhgGCAYACTGCGA0iXsJEiVTXRNPggiS9wRMPcEBK0BgMgaZNdEIxJ1RQ0NCiSRmg9yVkfcZYJdkqfwRiW+wEKY6ZICBRXJNLkUeyRQDoBgKmHJYlwOiIghoGqAIbFQ/cZVwwpjGDCSY0hroklYXCS5JUxpUMCNBRIABLgYAVAADXZFC7JWIQExoQ10SqKGkxoEQKhNcMm+iIVXtfwKiwiaZRBsb7IsAYhsS7LqYweRinPG2cfyfjXu9bGuKt0dvyMbin8ElBZMEYyV2hpjzGkkqab5+DoaN7M218WZtXp/4bVWl9LJ4smzJFszY1zXosBvxSadHN001JKXFGp6vFDtow6zp2cGRJK2a1NV2edXlcUeDRh8jDLxYbld18q1ycTyeOX1SpnU0WbHN7Uzo5PGrUYnwmZqx5rxqVLg6eTIlB+1IphpnhzShVNOyGsjN4pbbXBNaxydd5XUS/8ADYHcpOv8Hntdgzwyyjki5T7v5Z144ktdDJO6So7efHodRgXqpppcSRqVy6l15zxr1up1WCGpyTyQhUYqTvZH4PpPjsqjtjCLpcHldHp8eHNWGHD6Z7bw2k+m5Iz1ddfHzjtaKFJP5PR6NcRZxcajCKr2Onpc1RTs5O7ruqMuaSS7IvUPoz5MloiYozSW5mPLy+C/I7kUTEGTLFVwZZxVM25ImbJH6WVhg0K26mUXHl8op/UekWp0OXG49xdFkrxZlkXyb9QlqNMuO1yXm+2epLHw1fy8ssT4cHRZya/1PpHofNZHGNQm7MMJboo9cux4up7TISJkH0VlBkW1ZJlbAGJ9AwYEaGABcRashTssF7lEGmKibEVEJdECTEBERIAiLTItEyMuyCIPoYn0BEBgAgoYARpiaomJqwICJNUhFQhEhAITRITAi0KiYiiNDGBBIBgMAgGuh0gIoZKgIEAwCkNdAADAEMLAAwKumAiS6CYQIYBMCGIl8BcMkKicVZDCJRHQ0FNABIikMPcnS+CYFEmKMSzaBFDse0aRFwgJUPaVCiSAlQCGgHQwOPZIjFckgAYDAsiSfZFdEiIiwXZIF2Ewl2SACtYRJdCGugGhoSJIBrsYg9wJAAwEAwAQ12IAJCEAEyS6KrfySiyVVqBCXQ0RQ+hEgEESHuWEJFZQfYmAFDQ0rEiS7Ay66P8A4aX7lemluwX8cGnURcsbX4Mej/pyj7p9FRDV6VZoX7nHnglgbUj0lGXW6RZ8PH3IDjx1s4QcV7CitTn+qNlE4yxZUpp0ju6GWN40+DNjpGTT6PO+ZM0rHlwu6OjLX6XBBuUVwZcvmtK8f9NP90TG5WjQ+QePKtx9F8BnhqcUHJ2qs+Syz4c8vUwTafwex/SPllHUQhOT4pUc+o6SvW+W8d6GT+IhDcu6+V7mfP4r18bePqk0eqnFanSqaSe3mvwZtDiSvDK04v6fyjDT5xrfFZISaUalfdGfHodSpJe37H1LV+Kx5ZKdJ/4McvG44f2R/wBitSPL+L8XlbUpQPW6fH6UEGLHHHwuP2LTNrUXKVmnDOkjHEvxmXSR0VP6SEplKbrsbIlKSvkqkWvoraGoolEy54m7IZcvRWHM1MeEXaee7Ht90iGoRXpX/MoJjyf618X/ABellkhH+ZHlM8Bgm9qhP7lwz7R5LTrJhe5Wmj5n+pPEfwWpjqsMf5L+5JHbjrXDyc45ZF9DjTjuTdCZ3eaoMiyT7EyiIn0OQqsYuIgSoRBEBsXsUKXRD3ZJkWVEGIlLoiAgENhEX2Jj9iJACfQwGCIEiJQAICAYAACfREkxFQhEgAiAxMAB9CABAMiBYMjY7IJLoYk+AsKYAgoAAKCgAAoKAaGJDQDAAKugkuhEl0FIB1YJIGBdkqElQwJJJlqVFS4LE3RMEqBIVhYos2oKEnwSjzIyopEqQ9o6IHEmVommUSQ6sEhpBoklZIKCiJSoYAVDXQ0CXBJKwBDXYKPJJR5GhUSSTJbPyCjXuREqVDoAAQ12ABQADSsoBoe38jUQChpBQ0gAAoaXIAMe0NoCAAATAYqAACgoAJwXBGicFwSqnQ0qJJcAyKQBQ64EEaIyRMhIrKuhUSFRQIdAkMqE1apnL0ylDyOTHfD5o6py8t4PLRm+pRoDf+4qRJJP3Bxrggw6zRwywbUVZw254ZOCbVHqqddWcTymm2z3xXuU1i0955OORtiy6SW6knt+EGnkozs6eHVt0klRl15lrJp9A4venKK9kdDRZXpNRHKr4fJp3eqk0lwU6jG9vCq+Wc+nWR9q/Tetjq9Fjk2pKSrg6b0ineKP0yintfufPP0H5CSwek5dSPpGSfGLVRduEuf2MNjA1kxtX9ePiV+5TnjGrrk16rFsktXiVxf3pfBTlcc0d0Hw0Ztbkc2fHsR4DPNwlTRWp2ZaXRotg/gzxdsvg6DWtCkySdlSZYmTESFSACYKsiMuXpmzIq9zHmfBpnHO1LpFOjf84nq5Km7KtD/VsaY6ebHvxu/Y4Gu8dj1WnyY5wtNNHqlC4V8owywVJ2rRJ0ln+3xjX6HL47WzwZl1Koy9mZT6b+pPBx1uic4x/mw64PmuSDxZXCSaaPV4+tjx+XnFT7Isk6btCZ1cojIiuyUiIU74EAWSmlIiSkQ9gE+yLJNBRpKg+iJZJcEKAhQ2goQQURaRIVARoGuBvgTfACIjsQ0IB0KiABgACEOhUVDAKCwIvsTG+WKgEA2qEAESRECYEqQgproYLoKIGuxiXYwAACgAAoKAEMAQDAB0ygXJKhJMkFIaENcBTAAoCRP2IE0FNdDoF0NEvwSROK5sgkWRMiQxAyBjQhoosQ0yKHwBKx2RtBZBIBDAkuiUURS4JxAaXJJLkS7JJ8hEgAAGNCCwAAAqga4FQwJp2SIokAAgBAMa7QhrtAToAtfIm0QJ9iACgAKHQCAYqAZOLIEokWLo9DoUXwO0TAmqC+By6IDDTsg1ZLgRUQ2sNrJsRRGqAkDAjRz/ACcHPHHJ7wZ0eSvPiWTA4+9dBFGnnuhF/hGmrOfocjSlhkqcWdFPckylLlMpz4FlwyUlz2i9kWvb5CPLZMfpZZJ/PBfpKlOuTZ5HTbZ7kuPcowRUXaMV6OHcw4YxgqQ8+JPG+rDSZVOKTLc6uLo511aP0nqXp9bLF8u0fW/H5ln0zxz5Ul0fFvFZVpvIQm3Vuj6n4nVbccZX37ma1HoNDqMieXTzSbh0n7ozvT5dBm3KE5YMjt3/AGfsYNb5T+F1EdRjafCUjJ5L9dabRxS1GSKbj9l9mHSO3q9PGePeun7nFtxntfaMmj/Vmm1OPdDIp4pP6Vf2/g3KazwU4+/wFTxyNEZFKhSLIkRdGVlsZFMaLYgWIlZFMLSIqGZ0jnZ59mzPNV2czPNc8k0c7WZa45L/ABkXKW72MOrmnOk/Y6nil/LRm1cdyEbiiGXFxceyzG+i5RskqWOLkgncZ3yeB/VfgNs/4rTw+p/cvwfUNRptytLk5Gs0vqYnCS49ztx3lcu+Nj4k19TpdEX2d79R+DyeO1EsmOLeJy+OjhS74PZLK8VmVCRGuCTEVCoKGBERkQ9iUhexVIQxMqE+iJJ9EWgIkSVEaAAAAhS6IskyNMgVEaJkaAQAACYDYgAVDAAsjfIxFCAAAT6ENiCAiSIgWDEAVOPQxR6GQAAAASIkgATGNFERrsYAA0IYEgAAoAa6GgproAXZIKiSiAwJDQl0Sj0SiXwWR7K0WRMiQmMTIGNdCGuiiSGJDABiXZIBjQiUQJkokSUSBjXYhrsIkMQwAAABoYkDAfuMF0AUyS6Ikl0UMEAIBgAAMAABgRAomhkIkghiGMiokoiJASQ7oiuhkDuwEAQgAAAAAAAAACJIQHMcf4fWyyP7ZnRj9qMmth9Dn8GjTZPWxR/YsFgmifXAn0UZdRi9WEkcuC/h8r3Lg7pj1emeRWjFdOesLDKvrj0bIT9SD/JycU5QWyRpjKUa29GK7SpzWySr7rPS+H81KONYZydo8xOSfPuRx5Zwe5OqMVuV7TXeQlNUpce9nAh4zFrddklqMm+6UFZys2tzTi47uGd/xGleTR49Vjm3PHzNGW5dek8X+j8eFRcY1j4dX/8AB2o6fJopU7cPaS9jT4jXR1Wjjkk/qaNuRJRp/aG8ZY1LGmq6JLgy5ZQwzbjL6W7Zh1XmsGndynGvyZqV2olqdHBw+WxZUpRmmn8M2Q1e5WpcER0twpZDEs7f9wpZZfJFGfLwcrU53yX6nLwcbU54xcvyZqxXlyb86PR+NjWOP5PL6RLJntHptI6pfBlp3MfsXxMmN8I1Y/YsSrZR3RMWp0yo2iktw/qPM+Q8di1OGePJjTTXNo+W+f8AB5/F53kSf8M/tfwz7bqNPabOH5Hx2PVYZ4ssd0Guvg7+Py48/fi18Tk06a79yJ2/N+CzeO1E3GDlhbdP4OJTXf8Ag9fPUseXriwAAwyhIiTkQKExMbEyqT6AH0ASkQfZYQfYRETGJgAn0MT6IIgMQEQAChMQ2IAAH0RAkR9xkfcAExiYAAAEIiSIlE6ZILAlVKPQxR6GZAhiQygGIZVA0IaAAHQJAHuMKHQagGIYDRJIUSSIzQkr6JUJLknQEaHQ6EFOuBxF7DiZotil8EkiMSRFMbESoBDXQUNdFDQAAAuyRFdkgGTiQXJNATGhDRAxiQ/cBkhUMoT7AH2AQ4kqFEkuwoAdBRUMkuhUTilRFIEScUJqgAAABgAAFIKQ0OioQDoKAQ4hQLggBgAU10MEAAAAAAAAAAAAkOgiS7II0gJUhAUZ4p42mrsy6NvFkcbaXsjZlVoxZrxOOVfPJR0BMIu1Y2BW2JuxsQRk1GDd9SVP8FOLK4vbL/k6DTbszajBu+qK5M2Ok6Kk1aK3FsWGbS2y9i9JM5WOs61Q8Z3PAeTjo45MWT7Z8NHOUERlCKf1OjLrz9ew0nlXpcShhydu+GQ1X6p1UcTvO4r8yPIryXoS24F6kjb4/wAZqfI6j1tVJLH/AKfYle/nmWOgvLeU8g9mmnKal010XS/THkNXGL1moa/B6TQfwmgwQjHHjbS4/BZk1rySttMyd8cyawaLw+PRYlBScvy2dPDiX2ojjam1TX+Dbjx0+EHkoUNtcEZySNDj9Ji1LcVdhHO1uXan9RwtTmWSSima/JZqi/qOThuWW2YrUdjQR2pP3s9BpJcqzg6VuMUdbTTaaMtPQYJWjZj9jmaab4Oli5SCVaTIErKhS5Tsx5sSnfCo1Sk1ZRIDi6/xWHWYZY8sE0/lHzfzn6T1Ohyynp4b8XdJdH1ycfgx5cEckZRkuH8nXnyWOXfjlfB5LbaaaadNET6Z539HafWJ5MKlizd8dM8D5Lxeo8blccuOW1f3ezPRz3ry98Yw8EH2S5rh2DS9mdZXLEGIbEP6E/cAYFqAjIkRkQQExiZQgAAAiSFRBX7gD7AoTAGAAIYiaAKQAQRfZFkn2JlgQABUIiSFRRKvySS4FRNdGQLga5ENBTAAABiGVYAQAFOxpkRoCVhYhhTGlwIkuiIcVwTRGJJICS7GRXZIAHQlyTogjQ0goZFSiyVkIkl2BKySdkCUQJ0OgD2IAAAoF2SElySoASomiNEkBK7GhIaAlZKKtkaZOKointAkImhUFDArIQ0JDRQyRElRRIkiJJdEqpNhVghp8MggAPsChhQDsBpcACfA+yoQDoKAQ6ChgFAMKAEAUNEBQUMApBQAGdIAYA012SsilyMlU7EAdugpTW6JlyY1PHOL/c2KEpzUYK7+D0Hjf0lPVJTz5Nql/ajP7kdOeLXk9FkeSFNNNcGv0sslccc2vwj6Jpv0p43Sz3Rg2/ybp6XBixVDHBV/6UYvkdJ4XzTT+K1Wp5jjaX/q4OpoP0lq9Zl2znHGvns9ZHbytqX7InFzhO8fH7E/yOk/48ciX/Z/jjBv+Oba7/l//wCzzHmPE/8Admrjp45o5XKq2/n5Pf62HkculePT1CcveTPH+P8AD6vVeflp88d88cryTu0b571x8vP5vp53V6Genm4ZMcoTXDte5lSnjlTX+T6j5HwP/eGCWHItuWH2Tl3+zPC+S8JrvGTrV4tq9pLlGrGOa52Pn8EM+J5YtRltdE8eDNmzbMMJTlfSR6XR/pDyWrxKWSOPEn05Pk53l258kjx+h03pZm8kblftyeowZfTglHih+U/T+o8HslmcZwn1JGPFO4mLHp58/wDG2eslF1Htm/QaXU6qabTUWc/SYY5c0XI9docmPBCK6MLfJa26HxaxR+u7ZvnhjCNKNfkzx18ePqRDN5GDi/qDIyyUYNtnn/KeQhh7f/JdrfJRUG9/C+Tw3lvLrPqHjUrQw9Ls2qlqMvfH7mrSpJpHH0sufydfSu5L5Mjr4e0dPCuuTmYVyjqYV0Za11dLOmjrYJXE4uHpHU0zdpBG1cjEnQ26Arn2VSdslkbtlLlyXESaXJTKKG8iK55EvcsTYrnfvycrX+O0+rxyx5salF/g35M6TM2TPfRpm8yvnXmP0jm0iln0z3Y/eNco8tOLi3FqmvY+yzcZRaklb7PN+a/Tem10JZNPHZmXPHud+e3n64x87q/3E0a9ZoM+iyOOaFV7/JlaOs6jh1LEWhEn0RN7qATVjAiK2qZFonLtkWURAbEFFiAAiDXIUSpia5IItCfBJkX0UIKAZMCoLGIIi+xMlQmURoBg+gIgAATJLoRJdEAAAFMBIZQDEMACgGugsFBTvokgClQwABkl0RJLogaLF0RiT9gBdjEuyQBHgkRGQMAXQxQIklyKPZJdkUEkqAkQSD2EP2CAECGiqa7JERgSGkyMSz2ABrsAXZBZEkiKLI9EUCZIQCAQ10VkIlQokiqS7JkRlQ7Jx6KyceiVUr4BNCEQP3AQe5RIAABrokuiKJLoqGADGhAMAAYhhAMF0DC6AAAEAAEJjQhoBi/ca6AlWEX4MEs8444pv5ohhwyzSpHovHaT+Hx79tyOfVdOOdavH+IxaXbkauXwz0OPMoQVUjm6fI8kqZ0Y6d5MdKJx92vTP+q6OV5Hw7ZDKpVTtGLbm02dOD5/J0o546jHsybfVlwrL+Ks7YvTSkXQe1qlZ1cP6d1D2+plhFT6p2zJHwuqy6+eFOsMHTlVX+w/Fbnkh4pZMz2wg25dX7G3S+LWh+uEKm5b3a7v5Z2fHaDBo1FRSk/mXZp1eOMk5cWdJjy+Tr9VxsmPHqJpTiozu93yzL5DxWHyWkngzxUuKvv/ACdGUIuM5JXJdGbTaxSybJRpp0dJXOuf4n9LaTx2DbhxpS95tW2dqGhxxjTVs1whbtdUT3Qh2W+2Xmf1T+n8nlvEehpqjkUlJOS6aPmXkv0/5PwsFPU4awvjfFcH3hKGSPBk1+jhq9LLDlx7sc1TVGLzrfPX5fC9JqNsk0daOte1Wc39R+Nn4HzOo06X8q28f7exyv8AveMPpc1a+WYvjd+fLHqlq2/7irLrtkXcv+TzX/fCb4yL/c5+t8rFv+q3+CTxl8rb5rycljlGEu17HnIZW57nbbM2s1ctRkV2izBGUmidc4c213tDJtne0i+pHC8filZ6LSYnuRzx2ldbT426Z2NLitUc/S43wdrTuMErMWNL8Wn2tP8A4N2GLU064Mr1EVwSjmk2qfAwdK18hLKjF6kvkhLIo9yNSI05M6TqjNPLbsrlqYFTzxfRcSnkm6M8pSaHkyblwW4MDmuSYmMjxzk+mSjo5S9mdnFpoJcouWnjEp8eeyaBpe5iy6fJBumz1s8Kl/ajHn0q5+ks9Jfbw3lPH49ZhcckG5ezo8F5Lx2TQ5mpJuLfD9j7FqtJHbbR53zHhYanBJbbs6c9OPk8cr5i/tIGvX6XJotQ8M110/kyno5srzfmykBIjI0l+q5PkTGJgJiBiAAEAEiL7GBEQZF9E5EX0URGAAAhgAhSRITIiFA+iUuiL6GiIABRaACIJIBIApoYl2MoBiABjXQl0SQWGgBDCkAwACa6EESCcSfsJLgkiBLskJ9AAyVEY8kxpgXADAmrgj2TXYorklRAyZFEggD2HQwIoaAEVTGJdkgCJNConFChkohSGkQNElwyIBVm4REAmmHuC6AGJoaIJkkyiQEbGAxroQ10A0AAQAAMoBkSQEl0MikxgSGKPYyGEMALEwDESKmBdAwAAABjVADEEIAGu/ZIoO+uzdofF5dXzJNIyYYSzZUscXL9j1elUsGnUdrjKjlenbjnVGDSYdOlGMfqXubsai/uM0XKWR8M24dFPMrc9v8Ag5W69PPMhPV4MCuUlXudfwed6rDkkk1FttOjnrwGmm7zZJTv2SOjjlj8bh9LAtqXC/JCzVmpwtScrujE8blzHtCyarNKX1Spe48epxxlTl3+DpKzZkem8PrZ+goZlu29Sfsdf+Ig4SafNHlcWsUMfHP+DVi8hFqnaNOV+uT5HyGZ6htubr5M+DX5ckrWRx/ydHyGkxajG9k/rZ5XUYM+hm7TSXN/Jzrtz+Xq8MssuXnbv5Jz3Wn7rpnB8X5WpRhlds9HCWOcLTTskq9cSt+k8hqIY9ii2PJ62e5S4MmHLkwTUoNNe6fVHe0ktPrsclFbcsVbidZ083fH5c3S6jUaTJcejuQ1LyLdGv8AJzcmBwyNNcCm2oVFm3LFvksfj9fh9HXY8M17xauz4F/2mfpPS+E1+PVeOUo6TP2vhn3JYVN22eY/7RPBazzn6fxabQ6R5cscl8NLgRX52W9pVZOOGcu0eo1n6M8543A8uq8fmhCPbSuv9jmY8STqufyZ6uN8zWbTeOlnkrXB6XReIUVH6SHjMKdcHpsEVFRtHHq678xVp/HQg+jo4sagqXSCLQ9z+TDrFuObi+DVDUStUc5zcRx1O1kXXcjlTrcWx1MI+5wHrH8sg9VJvtlxXoZ+Rgvc5+q8km+zmPLKXuyvJG+wlrWte5z2o34pOcUzjabFc3Jnd08F9IY10NNiUlydPFCo0ZMEFSOjjjyiYupwhwWRgXYoJrotjjXwXDWT0yrJjOhLGl7IzZo9hN1y9RiTXJys+FU1V2drN+TnZUlbA8N+p/Bx1OPdBfUlZ88yYpYskoSVSTPs3kIqcGn7o+cfqPQLFm9WP+aO3jvtx8s/08+QJEWeh5kX2RZJ9kWAmIbEAgAQDAQExAyMiVcEWURESEAgGRAYmAECl0RfRKXRECIEqIlRaFABFAB2FANdjEhjQAAUNEl0NCS4H0UNIYkxhYACgoKkEQGkSixdDTElwMgdgIYDXBIVDIqS6GiKZKJBJDEiVWESiMS4HQVIAoTAAQLkaRQ12SoilyToodE4kKJrglEwTaFYmyImm2MhEkgmmAAAElyhUNINGkOiUYktqCoJcjolQqKChgAQAAANdjoS7GAqJUIkBJdBQLoABIYJDoBAFAAEvYVDQQAAAwDEOwYYBYFTCBRcnS7Y6Hj4yQ/clvpqT29r4fx2HBoYyWO8rVkdS9mRxb7+PYU/Jw0Whi2vqUaXJwsWvyZskpTk/qf+x579ernnI6eObjk+462DVqMKckealqfhkI6vJJOMFJtfBHV7CHksUFW5GHX+Sx22ueOGeby582Occcoy3yVqKNen8R5LyOaGHHgyfVxb4S5H5tS9yNeLyGTMqxRlkrvbG2b/AA0M2t8goZcU8cK/ujTPd+B8BpPCaCOPHCM8v/7k2u3+DTrNNLJzjxRbTtNKmduOHn8nl2Y8/PRSwTe77U6SFth8JHoNRo3qsHqQjTrmPwzy/lIZ9Im6ZrHKe1ksFx4lyGHQQ1uWOnzXKNdo4WHy8lNbr2s6Gn85HT54ZWlXT5MWNx5zzmhn4nXNQt474Zv8T5ZziozkqO55tYNbpvVqMk1aPBp/w2r+n7b6OdmO/Fe+hqlKPBq0XkZ6bWwyr5p/lHB8dmWXGn70dGq9uRK6dZj1OvzZ55P5MY8q1ZyJ63U6Sf8ANxRlj+UbdJqd+kgnTnBUmUazLjywdpfsdufceLr62+PzQ10d+KuPb4OjOX0VSVL2PHaPVz8brlkgv5cnzH2PUrUR1GNzg7tWajK/F/OTjkUZwknFxkrTPgn698Nh8R+rM+PBGsWWKyRXxZ94001HG5SdLts+J/8AaBrcPkv1XN4H9OOCh83y/wD8mOnThxfFwW5Wvc7sU2l+DnaHBt20djFj/Jwr0Q4xZKn8GiELNEcCZG3Nmn8FG130dz+ET/tsHoYtfaRXD2tvplkcb+DrfwNyqia0VexWbXKji/AZYbcbk/Y6noqP9ph16UML/cqao0/3fg6+BtNHG0z6dnVxZEgjuaadUdTDJNJ+5wcGXpo62ny8Ii662KRfGjFhnaRpjIqWrJGXMuGy9ysoyO7QI52bk52Y6WbtnOyolacrV88HkfM4Vlw5ItdpnrtZ70eb8hC1JGuPV1jqa+cTThKSfsyJfrEo6rJF+zKG+T1z28fX1F9kZExON+5UQYhtCfQCEOgoIQDoKAXsRZNkGjNCENrgRYAj7kiPuAAArAJdEST5FRQiJIjQF1BQwIEkOhoAFQDEQAxDAkugYLodFgSJISQyqYAAUySIk4kokuhgBAIdAuxgOh0BIimlwNIS6JIgaXJJJkUTTQBRKhJkgGuiLHYmAIaEhookuyRFdkgJE10QJLogYBT+Ap10EpxJIUU7JJMIAGFAMaESigqcSSIokiNG+iI/YRQAABAABTKGuxiSd9DoAolQqZKgJJcDSBIaXBnQJDpghoqFtY9owAjtYUyQAiNMVEmJlUgAdAFDACgsv02NZMyT6XJS1UbLNDlUNVUmvyY6q8/XQ1m/LKMVyvYMPi9TlapbV8lmn12KU5P6XTo6EfJJQlGMqtHCvXPjItFjwq80t1GrS6nT4k1CMV+65OHqtfKOSW59k/GaPWeY1kdPo8cpyl3JK0iyNfx6WeFeSx+rD74pU0jX/wDqNYdH6M8bxaiDWzJCvb5O7h8Nh8V4qGng28qX8yb+fc8H+oIrFmdd37HWPP11r2/jv+0Hx8vo12T0WuG/ZnqdF5vxWrx78GuwyTX+qj83alb8rb7DFcVW+S/yP0z+P0/SOp8/4vQwlkza3EopcqMuTg5P1X4vyMp4MGly6mTTrI40kfKPCeMjrsj9SVq+m7s+j+L0GLRYoqCS/wDaZvTrz4XndVpp4ck5NV9VpP2Ofqc6x4W7Tfw2e91ejxa1bcsE/iS4o8L+pf07qtNl9XG5Txv3SM/pnrjHJXm9TXp+o3BcIlizrUzbv6kcp6Wen1NSvY1bN3jtJJvJNJkvs4r1nicqiu+lR3o5LSZ5XxrcZPk9Fjk9qsza7z26Om1HpZbbdMszTTfXBgjIsU5ydU3H/V7HXiuHk5xPJBZqVdHb8Zhy4KrmLXTOfpcSeSNco72CbTSqjq89qvXQyx0eWOJ1ui0j4ZrPHajSeWyx1V+pKTlz8H6Fx6Raq1kVwo4P6j/QeDy0YZNPmePLDptXf+TNjXPT5Tp8a9qZvxKi/wAl4HV+EyrHqsbXxJdMoxptOjj1Meri614I3yjdghZl06+k6GnXJzdF0ca+C1Y1xwgikXJcAqr0U10QlhST5NSVIpy9MrFYMyr2OF5V/wAqVM7WolXueZ8jkbUlfJSo6bJwuTfDInXJxtPNx7N+PJfuEd3Sz65Othy8cM89pslUdTT5eQO9gyPhWa45Dl4Mn1dmqMwN+4rnJUytTYSdoNMubl8HPzp+50px5MOeN2Sjj6mN8+xwtdidv8nodUqgzh60srNfOfNYPS10rXDOdR6L9R4luUzzx6uL6eTv6VBXBITNsq3FkWWS6K2AgACIAsQADIvobEwE+iJJ9EQAj7kiPuACGDAQPoAfQERDEUXAAANACAgAGuxkESQAAxroF0MsagAAKAYvckA10SiRJxIJAAEB7kiPuSJQ2T9iBP2IoGhDQEkAkMCcSRCJICXsAewBaAQAioa7JEV2SAmTiVlkeiVVgmMCBRXJII9kgYiBICoF0SXQgAkiUeyMSceGQSEO+RlggBMT7ASHEF2TXQQg9xgAxiJACJLoQ10QMAABrsYl2MoCJIg+wGJiYFUDEBRIaENEqDv/AAcvJqfT1WXmmjqSlsi5HnZvfqMkvlmOmuPrZp9ROKclJ/U7NkNXkr7jDiVF8a9zk9i+WR5M0d3ud3x2uzeJk5aPPPA2rlKHuzys9QsWSPwpcnZwZIaiO6Evp+Cxnqu1k/U/k5ZPUlrs038SfByfIeWlq1un93uVahV10cvWZVW0242ewprLNlWScoSSRVgajkUmbVBZfqSvn2M1qXGvxPlZ6TKk+FZ9A8X5iOojFbj5hqMWXFG1Fr80X+I8xk0uZqTMV1nk/wBvtmnzKZrnGGWO1xi/3PC+L856m25Hp9Pr1Jrki/8Apj8h+j/H63K8qc8c2udvRCX6cx6bDsxtP80egx5VkjZZtUk7Grkjx+PxnoSa/Nm2MGkvwdyeni3zRTLTRRFjnRiYtTrcun10cKxNQaVv2s688aicfz2B5fGycJ7WueDXNxz8nOx7Lx2lvTrJ26OhGKSVnivFfqRaDQYMOowSnKrjL8GzUee/icW3Gnjs7y68lj1U/O6TRr0/ukvYjh81qdTkj6Gicot1b6PHaTNOea3j3/k9t4nPN4lFxpG4mNHl/GYPK6GWHPGLk4/S/hnyHLieHNPE1TxycX+aPtM5RjBt118nzT9WeO/g/JfxMeIaj65f+73Ofknp28PWVyMP2m/T9GDD9pu055nqa8fRcnSKIuixS4BVtlGWXDJOXBnyy4ZWHP1cuTzGtluyHodXLk85rP6hSqodmrC6aMsS2AR2NPLlHT08uTjaZ1R1NPKmB2sMuTXjkc3BPo245AblLgl7FUZE7vkCMuzHl+5m1mTL9zIrk6rlM4euXJ3tSuzia6I0eJ/UUf5L/c8ueu/Ucf8Awv8Ak8ierx308vf0AwBnRioS6Ik5EQiIEgIiIhiAjIRJiYCfREk+iJQhDEAAAmQMT6YMQERExEFgDoKNAXQwAigLAACxiGuQsTXQABQAAAMAACRJdESS6Cpx5QyMeiRKlAABmrEiVsiMCSfA0RXRIAGuxDXYE02O2RHZBK2O2L2GUNDQkNAMLAAJk10V2WJ8ENxOLdElyQTaQ9zsGrF2MimOyLoskQsaYRIBWFmkStgm77Ipkl2FWIsRUmTToCQABCmkhoS6GghgAAFDACa0Y10Ia6IiSASGaAMQWEMg3ySIvsEKwAEFMAABWyVkQtlTSzusE2/g4eFW2/ydbWza07/JzdPGonPp14ascVXRNpUwgrRJx4OT0OZqFcmi/wARqng1WyUns6or1EKlZnVxdr2LEr0+ryRULfucHUT3zdWyM9TmyUnJsuw4ZZGrRuOdVY8bk+ej1v6a8dCWFzyrdz7nByYdsLR0/FeU/hoLG2lQp48r2sfC6HWwcMkEk/g4/kf+zzHNvJosiUn8o36Ly0eOVyeg02tx5EqfJzrr+Y+ay8R5zw2Vb9PPNjX90Eek8Rr881H1MU48dSR7jFkhKFOn+5Tl0WHJLdsSf4IrNpNTLYnyl8M6mHOpmP0Nq6HBvG+iDoyca6MuSaTIS1T2exnnmtkaiGoyNvgx5IbotSVpvlGictzK5K0ywvxyPLYXCUHBNRSrgNFl2zj6nMD0mq0ePLpopxu0cp6KEMixNSVrhnfn08d913fG6nxj4ctr97OpPz+i0WNwxbsuR8RUDyGPxq38Tf5pnX0Gix4cquKfHbNypjZpdRr9dqvUzvbju1H8FH6ualo8G7lp8HfxQxwx7kl0eY/U2pjqJ48MekrdfJjvr01xz7eexxNunKIQo0YlR53qXokiKJPhAJmXLLs0TfBjy2yowarlnF1OHc7o7maNnOyxbTVFHM2JFmOPJOcFF8DhHkJWvE0kb9NI52Jdm7TBHU08uDfif0nNwcHQxS4oDZjb+S5NlGNlyYEpGaatmiTtFM+CDm6mC54OJr4/g9BqVZxNfHsL/HjP1FBPRyPF0e586r0s0eHfbPT4/jyd/SFIYM6sKmxEpRI0ACGIAAAIhNCkNikBEQxAIj7kiPuAAAAJ9EST6IvoBWAABdYxDKAKAZFKgoYAIklQqJFWCxiGgAAAKY6F7kgCiSXAiS6JoceiQo9DCAAAgnQ6EMBpcAC6GKBcjXYkMipWFiGQSskuiI10USQ0JDQDCwFQElyTvggk0TBUk+BpkV0NdkRbFjuyMRrsB0MA9gAAAqadjToQFVYnyTXJWicWRVgABA7oLEAErGRXY0BKwsQGWkl0NCXQ0A7CxPgTfBpmpWG78FdsdhE7IvsLAAGhDQUUFcjEIhBQBZUY9e/5aRThj9CJa2W7NGC/yWRhRy7ejxxZHol/gjFMdHN3ZNTD3MTVfk6maFxMmLApZa9iye0twabT73bVHShBQ6CEFCNJElfudseXydE+e+Tn6ndjm3BM6X5Zr8fhwyl/NinZnqNeFxdD5rJiyKOTcufc9j4ryzlKNytM6Ok8B4nVY08uGPP4L836Q0MYXppzxS9qZxr0OvodUsipM6uKdujg+M8dl0kVGeTevk7mOLS46QVtjFSRRqIxRB53AyZtQ5vsCM2rZTJolKVx/JXTbIspp0DX0htZOCuI3C3062mnDPp4P4VNGH9ROOi0cMiltnuVFeDLLTZLirV9Po5vmf4jyUG87UIRdxjHo3K5fhz8Hm8m+aaT2vtcWdHD5ebqV1+LOFgwY9/ptbafP5Orj8bFxuEy6lkdR+bzyjSk6MM5vLJym222Sho5RVb0Wx0sv9aJfa85FcYl0INcmjFor5ctyLpYIQhajdfkz+W/3GVD7/wNajGlzj5JwlDM9sVTGJ+lE+imatM0ZcThKmiiSdkqz2xZoGHJjo68op9mfLgi1ZNbxwc0fqFCJfqYqOVr8kYKyxipQRs07rgzJeyNGFU+So6OJ9G3EYMT4NmGXNBW7GzRF8GWEkjRCSoC1lMy21RVNkGTOrtnG10bT/Y7OXpnJ1afP+QPHeYju000eEmqyOJ9C8tBehM8BmjWeX7nfi+nl8ioAA7RzhMUlwSIvoqq6FRIQQgACIBNWMAK2qI2TkiNARsQxAAAAA+SLXBIH0BChUSEUWEl0RJLoAGgQIimA12MCIxiLFgGhDXQAAwCgkIAJEl0RGjKJroYl0SQCGMYAhiQwGuh2iIvcUWIZFDIJARJBUhroQ10A0NACAYxLskBIYhgNdDXYl0NERZEa7K7oe7kItD2K9w9wFi6AgpD3FEgI3Y12FTROJUSjIK0AV7iSlwBIBbgbsga7JWQXYyrEwHHoZiqF0MQEAyI2I1GaAAZQDAkugiI0MEAEST6IsQACF7Mtq4w6hXqk1ybIwKJQvMmdHHh3RTOPbv4/TPtojRrlp3XBTPC0rOeurNm+0q08be5f8FmodRKdHLiX7m+PrHk+NvsAgO7yU/wUrPLFl4l17F35OFk1MsetnfTZjqOvie98P5ZuKhKX/J6J67clR8w0mtcJqnTPU6TyUlCKfJxsemXHtfH6tN/U0dd5ouNLs8NptesWSMlzE9Di1a1MFOEvYYrTky3N8ldp+5H82NLkCSRKMXaCBbEiFsBQr2Jlm0lWM7i+6I5IKeJxaNMo8EHG0ixcebz4fT1KqLVm3GpKKdmjU6dSy2/YeLapJVaNxw69VRJzS+puiUN0la3Nfg6ObFCWnvb7FOl1GLHBRlH3LjOjSxnKdbZHWxaOUo8xlXsT0M8Te6kdRNN2ujUg8zrdFsk+GYopwfD+pdHqNThjktv5OLqtKoyuJLzF1PTenrIqGaWyXyGfw2WFyxJ5Iv3M2PHJ8r2+C2Xls+kjsk/p6J+YsrNDSTeRxaSOnj8HHNGuf8Acx+L1ODPncZtucnwdvP5KXj3tlg3P8j8xf1XA1v6Lnlm54skov4as42r8Dr9FFqeFyh3uSPZ/wD6x0OCUYamLxyffwjuaXyHjvJ408eox5E/YfmVJbHyJQcXtaafw1RoxxPpWv8A01o9cvoUVL8Hl9b+ltVoG5xTnBdUT8NTuOTjVI1YeJWZ9k8c9s4NUaISMWY3LrXEux+xTEsjKgND67K5huIzlwQUZDk6tcs6eRnP1fQSvLeWj/4efB891PGeV8cn0jy8f5Ej5xrv/Mv9zvw4eSM4D9iLO0cgJ9DB9FFdCokIIiA/cREAWhMTKBkRiYESPuSEAgGJkAAA+gERGA0TJLoKAoYIECIpjEHuQSQhodIurERrodIKGgAdB7l1QAxASGiBJEwWLokiuLZJNhEwEgJVMmQHYRIXuNdAKJLoYojIESEMKkSXRFEwGhoSGAwEMCYgFbsCSGiK6GgiQCQ6GBjIhYRYugIp8DsBokuyKJLsKYxDCpRJEOiS6AkhoiNAMnEguySYWLBkEyRhUxkV0SRFwmIkI0zhDAiVExkLHbCJAyNv5FbAkNkLY7fyAAAUKs9s9XqGdfBG4o5X/wD1RXszt6eF0cunflNYuCrJh+lnQWP8FeXHcXwc3XXA1OJKzBpfvmdnVYuHwcaN49Q0nSZvj65+T41rod0Aju8uFklUJM89kleeTO5qHt086+Dz7f1WZrpw0wkjdpNe4y2yfBy4ypClk/JjG9r2Wn1buPNxPReO1233VM+eeN1jU/Rk/wApnoNNrNrXJh05r6Bp9THJVs0e55LR+Sca5O5pvIxnSZFdSLLYuzLHNF9Mtjk5XIaaYl8YmXHkt8s1Ql8masNxIygX0hUI3GHPClZXpsXqZEbsuJTjQaXCsTujpy49xDUY2tPKPucGTcZOJ6bLCU065+DlarQtfVFfUzeOI0OrUXUuD0Wk1UHi7PHpSi7cWbtJqpwVNuixXp5ThL3Ofqor2Mi1rvsb1G8IhTXKKNbjWfBa7SNIbFJV7Mi68pHUZsGqhUWpQZ7DS5J+T8bszPdmgt1nJ1WgTyJxpM26FvG1te32ZnpqPIebTjmcZdxlyR0WXJBpQnKLXPDo6v6u0XpzWeHKnzI4WHPtimuzOus9vW+O/VGs0jjCc3lgvd+x7Lx36j0GvjsyZFGT9pHyZap+7HHVbJblJp/KZr9sdcR9c1vg9HrU5wpSa7R5zVeDz6RycIuUP2OL4r9Z6jx8lDLk9TEvZnuvFfqXxvlsW2GSPqe8JPksy/WNvLyO2WN04tfuWRPY6rxGl1Scora/wcDVeGz6dtwbkl7meuP9Nc9/7YCMuiTuHEk7RCXKsxmN/qM+Qxaro2ZDDqXwIVwPKK8Uj5tr/wDzuQ+la97oSR838kq8hm/c7cOPbKRYwO8csIT6GJ9AREMAmI+4hiDOIsSJNCoAIsk+iIEREiPuACYwIEAMQDACNgWgKxlU0CBDIAPcAIJInRXu/BOwsMKAACgFYygABFASXQqGFSj0SRGPRJcEDQxWMlDAVjCJLoZFOiSdkDj2SIx7JAAxDCpLoknaIkl0A7HYgAafI7IrskBOyIv8jQDXRJCS4GiiS7GJdjCCgoY6IhB7joKAkhrsSGgpjEP9gosnF8dE8Oly55qMIN/4Ovpv07qclOfCZm3G5za49OhHq8X6UxunPI0/g1L9J6avvnZn/JF/FeMS+CS/J66f6TwpXDI7/JzdZ+mtXguWNKcVzwP2n5riLgmSnpsuNtTg01+CNDUxJdDIrokgphwJ8EbZrEtT4I0K2FiRBYxAVDAVhYQwFY7AL4CwEFnpU3Wrgeg0dOKPOZuM8ZfB2/H5Lijl078uwiM19LJ41ZKUfpZzdHH1S7RwNRD09Qmj0uphabOJrYdSN8fWO/iuMm0Mrxu1wTbpX/wd9eZl18/T0sn7nAu6f4Op5mbWFQXBx4v6SVvlbupEE90uRWSxq5cExrV0U41JSaaO5oNUs0VGVKf4ON7VRLDOUMycXTMWJLXq8M5J9nV0mocX9TOHpsylBOjoY5ppMzjtK9Lg1T3KnfB08GXclZ5rS5FS5OxpsvRmtOzjVS4NsOzFgd0/wbYEqxem6JUQjyWUzLcKgfsNRHtosqWNWLFuSaLJaOGRc2vyinT5vTavo3Q1WF+515rhefbl5vFr2Rkl41p9HoVnwPtg3ppc2uTbn7eb/gZJ9Mj6GSMqo9Kv4de6ZRkenTfKCuNGEkuuSyONl+WeOLuLT/BS8vwSjJrNPlUPVhzRk0+rhlinF1JezO1iyKa2P7X2ee8z43Lpc38Vpk/TXaXsRuF5nN6mjlDIrb6PG3KLaTPRZ9d/FaRxl9yR59r6mYsdIcbfbY3jbXDZPFG2bIYfpvgjTlSxT9rbKfU1emnvxykn7NcHoI6Xd8f7FkfHxl91f7D4l5jR4D/tC1vj2sWvx+ri/wBXNo+jeK/Uni/OYk9Nmi5P7ovho+ZS8PimqqrM0vB5dLkWfR5MmPJHlOLa/wBzU6xzvGvrWu8Ri1NvG9r/AOGee1ehyabim0vc5Pi/11r9Coafy2Jyxx4WWK/6nsNL5LReYwqeHLjmn/bfJr1faSWPI5Gub4OfqJWuT13kfExk36SSbPM67RZNPamqM3nF/Tzmr6kj5z5WO3yWX8n0fWJpP3s+e+cjs18vyXj6z25gAJnpcQ2J9DE+gIgArAQmMQZwmDAGEJ9ERvojZAEfcdisAAVhZQPoXQ3yJrggW5isdEaAuJLoiSXRWghgBEoAGIBkysnaAmuhME+B9kUgChhSAANCQUMaMocehiQwAaAYANMiMiGSRFdEkVYlFkk+SCJLsBjAODNVIa6ENdFRJAJDChdkiK7JAAIBpcFgmhiS4AFNPklaIIYRKyRAmRKYCAIkhiSa522zq+P8Hl1sozmnGHZm3HTnm1gw4MmeSjji2zv6D9PXFS1H1X7He0PicWnhWxJ/9TpRwdJJJHK9u/PhY9JoY4o1jhFI6OLA1VluPCk+jVjh+Dn+q7zmT0qjg56LfSVLg0RgixY1RNXGP0U/YjLTqSpxs3+kHp88l1McPVeLw6jG4yxI8t5P9PSwReTD9i7R9ElBfBk1WBTxu48fBZ0xeY+Tyg4ycapr2ZHlHq/NeEU4yz4ItSXao8tOLjJqSaZ1lceucRABHRxMBWFoBhYrQm+Qh2h2QsaYEgsjYWDErQWhAFU6j7VL2R1PGyTijl6n+i/3N/jXUY8nLp24ekxdE30VYZJotfKMOrHnj9LOLrMf0dHfzx4OTq62dCJZrjQai2mN8ydEXxN/uPcoxk37I7c15uplcLy2ffm2/Bzt1F2ryrJqZv8AJQzREtxq08W+THH7kdbRwTh0RRtFjxz9br3NmPFfZrxYoLmuTKrNPcYpNG+EntMuNbndM1JUiNStWnz7ZJM72jyqSXJ5hXfB0dDq3CcYv3fuYrrHttLNSSpnSx8nn9DqPpTs7GHN+TNadHGi6jJjydcmiM7RG4k0OK55EmSXZAnHj8FMoNdGlKyMkWVmxhlmlF9MrlrJw7To6mmeJ5FCcVZ0ZaDBNc44tHT25XHlv+8X8v8A2KZa9uT7PVPxOmbdQRkzeCxuVxgjcTY88tX9Vt0TWpi/7jsS8FGvtRnyeBVNpUEY8epSlxI6GLPHNjeLIk4tU18nM1PiMuFboSZTizzwPlMErm+d8W9PKU8CqDd8Hmd1yfHKdHvcupWqxSxSj2u2eJ1uB6fWTh/kxXTlLB2dLElSvo5uF8nUw8xSMujXhxbqo2Y8SK9NGkaoxIlNQS9icYwTdoKJJWgypy6fDmTU8acTkZ/DPFk9bQ5Z4MifDjKjutUVTVp2WWmMWm/V+t8dWn8pD18fTyx7X7ndjrdJ5XB6+HJjywr7Yu2jz+bHGSlGau/c4WfQ59JqfW8dmeKa7iumbnX+2euXc8xoMM4t47Uvwj5V+p8E8WuW6NflnvsXnceon/D+QlLSzXc6uMv8+xyP1n4/BLxmPUYsqyxX9ydm+ccevT54uhMYM7OekJ9DB9BUBDYgEIYghAwEyM0pdMgTfTIAIQyPuUMAAAAAIERJESC4l7CGVQAAAMQ2IAGIYEl0TiVp8Ek7AmJiAEoAAK0kNCBdmUWACAARIiiQCGIZEpjREaKsTj2SEhkAMQwhjXQhroKaJLsiwXYFi7JFY7KlMsXRUWLpEipCYwKEhrsBATJlJOwLBPlcexE06PTyz5kqdWZ6uLJtdHw/jnqJrLk+1ex7XS6ZYoqlXHCMHjNKsWNR20d3Hjqjz9da9fj4PHj6L44yWOHRfGJh2+COMvhj4JRiWxgwIQx/UbIYlJckcUPdo141+ClVrBGhPBGjWkq6IvsM6xywGfLCLR0MhjyIg5OowpNqrTPJ+e8Ksi9bTxqS7R7bLGzBnx/S012a5rPXPp8snFxm0+1xQjvef8W8E3qIxbi3zR59u22+PhHeV47MqXsRARpDIvsYFAgAAAAAB7g3CGBVqpf+Gf7mzxrtIxav+gafFuoROXbty9Pg+00Loy6d2v8ABqXRyrqpz9HL1UfoOpn6MGqjcAa8/mW2Rl1mX09I38o26pbWcTy2oUcCxnXhw7ntxZS3Sb+RIQex2jmtxrdkSO5pcT2I4Wm5yx/c9PpI/wApGL6biePGXQjyG0mjLS2LrgtUuCiPQ7Avc6QRyNSXJSmSXZmxvmu343XuLqcuD0+l1sXE8FFtdHV0WvceJMxjpK9xh1cW6OhjzWlR5bSaiM4R5Ozh1C4phddmLssRix5k/c0xmmuCGr0KRFS4HuIpNJu6qRqwa6WJKM/qMpGRqVm867mPPiyRuLJs4OLK8cvwdDFrouk30b1zvGNrVlco3wTjkjNbkKUjUc6y5sEckaORqNDBS+qJ3ezDrYtqyjh59NCCbiqPFeX/AP8AIT/Y91nl9EkeH8xHbq/3M9fHXms2A6mn9jlYnSZu00uuTDr/AB28MvqNeM5+CX1I345Iyi4mukQiWICMlxZnm7s0z6M8uwMWTtmHP72dDP2c/N2EscLyenx58Uo0tvz+TyctVnwx1GgyylLFVx3Hs9V1I8R5aL/7xb/B15cfJHGaptfBFk5O5N/kgzvPjzAF2AFUpECUiIVEQxBCYn0NifQQn0RJPoiACGIAExiZAA+gE+iBCAALxiGVQABQBx8BwJoRUPgkQJWA6GuEK+BoiwWx2ICqZIjY7CmNEbGnwBNDsipDTsgkuyRFdkggAdCIGlwNIF0NIBxJEVwOyBjI2OwJDXRGySfADGJDAfsFsXsBYJE0+EQJJgTTGiN0NMCVCoLC7AKJCDhypAkW4cbyzUUv3PU+K0kcG36VfZyfG6a6mel0yqSfwjh5K78cuvpkrXB1MaukcvS88nVw/Jyr0z0ujEtjEUS2KQVOJfB8FKVD3NBZWuE6LY5Ejn+ul32L+KT4DNrqLMvkPVXyc1Z0x+t+QkbZ5L9zPkZX6/7Fcsrl7Iilkaox5Vu7L5yVvkqlyBg1OnjqMMsckmmeC8z41+P1DSVxl1+D6NJJHJ8x4+GvwtJVNdUdOa5d8b7j541a44EXajBLDqJ45WnEqO0rzUrE27Gmmm1+xFmtQ7YWxAgHbHYgAlY7RWFgV6x/yDR41/y4mXVy/kGjxkv5cTj27cvUaV/T/g1p2jFpnceDZFe5zdVefoyZUthtyR3Lky5sdRq/3/YDha7GnFtI8l5eL9RXzR7TVxtNex5fy+JbXL3OvPpnqenBTGHftQ6Osrz/ANW6Vfzo/uer0kF6a4PKabjPBfk9npMa9JO30YrcGxhtNLh8ENjIqtLgaVlqxtkliaAqUSUV9S4LoY/qLo40mmFijbXsSjw79zTtXwVTgl8mbGpW3Rax42k5cHoNLrFJKmeQ6qn0dHRalp0+kYsdI9nj1HCpm3Fm/J5rBq7S6OpgzJ1yQd1ZU6LFJM5uPInTvo0wyxfuRWwTRCOTd8E7K0i0qISe3ks7ITjS45CWL9NrXjVORuhnWRJpnBle5+xfpdS4TS479zcrl1y7alRRqkniY4ZFNX7ksn1Y6OkcrMeezqmzxfnGnqIv/B7nXYnFur5PE+bwtZE+eDNdOWDGuGbdMujBjl9Jt08+Ec67z462D2ZuxtHOwT4RuxOyDXFlib+SqLJphk5NlMi1lUgrLn7ZhypX0bs/ZiyrkI4+qS+o8b5PG5arK0r44PaapfceX1eV6bWb0k0+01aOnLl5Pjyko7W00yLPY5dFp/MaaUYRjjz19O1JJnks+GemyvFljKM49pnojyqhN8D9r9hPopEW7IkiIUhDEEAmhgwiLREkyIERDEAAAECYm+BvoT6AiAAUX2OyIwqQCT4C0QD6FQ7AqFRKhDABroQ10RYYABVAxDAKGABTTGnQkAFiZNEIk0yVKYqGBA10SSIrokugCgGACHQiRAxroQwGmOxIa7Akg2giRYENcAP2FUxoRKJIUUPoAKgst08FOZTRt0GNOSvoz1a3z9dzRQ24opfB1dNK3yc7Ctqikb8Dpnnvt6uJjtaT7Tq4XwcXTT2o6mHJa5I3rfHkmnRRCa+Se9fIFjytFU8zRCU18lM5fkCctQyC1ErM85lLy17groLUN8DWd2cx6hL3BapX2RI66zti9aRzY6tfJJahvoK6G++WyW5NGCOVt8l8ZtoIsk7KZxtFz6K5XXCLEeU/UPinmh6+KPMeWeVfbV8rtH03Li3Qce010eG854t6DUPLBXDI+fwb5rh5Of6x+PwQ1XkdLiyu8WXLCE644b5Ia/FDT+R1WHGv5ePNOMf2TaRXhx5M2fHhxRbyTaUafcm//wChHPjyYdRkxZlWWEnGa+Gnydo4o2CZG0NMolYrAAFYWIAKdWm8DdlnjJfQkV6r/wAuyPjpVto5eR15ev0suP8ABvh0cvRz45+DqQ+05OwfY8GGOfV4sUk3HJJKVfFiabZGWOeWUceP7pNJAcvzGGGDyGqxQ+zHlnGP7JtHmdfiU4Ss9Pr8OTHlyY8i/mQk4yTfunycLV4vpe7g1KnXx47JFLI0vkjRr1eL08rfsZn0dZXGw8XGWL+Ge20DUtPH9keIi6kj2fjX/wCHh+yA6UY2WrFZPBicldcGqOL8EVlWGiXpr4NTxkXEIoWNWJx57L6ohJBVLVFc2WyTIZI2SrFNkoScXwRapguzNaldPS6huo88HY02pSfLPOYJ7ZWbMWdqX4Mukr1eLP0bcU0zzWHUt1ydXS6mLXMiYrt45WaIvnk52LKr7NkJppckXWm7fASXBCM17sstNDV1nlC2ZZxcJX8HQaKMmNPssqVbo9UmqdnTi04nn2nCVxOlg1CcfuOkrjYlrMe6PR4/zenqMm17Hq9Rq8dqO7k4nlYRy4ZMWkmPDRVcfk14HVGfJHbnkvyaMTVoxXbl0sEuEdDEzm4H0jo4mgrXGRanwURLl0RlJvgrk0SfRBsDPnf1GDK+Tbndsw5fuA5mp53HlvKRTyI9TqP7jzHkKeWmdeXLyfGTTZnp80ZRfKO1qvH6T9RafdKcMeqXCk/7jk/w6yQ3R5ZXjy5dPkp2ueztHmcPX6LUeP1UtPqMbhNdL2f7GWT4r3Poe7Sef0a02sqOVKoZGuV+54nzHiNT4bVvBnTcO4T9pf5NDniG+BBfQoVEhe4RFqgGxBmosiNiAiIYgAAD2IE2Rb4G+xCBAAFFwxDCgAALgGL2AM0yRAkKAaGugIsAABVAwABgABTQCXZP2AlEkQj9xMlSmMiMgkuiSIrobAkBFDACREZBIYhg00NdiRJdhTXY7EMAJewDABxENCCQm6EC7KYW46Wg/tOXPs6WhdbTn06cT29Bi9jbi7RhwytJm3EraZyel0sTo6OKTSRysc6aN+PJ9JB0IZOOR71+TPDJwHqEWLpZCqc+Cv1BTlwDVc5meUy2UuDLkkDSnMhvITdkAjVHJ+TRjyGGBrxdhdbMbujVB0jHDs0w6GJq9O0D6IrobCIS6Od5PQx1encJK3VpnT9qIZY/SWJ18fNoOfjPLY5uO54cimrdXTso1uo/i9dn1FV6uSU6TurdnrPKeMx5/KaHLNL03mjDJ8OLfueW8hjx4vJ6rHhSWKOaagk7VbnR24uvL1MZRoBM2iQEBgMBAXE1Vqf6EinQOtpdm/pTMuldSRx8jrw9Zo5dHZxv6UcDQZLpHcxStJHJ2i4lDKsGfHlcbUJJ18iXKou00IT1WGGVJwlJJ312GscnyGT+I1WfPtr1Mkp18W7OFrcbu/Y9L5PHDH5DUwxJLHHLJRS+LdHE1kbKleS8jjUk6RzHH2PQ63De5nDyQqTN8ufSlLk9T4LJ6uNL4PM7Tv8A6SjLJ5J439iibYe3wYtuMs28F20jIgqlwVS7LX2QkrIK0rBx4JqLb4LY4JMqsbhfsCwN/J08em/1E5YYxBriZNM1ZmcXGVHayw4fwc7JGpMljUUxdGiEiiqZZB0zGNSt+LJVI6Onzfk40ZF+PNJEblem0+ot9m/Hn/J53TanczpYs/RFdrHmvs0xyJo5OPNdGzHktAbU+SMueCMJ2iSkTFU5MaZGO6DovkVyia1LNc7XzlCdpnK1Gsbg02dbXYnI8xrt0NyLKzjnZZbs8mWYu0c5ZW9TT+TfDiX7mbXTmOpg+434jmYJfUdHFIkq1viWpcFUOkXR6RWCfRVItkUTAz5n9RgzS+o25OmYM3YRz9TL7jzPkH/P7PRaqX3Hmtd/XOvLl5FeLK4fsXXDIraM8OeDRDE2qR2jz6qjJ48i2uj0uLDpfP8Ai3oNWryUlhn7xZw3oZSjwdLw03hztS+6NUVNeF8t4vP4jyOXR54tSh1Ku0YD63+vvBQ1/hsflsK/nYUlJ/MfyfJhEIQhFU2IAYRFkSb6IgQESEAg9gfZFkA+xDYghAAFFoxDDZgAEQAAipTJECQE/YCNsadomLDAAvkrRgIAiQAANSiMUSSVhdEfuJkUuSRKlAxBZBNdARTdDQDQ0CGuwAYwJgYxDXQQ0SXYkhhoxkRgTGRGAwQAAwEMCrNI2aHJyuTDnXBfonz2Y6dOK9LpsnXJ08WTo4WnyVXJ1MGS0uTnjtK6sZXRqxTaZzoZKRojmpXZGtdGOUfrP4MUc/BL1kSrrR6z+BSy37mZ5PgSlbuyC6Tb9ymfJO79xNWBS42LYy/aPaE1DHBmvHEqiqNGMKtguS+JXGKLYrguia6AAIAUhifJKlZs+jesTwLlyair+X0fPfIaLJoNdmwZUk4TceD6XjnLFlhkjTUJbvq+Ued/U3jv41ZNVFJZNznKvzydfHXLqPGN2RkN8EWdnAiREZUMQrYARzf0WYtP/UNeZt45Ixad1lOXkdeHo9BLbTO5inwjz+jl9KOzglwji9EdSL4RbDG82WGNJXN0k+OTPjpwtmjDl9DJDLGKbi1JKuAtjNqsEsOfJimluhJxf7pnK1mPrg7WryPUajLmaSeSbm0vy7OfqMe+LtAec1GK2+Dz+rw7Jt17nrM+NqTOJrsMWnaNysdRwnE9V+h8F6rNN+0TzEuJNHr/ANEKlqf8f/JtysewkZ5ds0NfTZnly2EQqwUbZJIsjEAhivpGzFgfBLBhTSdG1QUEuAlZXCinKa8jRmyxsDFNcM5+ohTs6counwY82OUlyVuVzmCLJ4qZU3RmxZV8Oid/kpxztFpix0jTiybX3R0cGoW2PJxozLYZ3Fkxdejw575TN+HO/k81g1N+50cWf8jFeghnddmnHPcjiY87rhm/TZ2+GyK6ERyorjO+mSUr7CxCUVK00cXyXh/XTcOHR3WkRlH6aFHy7V6LJotdWRPa32asclKSdX8M9trvHYdZiccsE79/c8ZrNFk8XqfTkn6Tf0v5RhqNeKSo6GBrYcjHl5pcnQ02RydexYV2MZeujJimzQpOjTmcyiZc3a5M+RsDNmlyYM8uzZnf1HPzvksSuXqpfccLPps+WTnjxuUU6bO1qv7jPpNXLTQlVOLlymdOHLtzsWBt21ybMeKmuDQtXoc8/wCb/Ik32nwzYtJgcU8eoi/8nV5k9NhUopUivPpHhzxnFU79vc6Wk0zk4qNTf45Neo0sMUoz1U4Yorl7nRRu1+KWT9Ea6M6S9Fu2fAZH0v8AV363jk8dLxHj2niaqeVLv8HzWRYiAhiKpoGJDYRGXTIE30QfBBEYgAH2RY2+SLYAAgKgAQAXDFQw2YABEDEMVFQEiNEgAlHoiSXQUw9xDC6AGADAACYlH3JpUVxLEyKYxIZACGFAC6JXQh0A0xp8kUiSAlYWR3DsIlZJPggnZNdEwSQyKHYUwsLXwAErJER3wFSXQ6EnwMABdhQUBn1LpEdJNxlVj1L5orxJp2Yrpy72mycI6mnyXRwdNJtROrp5NMxjrHVWR8GjHkbOfCVs1Y5ckabYz/BLcZ4yLE7JVi+MvwSXLK4uy+MeERTjZNRHGJYohKroKLNo9qISIxRphGiqKRfEKnEtiuCpFsWBJIdAh0BERJkQlW4FF58W6trkrv4vkz6uGOWpzRhTg5yquqsuwwc88Maq5NJN/khmxLHknBVcZNNro1PSY8F+oPGPSZ/Wxxfpz9vhnD7R9O1+lhqtN6c0naPnOr08tNqMmKXalwvwdea49zGcYnYG9cisLAbVF1lXk5hIw4V/NZum7jIw4v6z/c5eR28bt6KX00drA/pRw9FKkdrTyTSOL0x08MribdI8b1WCOWMdjmt27qvzZhwOka8MHmyQxKvraV/mwtWa+ONa7ULHXprLJR29VbqjDkjSNeoxPBqcuFtN45OLa6dOjPOLZYmOTqcdu6OJrcVpnpc+Pg5Opw/t2Ga8dmxyjkZ6v9EOpamP7HH1+n+p7eDp/o28evywfurN81zr2z+0zPtmpx4ozyjTZpkRRdCNyRDGuC/GvqQHQwxSxolkktr+Qj/SRTKMpS4KiMnuIuNk3CSJwxv3CK3jSj0Y82NKzpSjwUTxpp2uQscTLC3Rz88dsqs7moxbeTi6hXkZF1VCWxmiMkzKyUJNGcblXrgalzVEVJMa7szja2M9rNmHUu/Y5zf1DjkphXo8OdUuTfgzLjk8xi1FNLk6Wn1KVW2RXo8Wevc1Y8u44WLPu6ZuxZ+fcjUdVS5JWZceVNI0RdoYCb6pHP8AJaGOt0s8clcvZ/B0H+wnVExqV83y48vjtRLBnTT9n8o2aTUKMl+T1XlPFYvI6WUJpLIl9MjxEo5NFqJ6bKmnHp/JCvTYclpM2p8HH0mT+XFtnVxzUoqrKxiblwUZGWt3ZVk5KYx6h8nNzvk6Gd8s5ud8liVy9V/cU6eclo8knOKW9rbSonqnW44vpZM02op1b6Z14cPJUtRkw5YyWOKTvlxXBzng13WLJLY+ezofwGeMf+o5aiOmx8vr2OsedgWs8vol9OqlBL4ZztX5LV63LeozzyNfLHr/ACEtTKkqjZgi6kUScmiDdknyQsIT7ENvkRVCBhdCbCCyuROyL5IIgAAQkuREn2RYgAACoQBQUBeAARoDIjQQwACgGIYANdCGgGNCGgpgAAMAAKceiSIIsRmqa7JEV2SCAYhgA10IaAY0IaAi07GMCocUTEMgdhaEAVJNWStfJWMC2wvgiMUiaaokmitdDIqdr5Ha+SABVGo5mqHjh06Fl+9GnFj+kxXSLNPaaOrgZz8MeTo4eDLTVCXJrxdmKHZtxErcaoLkvhGyrEuUbMeMlU4Q5NUIcIjjxmmGNUjAjHH+CTjwXKNITiVcZ58RKVkXsy/Mqxy/Y5MM9yav3I1HTjItjKzFinuRohII1wLYmeMixSDLQuhlakNMBsQm+RlE4TeKcJwSbi7V/gjObyTlOVXJ26J4Gv4jDurbvi3fwGo2vU5XGtu91XxZKKJK7Xv8nG8n+nP+9NRjeLKsUm6lJq7O5Vjimnx2anTHU15Hyf6B8joMblpmtZfL2Kn/AMnls+HLppvHmxyhNOmpKmj7rpNXDVYXgblGdcSi6ZxfI+H0Wp08lqsH8VJSp5IupRv/ABydpdcOpj4+KTZ73zP/AGc5NPonrfH5pZof/RkvqR4TJjnim4Ti4yTpp+xpMVO9rMeNNZnaN9XHgy1WYz3PTpw6Ol4idjTSfByNKvpOnhdRPO9EdTDNm/T5p4s0MkVexqSOTimdXx2WEdVhlkf0b1bfsvyG78W5sss+oyZpJKWSTk/3bsrfKL9bKE9fqJY2tjyyca6q3RQE/irJC1yc7UYkdOfJmy47RNSx5rW4Lk6Vo0fpvF6fkp8dxNGpxLkfhIbfJf8A2nSOdj08iiXbL5FL7ZtzPCm+DZCHK4KNNFufR0Y46AsjXp17ksWLnlEoQ4LY8M1GbUHi/BBw+DTZCgmqHDgrnD6S+XZXP7WKS65Oq+DkZMdzbo7Ooi5N0Zf4f3I1HGy43H2M8pOJ1NXj2pnNyRI1qeLIm6s0UznRlskbMWdNUye2pU3yVydVRY+ekVy7MVtKORo14s3FXyYHwOOVxZF13tNqHBdnRhn+GeaxalnRw538hZXocGfrnk349TSqzzmLUNc2bcWocubIa70cql2yT5XBzsWa/c1QytoKua4dnn/1J4r+J0/r4lWXHzfyd5ZL7I5VGcWpcpqjK68HoNRJrbJ8rtHf0+VOlZwfJ6V+O8q3G/RydUdLSZW6YHVtV2Vza+SO60QlLgoy52uTnZ2r7NmZ22c/O+TUZ6cvVyT3cmrxekhLS+pxbbMWpfEjk6r9R5NPpXo9PC2u5Hbl5+3T8x5XT6KMoY5KWTpni9RqsuoyOU3w/gryZZZpueWTk3yI6xwRaVdkaJMF2BFkCcmQsqIgABSYn0NifQQhDEBEAAgi+yLJPsTKEAAEAAAFohjM/VpIAAqGuxiXYyqAAAJLoaEugCmMSGAAAASAA9gpx6Jx7Ix6JRJVSGIZEAAAANCGgJR7GRj2SKoAACJARAiJoYojCgYhgTAAIGuhiXQwoAACs+T+odTTq4nKf9c62l6iYrpGjFj5NUI0xRjz0WxRl0XY1RrxdmTHzJG3CrIrbh9jbCJmwR6NsIkqroRNEY9EYRL4owQlENpYDQac/VKotnmcGe8k1/6mep1cG0zw+GezVZuepsg9JhyfQaMcuTk4c/0I34MlrsqVvhOmXxnZgjLns0QlwEbIuyxdGaEi5S47KLAIJu+yQFmODzZ4Y7rdJL/cMsPTzTx3e2Tjf7EYScJwyxe2UHa4umOcnKcpSduTtkoI9Eoq7IxfBOPZFxv8Rg9TVNXW1WdTWaVelPJhVSq6XucvxOT09XH/ANao9HNKEHLtVyjty8/f1j8Zly5cUfU5vimZvLfpTxXkU5ZNHjUn/clTJZsvoajDnhL/AMPNONf6X/8AyzqaGMP4eX83Jkt3cuaNsPnOp/7MsUpTem1Lh8RaOJn/AOzTyik3iy45Jf8AJ9mrG19LtEdifTLZpLj4i/0Z5zTOv4VyS/08leTxPkMH9TSZY1/6T7l6SfNWRlgjNVOKa/KMXh0nksfD8UZ43U4uL/Jv0kHnzwxf6pJX+59W1Xh9BqYtZdJi/wDcoI8b5T9LZ/G546rQ3OEZbkly4mLxjrz5N+uLnxvT6rNhct3pzlC/mnRFcoMznkzTyZk1klJyk5KrfuR3Esx15sqfsVTVolZGf29mVc7PH6h+Lh/47/DJ5K5Zp8XjjKc5KtxuOPTpSIKNyLXFrtF2DF7tI25LNPj2tGlkIqiz2CLcf2k12QxK0WL7kjUQxLpl0cf4F6f8uZUY/crzycY0i9wZVPE5yS+BRkjitOT9yrJFJcHSyYtsUzn5IylN0uCDk6yHJy8uPhnosmm39mHPpIwuyK4E+EVxy7ZF+qVMySSI3K6uHIssRZIq+Dm4s7wtO+P3OjDJHJDcnbZmxvVUkJlkkUydSMqlHJtNOHU7fcxSaHvSCu3h1F0zdjz8nn9Pnpdm7Fnv3Cx6DFqdpuw6pPhnnsedfJqx6imuSGvQLUR+SyM9xx8eoX+TVjzv5MtRR5rSevgUo/dF8HN00drS+DuSyKcKObkio5HSS/Yipb6RCeT6WQlMpnP6WaSqMs+Gc7Pk5NOSfZz88+Sxnph1UvuPH6z/AMzM9Vqsn0M8lqpXqWd+XDyK0DATOrz6GxWJiYNRkIkRCgCIANiYmxNhA+iI2IgAAAE+yEib7ISKEAAAgAAi4AAyoGuRDRQVQA2KyhjI2SAkugBdBQAiS9iPQ0+QsSAACmHsAewEo9EokY9EkSqkMS7GRAMQwAEAWA0OyO4e6/YB2MVjKEMQwiURiiMKa7GRGTROwsVDJqpLoaIrokiB0DQ0gaBGO7zv96OxpV9MTjL+u/3O1pftiYdY6cUWJIhFFiRHRZjS3I3aeKsxY/uRuwEHQxcJUbsXJiwq0bcXRitNcaRYnyUJ0TT9yLF9ib+CvdYOVBUM31RdngdRF4PKZ4PhOVo99N3FniP1JFafyePJ7TRBdhycHQ087Rw8GZJL8nR0+XgpY60Jfk0Ql+Tlwm77NeGTasI6MZL2LYyMcZtF8JWVWlMluZVFk07A0afJGGbDKbpKak/8MeeUZ6jLKP2ym2v9yGnj6mfHjulOSVrmuSWaHp5skE7UZON/syUhRZNdkIosj2ZK3+K02TJqIZYq4QfR6V8cVw+zJocMcOjhBK21b/Je+mur+T0Senm6vty/J6DJm8bqdPglNJPfurt/CMH6f83P0I4s+KUJr6Wpe9HoNM9TOWWGoaeNcwSPNa7EtLl3xT9NzbdcUy1MevwuGXFFwio8XSI+7VVQeOcZafHNKt0Vwy/LFJ2WM0opDa4IxJrlm2Vck65IqL3xldR90X0JRuaj7MiyuV5Lw2i8jKSyY4xk+pHkvJfpHU6dOWml6kT37xqM3zZGueVZOprfPVj5Blw5cEnDJFxkvZozZ8lcWfVfL+Hw6/SZPoSyJcNI+R69PBnnhl3GVHDrl6Oe9Zsuam6H4vyK02rin9svuOfqMtWuvyc3JmnGdpNu/YSL1j6m1jyYFkg1/uRhljFUmeX8PrdZqcMcccGVf+5Heeg18YqXoN8ezN45WRthkci9cpHOhky4qWfDOH5aNmGXrNemm/8ABpz1s06bbJRtahWuC/RYWm9yd/k0vTXLckVFbcUuEKNPG7fZpWmcsO7pjjpqxvgsHPlD4HjhSuuWa/4abXCVC9GcFyijHkw7lSRS9PGMOVydDj34KckHJ8KyDj58ax22cnUQlklaTo9LPRufMmZs2lUVSiguvGajRSk7rgwZ9M8abPW6vGmtsY/5ORqNHJxZDXm5S4pk8GpeKVXwy/VaNxk3ZzJ2pUSxqV6CM45IKivJjp2czTal4pq3aOupRywTUjGOmss+Ctui3NGuiiaoVZU4ZXF8M14NQum+bOYm7LoSS5siu9jyJrsvhkr3ONh1Di67NkMjkiI6sNRVcmrHqf8A1HEU2i6GaiNa78c6rhlOXJcmc+GpXySlqE0TF1ZOZnyZX1ZCeZGTLmLiaMmRcmDNK2yeXJw2ZZzs3zGax6uVKX7Hlp/VllJ92ej1k/pk/wAHnJfc/wBzry4doXyDB9iNxyAn0NkX0VCEMQUhDEAmIb9hEQgGIBAAARfZFkn2RZQCGAQiJIiBfQDIvsimF0CJRp3YC9hUSYgFRIQyiS6BOgXQADdjXYhrsLDsdisApjsQE1NTQ06IroYVNSVj3Fa7JASsdiAFOw7ENBBQ12AEUyVEfcmBEa5RF9ko9FRJKhggIoGIZKJDEMga6JIiuiSAknQN8MjasJNbWGpGWKvO6OzplxE42P8Ars7WmVKLZl0jpxLU+CmMk/cnZl0XY39ZuwNHNxy+s24Jfkg6+FrabMT4OdhmtvZsxTXyZrTbZNNUUKRJS4IsWthdlW8FIKsfK/Y8p+rsMZaTHmfcGenck/c4v6lwfxHiM7X3QTkl+xFjymllcYnSwSaXZxNJkuMXZ1MOTgK6uKapGzHka6OZhlwjbjkGW+GR+5pxzsw45GrG6A1qXBZFmeL6LotfJRfjc45I+nakna/f2LZOTnJzvff1fuQ0s4w1GKcm0lNSb/CLM+SOTUZMkXxKba/yyVnfYi+CSkl/uVxaNGm00tVmWKKtt/7CNX49TgctmPJjppwXDLXkioPJnagl8lOmxLTxjFOTcIqP7lPltLLW6GWFN726VHffTx/a14MsZr1E0seRfS/k89+pMWrm4y0zxygvuT7Oz4zSz0Hh8OLU1KUPjmjx/n8mq8j5rHHxmZqCf8y/7SNx7Pw85vRYd3EtvKOs4bonI8dLZixwlK5KKTOtGXBqM1BpRQlJdk5R+lujMp1Lll1lpu0N+1dlcZcFsIqMoyZdEZRb5IqNItnzJshT+AlVzjui4p1aPm36m/RuvlqZ6rSRjkjJ8xvk+mNPtLknFya5r9iXnVnVj5D479FptT13fez2PSabweiUljx6THFJdtHqtboYyW6KVt8texUtPGEVS5Mzlr9Vhw+N0+GKjGEVXukXvDj9kXbJd0U5G1JGsEHo9PldZYKSL8ej0+P7MUVXXARTs0QXHIxEPQxyVONP8FU9Mo8o2KBKcIyjVjBz5cQUV7E4zjsrYi96dMpnpssZfcq/Ypojt4W1WRnBS/tFGMlk5Sa+Se7bOqBrPLRqbTVL9x/wKr2s2RpokqTsGuXk0TV0YsugnJ8I9C6ZW1fwMNeTzaBKP2O/2OVqtC+eD3eTDB/BztXpkovbBSb64IjwGo8a5QbaOBq/Hwxc+59B1Pjssm3kk1F+yOZqPFYdjtc/kNyvm+dShKqdGjRauWJpTvaeg1/icXdqjz+qwxwz2rozY1K6m+OWO6PKKZr8M5mLXvBKq+n8nRhnhnjcWufgzY1zVE1TZBSaLcsWmzM3TJjWtEMtM6GDNSOPuaZoxZ6a5IuuysjZOMjnY9R0aY5LV2MNa1KgealRmU/yRlNg1fLPwZcuf9yMpNrgzzbsGpSyWVSbaDlifCZqI5evk4xd+5xG+Wdbyc0odnHOvLz9h8iGDNMF7CfQ2Iq4VCoYAxATGJ9hkmIGAAIYgEAAQRfZFkn2RZQAABCIkiIGgi+xgRQhoQAN9CAAGMiTKGugAYCGuwRJdk1YAH7kiKjQUSAGBdASj0MCHuP3Iv7h+5VWAIQSpDRAaCJgQQ12BP3JlZIhpe5KPQDXQXDQyLBdkEhkV2SBqQxDsCS6Ag3YBUvcH9rIsT6ZFivF/WZ2sH2I4+n+5nYxf00YrrG3H7FrdIqh0ibfBJ7bOEvrNmGRz1L6jZhlyTB1cMuDbikc7DLg2YpErTduJKXBRGRbjak1GUlFN1cnSIJWCkXajSLT41lWpw5G39sJ2yem0i1GGU/4jDjd/bKSTZF1nsza2KyaecH1KLRq2RedYvUildObfA9bo4afHGUdTizKSdqE72hXy3TZFCTxvuDaZ1MMuCOLw0M+s1GWflNFhk5y/l5cii+/gfjsUdRqI4ZZ4Qj/APUm6S4I1ro4H9KN2NmbUaaOi2Qhq8Go3d+jK9p09LoYZdJHP/G6WLav05ZEpf7BkscjXCXBRo8Ec+oWJ5YY1zU5ypGnUYI6TLGK1GLMpc3jldfgC+D4Lok4aKH8P6v8Xh3Ve1z5/aienxQz5HB54Y1Xc5UVEtJBZtTixybSlNRf+SzLBY82TGuoScV/hilgeDUwhgyxySdOLxu+f/yacmk2w3y1WJy/uju5v3JUjMurOz+nnu1OVVclFUcrDijm3ReaEF/63wafDZY6T9Tfw8tRjks0dqcXwyyLb6eu2y226McdTLNmlHHW2Eq5lTf/APODoZMSUpTWSMlJVSfyzBq/B4tTkwZdNkWmz4pKS5ren2dv48kVeP1erywzx1kNk8c/tS/t+QWk06TzYsa+r+9rk7cNPBy3ScMkq2txPNef8v8Awcngxwxym5KKipc1+xGpV+m3RytX0zr4pOjlaOC9KGSU4Qvn6mdHFkipK5L90VK2p2q+TnayXoT/AAb7T5Ul/uV63Sx1Glkt6Ta+Ss1RhzqUUbYfVOMbPNaTUuOZYcr287bZ3sTjDbtyKX+TM6W8tLX1P9xPsnGmr+SPB1jNRBEqTfdEqVdlRRNXEzyRrlFS4Toz5IqPbszWopcfpMOX+odSUEsG7fH/AHOalHLnqUoR54bdBpZD2NMFZDHg2ut6l+U7NagowfNsIVVErfZfGO+PLplcoqL5a/cCAS+qJNwSje+JXIGIKHAbUl1yT9gC4qaaXKK3Cd8M0MiNMUbZLlsUsko9Q3FsiuQTBCUZ9knFRTpLn5KpY1/ZwSTagk+0EczV6eU5cLg4euwTg/ts9bd8GXLpsc27QHzrWYZytOLR5vX6SVydNs+oa3QQVuzzHkcMIOShC2SxZXz3Np5e8CnFnnp8t3+6PSa3Q58r4xtf4OFqNBlhL61ZMblxqx6nHmXfLFOCi+OTHGHpK6LY6yNbWjNjU6Ny5De0G5S5TIPsmN60QySXudDBluBx1Lkvw5dsjNHaiSkjHizWzVF2rAWxsj6D7ZojG+SxtKPIwc6UNrM+V7UzTnyRbbObqssVjZqQrk+RzKT2nOLc89+WRWdeY8/ZAwEzTMDEMTCgBCKERfY/cTDBMQ2JgAgEAAIZBF9kWSfZFiAAAfRUIiMALgFYWRTAAAAAAAnaIDKLEwZCxphUkNdkbGnyZE/ckV27JWF0AAASTodkWK6Bob+oA7YUU1K38jIkgmmuhi9hpBcCJLsEhpUwmAYATVxIfsQsaZFTBdiQ12BIA5EEsMBDAY0JdACGyL6Y2J9MNQtN9zOvh+w4+nf1M7GDmJzrry24/tX7EpCh9q/YJPgzy0ri/rNWBu+zGnUjXhdFqungbpcm7EznYZcG7E+DNVriyZVFosT4IqcW77J+xXFknJkWBvkryz3Jpu+PccmyqTCvn3lEn5jKadOk4U1aKPKJf975WXaVtojWN+KTXuzdhk0qswYu0bcQRvxy/Jqx8VRiwNtGyHSC42Y5P5ZojIyY3waIsqY2abLHFqcc5W1Gak696LM2RZNRkyK/qk5K++WVaLHHLqsUJXslNJ8ksyUNRlguozkl+yZKgcrVGHV+rj1emz4bU8c09ydNGtNNlGskoqMn7OzMvss9PpuGcXHFFx5kuqK8uKOTUYpuc4+nfT7J+OzY9Z47BqIO4zimmjU4quj0/wAeOz2q0yniyy+pyxy9n3ZRqvV1C2ZtNjai/pk0ujbCPN0W5Y3gqU0o/wCp+xcI4Opht79ivHlhFq+y7Xzj68cEGpOStSXRlyYWo/ldkV29Jtmm+KouycRdHH0M5xdWzr3UP8F/iZ7eM8jGWLWZJpvs6fitVxBuXXasp8npm5SnT5OdoMvpazFik+Jyo4W5XbPT2kc6k7XuWJmBOMc04xfCk0jXCd1XR6ebscLPa50+0AJgavplGX2szyo0yX0sx77vlWYta59o6jK1icbOdiTyZeVwma8/I9PjShurkStLoxS9i6JBJFiKgbK32TfRWwQ3JtVfAg230NqguojF7k9qoggyL4HJ0Vyk+gCTIDACPJF9kpuMYtshacd3yXUxDJJQVlTmtt+79gm3KRXKKtN+wGXUaaedtv6YnE1kMEJ1hjcl3xZ6ZtT6bqjnazx1YnkxKsgZeYz/APqi1/g4uuxaOruN/FmjymPyeTNKGN0l7nmNRhz4p3PM5ysVrWfWYt2SSxwltvhnM1EfRi2+GejxZFPHU+6OL5XSyyO4r6SYOVi1eSDdNv8Ac34dVHMvq4Zh9HZ2iDvdxSZManTrblfA91HJhrZYpVKmjfi1EMsfpfJmxv8ATfgz7Xy2dLDqU0vqODu/JJahw9zON69PHUR28MqzalKH3f8AJwP+8nFU2UZvKJxo0a6ObUx2yp8nK1WqUk4pmXJrJO6KYxlPG8s3/g1I5ddxDt2SCkI3HK0PsQxMpAD6AH0MVEQxFEfcRIVBlFiY5ESIBAACEMj7gD7EDAQAPoAfRURAAAtAAIpoAQ6AQDoVAAxUOiwA0KhrgVYaGKwuyFSRIiuySIGAAFMVDsCpQlyOhDsIKH7CsdMGGuiS6EuhoNmhiQ/ciCwsAIpgFgBKJNdkIkk+SBsVjYgCyS6IjKlSXQMF0DYJAyL+1jE+mGkdM/qf7nYwP2OLp3UmdnT8o5V25dCH2r9gl0EPtX7Cl0SNKJPk0YZWZ5IuwlV08L4N2JnOwukbcTM0bUyxPgzqXJcpKkSqsUuCSkVppokuSLEnLjoplLgsatFOR7XyRY8L5R//AN2ylul6KPIvf5TJJdWX6XhFab8XaNeMx4vZmzGQxrwukbISMOM1QYG3HLguj+5kxujRCVgrbp1PJkxrGvqbqPPv7DkpRySjO9ybUv39yrTZfR1GLNzJwkpVdcfBZmzetqcmXbt3ycq+LFInBX7mLyLl6VxV0zVGVLs2eI8ZHynl8OHLfpRe6SXvRJPadeo9Z+jtLq8H6fxrUxUY/dBXykzvVQo7YY4ra1SpJdJD3Jnpjx9X2dmXW7c2mlhnNxUjVRXkx4mrychmORj00cMYpXKlSZTmtNqzoZ8K3RnjnWNexztQ16jaaoy0v0XLs61XA5mgXB010kaiWsmqwLJhfB5XNp5w1DjG9zdKJ7acN2NxXZ5/PgWPULI4Jyg74Zy7jc6ZdNqMmHNsy3adO30eh0+WOSKaZ5bLN5NTkyNU5Scq/c2aPVSxSSb4HHVhY9OmSRn0+RZIXZej0S652Cf2Sr4PLY9c8WsyKTuO6j1LW5bfk8n5HS/w+slx9Ld2c+/Tfjnt0nlU0nHlG7EqxL8o89pc7U4wvg9FjVRX7CL3E6ol7CItm3M5Sohy2J2XQh9NgJLarK27Jz54RWAVbLH0RirJtNRCxRN/gqb5LJplbTIosLFQm6AHHdFp+5VlVRSRcUZXyBCC3OmQywcnsX+5bD7iUOcpUqrFpnjXLcv8HP8AIarZk2J8Hb1EvTwSfvR5TJpsmfM8k5+9pBGTV43qk4NuMH249s835bSYdNB7opyfEdp6nK1jTXwcPyUFOP01J1S/AR4b1HDUSjVUyeSSnF/C+TR5nQ49HtzSytTlzRw8+rybWuguoana58GRwtk3JyfL5JRjYw1j1OJKNozY8ssbuLOhqYOUHXwc7a06GLrp4dZHJS6ZZkk+zkJNcrhl8M+TalJk/LX6XZJ8dmSUnfDLn9fIo4ldjEvR6fT5MkXmlxjj/wAl7fC+H7A8jUFBP6Uitvhfg1IwKI0Ssi2kVCE2F2J9lWCwsQBQILFYAILCyMIy7IschMBAAAIj7krIt8gIAsCgB9AD6CIgFBQFtBRIDKkuhoARQ2IbEADEMoAAAsA12Ia7IprsmRXZIIYCsVhUkMSGGaA9gGUKifsIYbMa6ENdEqGh+4kxmVAAAAMQwHEknyQGnyQTsBAUMYhgNdAAAAn0xifTCxVg+5na032nFwfczt6b7Tl068uhBfSv2CS4HD7F+wS6MujNInhZGfQsfDCujilwbcMjnYnwjbhkBui+S5Pgoj2WqqMi2L4JxaK49EkFibarsy6iRe+jNqnUW/wRY8RqHv8AIZGueWW4ZVKvYzN1qMkv/WzRj5kVt0MbNWN8GPH7GmDoI2wZpgzHjkaYSA2QfBdBmaEjRjM1XR0MYZNVhhk5Tmk744vklqILHq80YqoqbS/azPp8csmeEUk3OSir97LsilDNLHLiUW4v9zWov0eky6zUxw443u+D3HhPBw8RKWWU3LLKNfsc/wDR+Bfw2TNS3b9t/HCPRzz+pKWPA1LKu18HTmR5vL1dwPS3neR5Z7V1Ekpwjuirb9rJKTTp90UTeOErlNWbccWb2OuLrcvyVRluI4NRnjr3jlH+Q40mvkUiGpzwaeNJJr2Rxsyt8HQemzYsuberbk3H9jDKEpSdmWm3x6a5/B0d1UzJo8WzHbNXZqM1cm9t+xiz4FLLHjh9myeVQgkQjH1pRoWasuOBrtGoZJuPXsYIRlFq+GexyaKEotSXJyNX4zZckjH5xvUfGaj69smdpd/g8xhbw5ufk7+my+pFfsdJ8Zsal2c3yumjnxbmqaOguJWUatXiZnv2cXK8ysEoZ40vc9Ji/px/ZHHcf50Ts4/sX7InK9VP2IMmxM2wjFWy6tsGQiuR5ZfTQFN/UIBFFkESyOkEOkGXoDPJuwilIJK0WYo8BUdiIPH+C6UaEFZaM+X7ma8n0maSvkCu9qbLtOm+Spx+j/Jp06qISo61Xhl+x55zb4S5XsdvyE2sEqOPjikrfdFRg1uGU8LcU93wcPNF6aF5eG+r9z1M47jleQ0qyLbVur7oI8N5eS1GOc8n4UFXR5LU48jbeR0o+/yeo8pp8mHWSg5Nxb+i3ZwvJ4tuP0/7u2BxFmub9qNEdWormjFP6Zte5HmXAGyeqTM03vlaRBQdl0cTAppk0nXRZ6ZJRoJCinRJD6ArRMQ2RCUWRYUIqYF0D7AQWAT6GJ9BSEMQQhMkRfZGSYmNiZQgAAIkH2TIPsABACAYAAQgAALgADOKAQAihh7gHuBIAAAAACgAAAAAQIkAAVTXQyIWEqXuMhyNMJ/UyRDkdmbW0xoUeUWJImrIiBOkJpEMRJCoVlRIAAAAAAF2SIhYEyXsVWyVugJjRXbJJgSBdisdhUMf9U7Gm7OLD+qdjSvk5dOvLqw+xfsOX2ix/aib6MujJlK8fZoypUUxVBWnH7GzE+DBBs1YmyVcdHHIvjzyZYGmD4RFkWolEgnZKLCpmHyOX09Nll8RbNjkcX9QZ/T8dld02qA8hDLKTv5ZtwS5OVCbu0+DoYJBddPHI1Y5GHHLk1wYG3G7L4dmXEzRBuwNePho2QkYcbNMZBW/TZfRzwzRVuElJf4Hm1Ly5p5JKnOTk1+5Vo/Teqweq0sbyRTUnxV+5J4Hq/L5NPpq2vJJRS6q/YmGyPV/pDVxePUaZZNmRvev9j1OiwuLlmlFxlNnN8L4fF4vBujG8r+5tc/sdXf8cHfmeni8llpZvrUobtv5MGbSY1NZJPc/Z2asspqLlBXL8kYxyywfzWvmisxfgyR2Ri5P/Bm1WHVrMsWkxqeN/VLJk9v2/wBx6XUYMWaMHy5Sqr6OzNVFte/dEVws+TWYO1uSXZzlqG5KW2r7O5rHBYn9XB5vI/rddWB6LTSUsKa7LjHoG/QRr3Vy+jUSo5pbpJGvBGtsjnY5b9S75R04NJxXsEWPlsz6mFxs0Sdt0QnFyhQNeZ1cKyNmjQ56aRbq8HL4OZCTxZ+3RGt9PSbrqRDOrgV6bKsmNcmiri7+CJHAn/XX7nax/av2ONqYuGsiukdfC7in+BFq4GAmbZDdFcnY5ukVtoAFEjKQ4gXLojKVCt/JGT45Ajdsuj0UQdyNHsAPogSIMKryv6GZuy3O6RTFNoyHL7aNGONY7KK+qvY0y+nF/gsK5XkHaa/Jz1E36upbTHnqMeODTKuSiZNRH6l+zL1z2U6m3FV3QHj9fp45c0274Tr9zwXmI5dO5W7tn0rVRcZy/J4z9RYYykkorkDxsYyk6+TRDCox/JKOL033ZL3AIqkMAAiFjBoCD7EN9iKpgIZURIkiIVF9iY32JgDENiCEIYgEAxEZJiY2JlEX0RJvoiBACVCCEAxAAAAAAABZYWABTAEABYWABT3MLEMlBY0IaBosLAACwtiAqp2wsjY7AYxJ2MJR7jS5F7kkFhjEMwqUWy1NlKLEyLFnsRkx7uOiLYUWIVhZWUrCxWMBgJDAB0IdAFBYyPuA7GRGgGOwoV0wFHidnW00qZx7qVHS090nZjp25drC3Jcl1WUabpGtR4OLqz5YcFKgbMkfpKYxsCEVTNOJ8FWwuxqg1GzG2aI8mbGaIsjUi5PglHm7K0/wPd+CLiTkl7nmP1VmUdCsafbPRZX9L5PEfqnO554QXFG+fbHfpycMrVHR07bZytO+aOnp5Uy2M810cXZuxdGHFJOjZjkYdGzGzVjVtGTE7NePtBWiPHRbFlUSxOi4NOGLzZMeGLSnkmopv8s9F4HSz8V5JarVQtKbx0l8OjD+nvG5tRq4ahw+iE1JNr3T4Pe4tLHUZZerFd26XudOY8vk6243xkptTT4lyQlJOT+RyxuE4rGvoihS2tXF3fudHFRLVRi2muuwU/UjvjdPgMuGDbTXJLHLHhiuHUeaSIq7H4zEpvLDdvnV2+q+DUnkwKUOJJrtkcWrxZYboyf7NUWyx7ZLIm26A83myZ8rnHN9LUuEvgwTW2R2tVs/iJS3Jt8UzkapbJOXZFdnQP8Ako0Zm1BpGbxr3adM0ZX9LZqIp0b/AJzbOnFuUo0cvSf1mdStri0ESlNxlRYsnBmnJ7+R7gDUYlki2jzutxPHO6fZ6He/kz6jBHNFprklGDxme2otnZT+m0cPHosun1CyJ3FM7GKe6CGUcfy1Q1MH78HS07/lx/Y5nnl/NxyXudHRvdp4P8JCNVpTB9B7EJSNMoZJWqK2+ByfJBvgBdlsaKbJp0BNvkjN/T+QcuCrJKwsTxfcaWyjDwrLb5sLSbdlc5NEm+SqbsJFWaTboUbUUKf30WxXsZU8cdz5J5pfRQ4KinPKjUSsGanL9jHmi5ujTlf1NlLlz0VlQsLRVmi6S4N0nUb7MU05XO6pdAed8hFepX5PG+ej/PlH2iuD2OdPNm+OTyPn0/4jI18UB46X3MQ58TaItgOwFX5GAgbYCAi+xWOXYigsLAVlUrFYCABDEwAT6GD6AiIYgg4E3yAgyGJgwYCFQxAKhUSEAqBoYmRCoKGACoKADQmAARTQAgAAAAChgBKAaENAgAAClQwApoodDGDSSpDAAD3JEfckSqa5GKPAyBommQJJ8EaiVhYrCwoAADJjQhlxNCGCGiKKodgIodkRiIAaENANCYxPooh3OzqaZXBUctcSOro/tOfbty6+mXEf2Ny6MWm6j+x0IR46OLrEHG0Q9Kka4wtdBLHa4I1jHsLIKix4qVhFBYsgq7LosqRZFoVuLbBc2Kn8CcqIKc09qabPAedyOXkpW+Ej2+pU5Rk1CT+KR5bU+D8hrcjyY9JmlJvrazfLl37cXTtKXZsxzp8M6Ol/R3mpvjRuH/uOrg/Q/k3/AFJQRbWOY5GnyXXJ0cc1wjt6f9D51H68q/wdTD+jIRS3ZpMw6689gtdmzE7dJ8npMH6Z02HvfL/J0MPh9LBqsfPyyxqV5WMZN0kdTxHiM/kdQk04wXbfB6PTeIwzypLGmn8I9LpNBDTwUIQSXu6Ok5ce/Ir8bosekUMS4gpLotjqli8tkxye2EnwzTHFunGvmjL5DQLUQkk6yQfDOkmPNfuulJ2kou+GuCrGmsdVyuDn+NzZcV4s0m5R6X4Nj3OW5SaT5CFOM5ZuV9Jbjx5YZG6W2vchLMsMd87aRfi1kNVHck4/hhNTjpY1uSSvm0X7pLDt/u6K1l2qvYbbaBrl6rSY45N9cs5WvjS7O/qI7lycLyXG74JjWuj4xr+GSNOZPYzJ4tNadWjbkpxZUZ9JF+o37HTjzkjfRh0aVy/Bs27pR9gIZ5JTdfJU5ux57U2vhlLkUXwlfZMzwkXRlYBJNpkMbp7b4LGzLnjK7j/wBh8605Yq9jfoJKWlhXwZdbpv4nDbfKLPHNwwKH+ngi63t1ZBsTkQcvyVCkQfQpS/ItwASsiMByfBVe6dIlOXBDFbyWFjXBVEdh0J9BaT5KpcFjaS7KJz/ISK5P8Aml0eyvHHe7NCRlTizNqJI0NpJuzFllcmaZrLkX1Fe3kufMhbSopab/YoypLT5X+ODRPjozap7cMl+APPRjuyM8l5yF6zJH5Pa4MV5HxweX83p78nN+yQTXzzUcaicV7Mro0a2lrMq/8AUUXwDSGIYUhe4x0BBqxNUTaItFEWIbXBEGlQUMQNITJCfZVITfAMi+gC0FoQglOxWIAyGxNgwYCAAIAQxAAmMTALFYMRYh2FiAosAAMyqaAEBQAAEDAQwAaEAgYCAqmADAkIAYIaAEMLhLskIBgkMEMzQhoARFMa7AfuXDQAwIAY10NdFQkNAwIoAAAQDABDQDQAL2GBYitnV0nRzH2dPSdR2nPt24drS9ROnjVo52kjKcklGTf7HZw6LNKnsOOO8RjGkOjoYvH5H90aNcPGRq2RXCceaq/wH8Pll9uNnpcegxxrg0x0sI/2hY8xi8bqZz5ht/c3Y/CTfM5f7HoI4S5YeAv6cPH4XFFdtmrH4vBHuH+501hJRx7bB+mOOkxwX0wgWLBtVKlfsalHkltLKxfbLHG4/wBpL01/pNWwe0gzRw2WLFRco8D2hVKxklCnwWKJbgx7s0Ua5ntLXR8dpaju2nQ20GLiKX4JnokeTq+yxKnH9wklvk322Sg1vjfyE0nllXVlqMWfBsms0fbhkMeVtqMv8G7Iv5MkczE6yV+TI2ycZKn0hRjJ/anD/HYQdyNLb29hEIqS+4nHJZTJhF0yaLM/MEzz/lPsZ3ck/pZ53yzcqp9FV1/Hf+Vh/wC00TTapdmPxeTdp0m+kblDc6Aq0VxlkTN0JXJfgy48e2bNcOJRKKdQrk2Znwzbm/qFEgKYl0CKXJYi4GVy7Jy6ZWyCrJ/TkUaSXLJyyNucaM2kyXnnj9wuOjdopm6Lv7SnJ0EUyl7iU+UVTdMSlyFxq3EtxRGRPftAWSdOvkuwRrkySluyf5N0FUECLLtiYXRCUgtKRmmWzlwyp8hI0aePBclyyGONRLoKoNkKy5XSZhlLlmnUS7MWSX0MqI7vqG5cFUHaJFRW5fUY9VK4M0zl9Rj1H2MFU6aFxX7nmvPQ26jLI9Tpf6R5vzcd+Wa/FhHyrVS3avL+5V7FuqX/AIvL/wC5lXsCAYgCiwsQAPcJyEwATdqiIPsVlQxDEFgIskRZYpMi+iQn0BEAEGb7IBkX2EDBiYAAABACGIAExiYCYhsRQAAFRYAAZU0AIEDAAwC4QwoAgAALAAAAAxDAkgAYWBDEAUxiXYwqQCsLJgkNERoCSH7h7ARDAVjIosdsQyoLYWxrkKRFNACBqubIACcccpxuMZP9kasPitbqK2aeSXyyfqNSWsQ0rO/pv0rqstPI9i+KOvpv0ZgXObLOX4TpD9RqcV4uMG3TTb+Fya8Pi9ZnaWPTtp/PB9H0fgdBp19OCN12dDHpMWNpRjX7Gb23PG8Bpv0dqdQ0801jXwuT0Wi/Suk08I2pTf5PSrDG7rksjjXH4OVutzmRgw+Pw4klGCVL4NkMKXSNOxfBJQXwNaiuMCxY/wAFkIlqiRVUYVyTS+SxL2GkkEtOMV8E6QKKQwmlQUvglQUMEaROKXwKrJJcjF1KkKl8Eg4GKVCJUFIBI2aDGnO2uUZKXZ09BGoW+zrxHLyVujSX5JEEOUq6O7zWiK3Tim/eifWSUfhlG97lXfsTTadvt9kpBmm1F18HJhNxnKcl0dDVtvTyp0/k5um1OLBlWHMt6adujKtyyRkvplf7F6k9vZlvDGnhi1GRpSuATEk77H30VprrtlkVRkRyQ4POeVlFvappM9Hmf09/U/weX8vijCe+P1S3e5pXV8VBwwLn2OtimlJWzk+Nm1o4uXZpeb4Ka3uau0y3DLfPa/8Ac5uOUpyOjjVK/cuJqWbiTKJE8k379lTk2ARJohEluoBy6ZWyTlaIXyRVM41ua7OXgn6fknz2dbJ0zh5m4eUjXuF16BU0RnFbeiUK2qvgbjcWBy8vbKYye7s0alKLdGXphWiMhyl+SmLG22CrMfMzfFukYtMuWbFS4QEr+SuchyZVJhEZy4YsVyZCTLNOvqA2wJTlUaRBfT0V5siUX8kKyamXZiyN7C7Lk3zfwZsmRJUaZGLocm67FirZaHJfSwazNveZtQ/pNEnUuTLqX9KYS1Zp+NM2ea8p9U8j/wAHo8Ta0r+KPL+TzKGLNP4tgfLtXf8AGZv/AHMq9izUS36nLL5lZWAgHQUFIAsVjQMTJCaAgxEqCkDCI2OyJcDsi+xiZVIH0wE+ghCGIJgIvsdgERYDaCgEAAQAhiABMYmUJiGxAAyNjsIsAAIpoBDCiwsQAOxkSQQAAFAAAADEMCQyNjsKYAmAUDsQBdOx2IdANMafIqGuyInfAWKwCJXYyKJWjNJQMIJzltim2zqaLwOq1M1Jpwi/cl6dOZrlpr9zRg0Wo1TrHjdfLPYaL9L4MbU5xU2vk7en0GPFxDHGK+KOd7bnieO0v6W1GTa8s0oe/HJ2dL+l9LDl/U/yenjpo8VBFscFdIz+nWcSOZp/F6bEqhggv3Rthp9tbUl+yNcMTXsi+ON/Bm2tyRkjg/Jojg3fHH4Llj/BZGFE1Faw0q4GsPJckOi6itY6JxgT2k0kiNIbB7OC2k0OkBXGBOMfyPj2GnTLiaahz2Pb+RofIKdDUG+rbFZZDJKHMZUyyIi8c1/a1+6HGD5+lv8AwWT1OScds5OS/I8WpywTUZUv2LgrSVkmtvaa/dDWSe/dup/NEs2fJqIpZZNpDBBJvqMn/gKukuW/YnDU5IQ2xl9JGGfJjyRyRf1IuITTTpxa/cahJq1F18izajLmlc6dKicddmhiWJNbV+CYahGLlNJHY08dkEqd/scnT5Z/xMXF/U/k7DzSySTk02vwdeY4eS6s5+GKX+bGs00mk1RTPNODuLSZ0cYIS/nQck1tkrs0ZG/Uk1F02ZsTefOt7e5tLguzamUMkoJ8J0StRTq05wlGNukcyKeZZMbx1LbSlXJ1cuWeCGTLFr6o3+xyseuSksmSS9R8JpEVr0UqrD6c9qXM2uL+Db6Usj2x4+eCiGTXP6HKOyXMeuScNXqscKwygsrf1bvYKJafJFva6l7cdla1ssDks+KaUe2bIzySpZOZ92vYWojKeNr72+1IyjO0s+WGfC5KMlyuzi+ag3B8VKzrx9bQZW4ZP5WT7lXX7HC8pcNX/FOT3Rf0K3x+SjpePxv+AxWnde6NDwTa4TIeN1mbV6ePqz3P5o6uOTqqKzWfSYZLtGtvZKNqqHBtO6SFkm8uRJvk0M2eTnkbinVhC5cVTLZN420mmQjNqV2Qg2td8Ckn7J18lksrn2+P2IvNJRcbVMKrScuuQf092iEMksLfprv5G8sp8yZFKUXJXTo4+txOOshkSbV/B21mlt2p8Gec8i/pySd/AFuOVY438FqT23RSsksiTnLn9i55pOG1vgDn6qDbdJv9kYWndU0zrZcs8UG4NJflHLlmm8u++Uw0e2Ua/wDkd80TyarJlioylaRXBOUgNeBUi6yuC2xBukCnKVlMpg5oplNbiIk5cmnTR5sxJuWRJdnTwx2418lRY3Ssy55JxbLpyqNMx5pfSwMkpJWzn5c15KLdTmWOL+TFhi8uRS9io6unj/L7LWk0KEdsESfCthFGoxpQuuTmaqX8q6N2fPbo52rdYG/YIu+3x8vlo8T52csWg1D+V2e1bX8B/g+f/q7UeloVjXc5MEeDbb5b5YiTXImGiAAAiA6AgBMLoTZQm6QtwS6ImlgsjYxAFifYAEAn0MH0FRIokKghAABCYDEEAhiABDEQAmMTKExDYgEA6EBaAAQAABVAAASgkRJEAAAUAAAAAAZ0MYiS6AAADQAXYAuwJEl0RJBowBdDQoEOgROEJZJqEFcn0jJmo079zqeO8Rn1sl9LUH70dTxPgYKCyZ03PtJnrNLpYxjGNKP7HPrp244czx36fwaWns3S+Wd3BplH5X4ouhgovUDla7zmRXHEl0qJLHTLdobeTLaWOJfGCIxjwWxCURwlijXBKIwhbbJqILoZYUKI6EMMkSAkFNdIAAqGBFugUuQLYk7XyU7g3FRcKyr1BeoBbf5BSr3KHPkPUINCyU7JPLwZfUoHlLBfv4BTM3qfkPVLRo9Wgc7Zl9S2DzbaEP46eh+rPfwdTG+7OT41/RKXyzpQlydY8/S6yjNN9FjlSMeWdyNubZppyVSj2ic1mnqHugtj5b/JRp8qxuMpfbF2/wBi15cs8k82OcfRk+I+5KsQzvdjbtcx237HDw6FxnBOalKLrhnW1kf5ElJcRdpo4Wv1OfBjjOEZqLbSa9zNaj1mnX8qKlJbofBk1GCWCWXVYJLI9v8ATbs89p4+Y0+bBqcuScsUnW2/c6Ecet1GqeWMtsGq2v5IOzpM7z6WM2mm1z8ovTkuabRxY6fX45QknFTi+It1aLdVLyKyYm1jjG+aZUbM+f1MqwNcrk8/5VOpNnR0y1a1s1lhcHzvOd5i9sqKNv6fyKWBJtX+56HHw3fB4jwWocMiiz2MMtpMJV05UQWS2kuxN2mxRklJSKic7Kxyy7pMg5BYbZCcl7knLgok7ZFTtV2qK5SroH0RAnGRKiqJZ7BDXBYuisadBVWp/ptHLN+qnSMF2wsSRZiX1lRfgV8hWi67IylxYTlwY9Tn9LEyULUalY19yt/kyw1Ly+5zt+TUZ3zwbtNh2uvdiI6ehxPJk3O3R0pvbGkVaXH6OG/lBkyFQTk2uTDqp1FmucvpOPr8+yLRUc7VZN89q5/Y2aLF9CdHOwrfkcjtaSO3GCtCpVZTqMqSaRa+jHqewyzydyMGvnWJw9/g6G05Gtlef/IG2U9mk562nyr9W6719ZDHFpqPwfRfMamOm8Xkk5U9p8c1eZ59RObd2yNRVJ2xWABQAAVAAAAn2Qkxy7IsoVgAAJESREqgTdDIy7ALBsQACGCAM1EAAIAYAwEIYiAEMQAJjIyKAQAAyICAuAAAAAAoAAIlAxDKAaENAAABAAAEASXREkuihroYl0MBAMCgsYJDCmuhoSHFbmortktWTWjT4Z6jKoQV32eu8T4jHp6m1c/yZPDaCGJKTSc2uz1WDEkk6OVrvxyngw8Lg248dEMfHRfA52u8i2PBauiqJYYVJDFEkgqcScStDTZYlXxkTKLJ72EWp0NSKXNgphNX7g3FW8N5UW7iW8o3i3oDRvF6hneTkXqIDVvRHerM/q/kPURUaPUF6hleXnsXq/kDV6qISyGb1PyQll5fIGn1aBZTG8qvsPV/IVt9UPVTMXq/kFl57INvqB6iMnq/kXqv5KjZ6hGc+LMvqcdjeS4pX7molvp6Px/06WJviznaZtYIK/Y1wk/k6z483S6eRJMxblLL2WZpfS+fYxQbeTgqR1MWOOacYzlti2k182SeF6bPOMNTFw3VGLXSKsa9VOC+51/gnjxYMWRypymnzbsisvkMkZ6b+ZuTg27MWizerilGcd0UuEzo67PuwtPBuxvjc2cLJ5J6PLsUNsf9S5JVehhGWXTqKzKLi7rs14KjFKTdv3Rw5ShnyYXGcoT/ALlH3Opo4uGFNN7m7e59og0ynJNUr4bJOcsuGW5UzO9XD11hWSLnV0V6zWy0+kyZY45zkqVJcAaYX/DOL7s5Hlce6Dl+DoabUyzaSOVxVyVtIw+RmpYeF7GhxNC4xzPnlHptDqZPiR5DTzrV0nR6PTza9wjs+rZPFGOTLGMnSMEJt+5epNuKi6b4CVpyxjDI1FXRleRphJuM2pT5TrgXYIks039sNw1OUu4bSKi4dPsTyV2AT6IqUlwkReW+CUZUFTSaJrdL2B7mr9itRe60wi13F0+xb6FT92RlSXIVk1crX+TKuy3UO50VLtBYZsgtsTGuzVFtx7CjJOkcTyc5ZMiinwdXNL6Wc30/Uz21ZKI6XDSuujr6TDeRMzwh0kjp6ePpwtoRF2WX0JGcJTcpdkW6KhZZ1CR5jW5fV1G1Ppnb12dY8Em3zR53Txll1Epvm3ZUdDSYG5I60Y7YpUUaTGowuub7NMvYFRl9pjny2bG/pMkvuYZUv6YM4Ood50/ydrUz24nyea1mrhhVt9JuwRw/1l5LbpFp4y+p9o8ByuzoeZ8hLXeQlNttXSOf0RsAAAIRIQCAAKiLK32WsrfZQhEhFCESIgBGXZIjLsKiAAAwAAyQAAQmAMAAQxECI+43wRCGJgBQAABTIEyBBcAAUAABFAAAQDEMoBoQ0KAAAgAAAAdiGUNMdiQIBhYAFNMlZAkBJdG3xuD1NSpNWkYVxydjxSalu9mY6dOXpNHSS9md3C/pR5/Syqjt6bImonKvRy6EFwXwfyZ8clRZu+DDWtClyTUjNGRYpAaIskmUqQ1MjS7dyPcihzDcEq/eNTM/qBv/ACVGncG78mdSfyDl+QjRu/Ibl8mbeDnSA07l8kfUM3qsr9X9wNjyckJZOezK8j75IvI++QNbyfkTy/kxvKxPLwUa3k47I+p+TK8nBHf+QNfqfkjKXuZd/wCQeXgC/f8AkN5l9UfqDBpUx7kZVk5H6gGvcvkN5m9UPUIjRv8AySxz3Z8cG+5GTeXaJ7/I4I107NTdZ6+PYYVtSv4ovvgzxlzRZupHeR5ar1GRpUU4X9dhqJckcD3SZVjXp55YeUwzX2Vcr/Bsyy08/Uy4FzOTdpkNFG5NTUXGUknfsiOP0MWoz6fGqWOfCXwZVVr8jx6a5RlPGl0vk4cMkXqlKai1JfY10ejywyZIuF1j7dnD1Wijp/JQ1LkpQum/kDdo8ONZ45sV/UuV7L9jmeS0flsmsnkwTnHH1UXw0dfS67T5czxwcU4x9l0QWozZM08am1Fe9cMiufp8GrhiTjHfqelOXaOo15G4LIoOCivb7mv/AOptwQ9HHGfZoUvVhaVW+LKOT46Oox5sizcR7SXsHkYfQ69zoTvfdfvRl1dOLsI8rCOzWpfJ6HAqSPPZ3s8iuOLPRaenjX5A0xnXuXYs7jOMoq9rvkqhii13TJrE1mxruLfPIFuWSlNzUFFyduvyRUn0PNtjNpPhOiFqwLodPkUoL5K/U+B72BFw+rgshjtckHOuaHGTYF0k1GlJhFUlyxKV+wrKi1MhkdkU+RtBHPzxqVlN0bNTD6LT9zGuwqcFbs1JVEpxqy5/TFt+xFYtVk2RddlGC6uuWyGoy+pnddJmrTY7qg1K3aTCpPdI06me3HSSJYYqMUY9Rk35tq9hGbUsfKbY5NJWC4SKtTNQxOV/4Ky4/mM6lWKLIeP06VdmevXzb2dXSRpIK1RioqkN9AnwJy9gyrlkl1wZ8qSTt9k8k6l0c3WapY7cpUkBi8lqVjhJWeA895VKGTFBpt+5t/UPn9spQxS5PD5sss85Sk22yLFd3+41yIfQaOgoVhYDFQWKxAUIdkW+SoTIN8k5MgyoVisYixRYUAwFQmhiYCcURapExS6CagMQIKYUKwsMhoQ7sGAhDEQJqyBMg+ygAAACSiiJK6QCfBAk+RUQWgFr5D/IAAAAAAAAxAUMaIjXRAwACAAAABroiSXRdDSGJDRQAMQUEiJJCiSr3O14+NRXwcRdI72gS9OP7HPp24jr4nwqOjp8jTiYMMfpN2KPTo512jfjys1QyWYsZqxmca1pjMsU0ZotlkSI0qV9BbKk0PcMaW2Jyor3EZSCLdwt7KN7IvIUrTuZCWSu2ZpZq9yt5/kYjU89dMi9VwYp6iip6nkuJrofxDF/Efk5/wDEEf4mPyMNdJ5212ReZ/JzvXj8iedX2MNb/WkJ5m1yYfX+GHrfkGtvqP5FvfyZFl57JeoXE1o3sN/Bm3hvGGtKkw3MojPgkp2XFXKTse5lSfJJPkmCzex7mVk1RMEk2zZ4hbvI3/piYm6o2eCe7XZH/wCk1PrPXx6yFv8A2LG+CvG+Cb6O8eZl1MuSWja5bK9TRLSfayUdfTbJJL3lX/UhrfWjjfpOskcn/Bj/AI+Og1uL1GqlVP2OhKaz7pXxKW4yqGaUMilvS2viXHNnByOUp6iCW/BX0xb5s72VKOVSim1J810jz+XFqZPNmakts5cJdgavHabT5NO5QjGGo6tdr9zoZMuWGnxxxYPVlavb7fk5XiMWPQ4ZZ9RkvI1ynI2a7X5NJoI6zC91utqXRB045lkxJtSi1w00xS1ahtjNZNl19Mejy0/Ka+er0uTHveLMqlFRbSfydrDotdlksmbIouMru64A0Q1b1WSLwbvThJ7nLiy3LKGbG3CS44f4IpSx/Tp4Rab+vko1WOGnjkzb3FSTk4/BWnntfBw1inutWd3SO8cTz3ksic4STVOXDPQaB3giyM1rS57LMbe6ueX7kETjJQmpr6uei4aeWNTqyKt9ew801LK31fNFSyU7+C4mrltS+t0/YistP8Fc8scnL4KZZVHoGtbyxa7BZPgwOcm7RKM5fkhroRytkt830ZoSL45kvYosW58vsshyuSrfu5oabuwYjq6WL/Jzk+WjVq8v07fyYovmwNmLor1uZY8Uo39RCOXarbVHK1mqWfPti7/Yip6dSk7kdzQYWknJHO0OHdKC9qPQYoRx4wFlkscG/gwYlvk5su1OXdJQQoR2xoqU21wcjyWdxTjZ0Ms9l3wcDPkefUtdoInpYXR1sUVGKMeDHSR0EuEAvYhJpcssfBRlaUbbSQGXVZYwTk5JI8D+pv1BHDjnihK5N1wbP1X5+GlcseOa3dcM+a59VLUZJTnJu3wSrIjmzTz5XOXNmcsIBcAUA0AqYqZMT6IIiGI0CyL7D3EGdD7IsbEVSfQhvoiUMZEYAIAABPoYPoCFCJEQEACDJ2gtEWBA7QrQCAZB9kiPuAUOmC6GgFVCJS6IgACAoYxjICPQxDQAAxAAAAANdCGgGAgAYAADEMfsAR6GgQyhAMQUEkRJBD+Dt6OW2ETiex1tE/pRz6d+K7+GdpHSwvhHJ08voR09O7aOdjtHQxRtGmMSrB0aYmVRRYG0klSASAYn0GgRlIbISDNVSlIplORZMzZZ0gK8maSlRRPUSRHJk5ZlyZCxKuepfuVy1P5MeTLZQ8nPZcR0vX/9RD+IOf6geoVG715ElnlRgWVE45VQxW6OWUiyM2+zBHKWxyjBvjInuMkMvHZP1QNW4kZ45UT9QC+PRJOiiOTgkp2Bpi7JLsojKiW8C4kUep+SXqExVrnXBt/Tj3anM/yjmZJ/QdP9MtOWd/lGpGOr6erjIt3cFMRnaODNqJfUX6Tox6n2/c2aV/QSieXR4tbLFDMl9OSLt8WrI6CeSbz4uoxzTjCvZJ8GuGOWWcYx7br/ACcvR5J6Xy2fTy7bf+5nBuh/E6FThqJxnjk24tPoz6nU6rFP6Yx9Kr5fZ0rx5ILFkju75MzipKCq4Si03/xRBw9VhWTWQyrKvqjbxktPPUanR5Mea44+uEa9Rgw44QzRX2y2snp1Ld6T+xq7fQGrRelp9Gsz2qOOPua8WbHrMUc8ZXHpq+zDKThp8mPDB5FDmSqx6HV5M2C5aZwjapIirYYZ6PJnyYpSnObuMX7Is1kVl0+3K6co0/8AYnGUs8pwyL0lylNyMeWOWLlDPbjFXHKn93BVeY1uWGOc8TfON0v2PReJzepp4pdUea8rhl6s5+zbZ2v07P8A8OuV+w/qWPQxGqeWF8q+b+CKbfsCW5qPu2bjnS1LXry29W6KS/JHZkcX7EKoEV7VLt0L04/JYyUcafZFQUIj+iJKWL8kPT/IwSjKJbEp9NFkeF+wXVydIakRvgqy5NsHQGXU5P5rRmlkohPNum7Kc2ZY4tsiqtdq5Yo7fkp0EN+VTl7mCcparUNc0ei8XoncXJcAdjR4NiUl8G1u4S/CFGKikl7FWee2LS7YKz41vyN/kvm9sbfsQxQ2Rv3ZVqMiSdsrNrF5HOljtds5mlwynJv5Lcj/AIjOorlWdLT4FCCCHiw7S+qH9PyZtRqI4XbklXu2FTzTUVzweR/U/wCp9P47TTxwluyu0kjJ+qP1jj0eJ4NNJSy1y0z5b5DyGbW5pZMk3JsGIa7XZNVqZTyTbcnasrqkmZ4W5co0eyJWoZEYgAaENdAMTB9FfuBIUgEVERCEVDfYhPsCqb6I0AAAxADQAn2RYEwbpEEwb4Ae4iBEJaYgAiEwBgACG+iIDI+4CAkNEV0SQBLoiTYgIASEUSGFDogQ0IE6AkILAAAAABoQAMBWOwGAiVAAxAA7C2Kwsq4YxJ8hYDGId8BKLOrom9qOV7HT0UvpOfTrw7Wnk9vZ1dPLr5OPp39KOrpn0Yd47OnbaNsUjn6Z8I6EOTONJ0FEk0TJgr2iceC2rE0GlNEJI0OPBXJE1GTLx0YM/CZvzdGHOuGNMYMjqNnPy5eTXqJNRo4+fLtk1ZqVmnkzte5Q9Q76MuTM2+Cp5JfJpG/12P1/wc9Tk/clul8gbln56LFmVHNTl/qZNTl8gdGOVX2Wxyr5OZDI+S2OVt0EdSOZfJasyfucpZGmWRygdWOX8k45fyc2OctjlXHIHRjlRYsiOcsyT7JrMvwB0llXyP1Ec9ZyazKwrb6n5Jep+TGssX7j9ZAa8uT+U+eaO1+k3uhlk/8AUeXyZ/oZ6f8AR7vS5H+TUjHVethzEb4TIwdIbfDOkcdc/VN8c+5r0zaxcGLUu6/c2aZ3joVNdDBl2ShJdxd8nH1eXb5iOpu90uYr35Z19LtjnxOTVb+eDPqccM3k5SW2oybjSJVbX6Wx5Iyqb5Sl7P4K4QjNyi0lJ/2xf2sjHFGMNy5yPncxxTtyf3N3KSIK56fJFP7Hjly0/wDqZpYpQxSjjupPbuft+TVqtQsGKMocucqv4MGj1TeWWm1U3KeS0qfK+GRW/BpM+JRcM0H8xlwXRyZKqGDY4v6obu/ymZskXpZuebNNwgvd8SFptZi1kW+Um6STq/gYrPqtHly5ZZfVySwS59Pp3+5vy408UY1cUqpv2M2fSaiUpvdj3JVjxXaZOX1Vjz5PSzpW4LpIDz3k1OMsilGo+xL9N3bdu0+ijV6p6qOW5p7G48EPCZJ/xrjCVV8E/pXtY5ZNqKjRLc4yU0knF+5TiblFObt/JdiUHOHKrdzfPBtyOc3km5PtuyLdslkcfVntf026K2yiSjfPwPe1wVtv5HGbixipXJvp0OiayKSqwCDatpDckS9RVS7K5Y59k1Vjmtpi1mfZjavllrckmmc3XZPqiiKp37u+zHqXPPlWKKfPDZpnJrhV8G7x+nhJbpRt/IVXpPERxxjOXNnfwY4wVJUiEIppGhRr3CWpylUTI255OeaL8jcYNopx8XNhNSyT2x/JytbqPa+zTqs+27pe5xlk/itR9PKT5KNWixcuT9zfLIoR5Zl3LDH8L4PKfqX9Y6XxkZQxtZcq/tCO95P9QabxeNzzTSaXV8nzH9Q/rfUeSnLFpW4QurXujz/lPJ6nymolmz5Hcv7b4Rzdyxu2FTyZZ5MjnObcn22yK5ZnyamKf0pGnDU4bgacYon7DrgRF0gAVhdMBWG4LDbK/ck5Mj7hKYABUVifYyL7KgYrGxFQAAUFADoQEX2Jkn2RYXAIYgaQh0FBmkAAQJgDAAEMKAjSIvssojt5IBdDQJUF0AxAnYyhECb4I0BOwsVMKZAwCgAEMQygAAAAAAAAAB+5Ij7kgAAGFKh7RoAmltoYDKaQ6EOwU64N+hmqr4MFo06Rq3yc+nXxu7gkti5Opp5rhWcbTr6UdDC0q55MO8d7TzSrk6OOaOFp5Pjk6GPI26XIV0ouy1OjNjb4L0+CKsTGQTJWYqhrgqkWN8FciDJl6MOfpm/Jb6MeePDDVcTVp3RxdZjluts9FqI89HF16Si2+ixzriyaTFdkZS+pjjyzoicUSoS4JBcOgoa6AIFwSTIhYE9zskptFVhbCLlkaJxyujNbDdIJa1+s7Jxzt+9GLdIak/kJres/5LFqPyc1S57Hu/IXXUWpr3D+I/JyvU/Ieo/kLrqPOnF8nt/0S92iyNf6j5rve1cn0T9CyS0Euf7jUc+ntI8RCT+lkYyVf5JPpm3GuZqLtfubNLaivyY9S6aX5Nmm+2IWOhgj6mbHDhOTpMy8YvIZYyd7G4to0YnNTi4OpQaaspmlDVTy5Huc27IqnLqVkkoYZ7lHmR0JaiGnw3kuLcLXF2ZcOHFp3NY4pSyXbZVp/J45Ytk4LJtexWBPUrKp4MmO5QmuU1wjiz0fpZM2oWSLcE3V+56GMHrYSnCOz03SVkH4/HjwZdQpfX7qvb4CsWg1cfMeNnh1MN84rdHd70aNC3qEn/CKGKH90vdo5/rLTKGfFOMccW98V3fB6DDOGthjyY8ii2r2PhBUUlObqEE49JfBnlptrlKlLJVOZRLDnxeQzLM1HFOKcWnZq1LliwycE3KMeEv2A8l5HRR/iMkcUtr3XJ/JDxd4PJVF/g6Wr3zwxnONZJK3+5ysDcNbFruzP9SvaYJ3SZpSUssY8c/Bg00rpo2wyShl3rhr2ZuMVKcdmRxvoiEpyllcn78hassQdh+46E1wUOLW5exZ37opasSxt/P+5kWy2w5rkg80mgUVD77ZVJp3tIuIZ8jUeZK2cbUzcp230dDP9VOzj6+e1OKfYMGPLLNmr2PSaKG3Ejz/AI7Hckqt1Z6fTQrGg1GiHBosoXBLcWM0Tlaa/Jnz5cePE3KVUWZJe3uea85rG/5UHz7hGLynlMmfUVif0rg2aFrT4XKXDq22cnDp1K8snUVzyeb/AFV+scejg9Jpp7snTpPj/IGv9VfrF6OMsOlyXN90+j5nqvJ5M+Z5Mz3ybt2YtTqsuozPJOTbbtszy59yjTPVzn7lE8spcWV2KyYHfS/J2NNxhRxu6Z2tOv5MQLW+BWD6EFOxAAWAT7GJ9gJisbEuwUwAAKyL7JEX2VAxDYigCwEA7FuAiCG3yITANGxAAYoEMQCAAIEwBhaABWDaoQD3fgCI7AYmFoLAa7GJIG0iBSYgbsCh2FgBAbg3DSsNoAnySI1QFgkBEkAAAAAAAD9yRAZRIAAglHoGJdEkAgExEEgEMsAaNI6kZyzFLbKyV05ru6Z3FG6LqmcjTZeU/k6cJXRyrrK6eCbo6WB/Tu9zkYJdHTxS+gNOpilaRoXKMeGXC/Y2QdojSa6GHsBlqAjJEgJVUSgZ82K0bdpCceCNVw9Rp202jy3mm8ONL5PdZMW6zyn6h0W7TSn/AKeSz659fHkVOySyKPL6ILhUU55ex3/Ox5/1da/4nH8k454v3RySe4mL+66++LX3L/ckpxr7kce+PuY9zXUhi/p13KP+pf7huj/qX+5x3OX+phvb92DXYUo/6l/uStHGxSlOaSk+zoSuGLiX1CmtViMMZ5X/AHE7y/6iJrWH+TJ/MfcgbnFd2U1r/wCR8mbHOaQPJOyGr+Rmb1J/I6n/AKi4avckuL9z6L+hXegn87j5pGEnNM+kfoW46bKn/q/+EWM2vbQ6/wAlkn9D5KoqrY30zTlXN1Mryf5N+m+2Jzs39X/J0dN9sQrp6JxWqxSlJbVK3aM/kpxeolKLVOba/wByePbKcI3W+Sj+1mHyMoxzzineyTjf5TBGiE906tWvYz6aGKWPPHYk4T3WvcWlz4pfRkltyRXD/BOOswY8r02npynxKUjLTRpI5ceRThJKL75OhkniWKTycRfujmYtPqo6mODK1HHk53rpGn18UHPRtqb9ijD5DxWPW4o4dJPYne6VWZ8/jNVp9NJ48kpbYKCT4d32dzFGOOLdddJSJLNHVY5RcWq+QOXo9StS5aXUNrJiS2yaq2N5tXm1WXFsrClW75NOo0WNTWWNKTpNoHlUrSvjgDj65KMUlbr3OIpbdQn+T0Wqxpptnn88VHJx8k/o9NoZ3GJ08GVRzRbklUlfF8HE8fL6InWww9XIoVW6SVmozVueUXqMrj9u91+1iiSywjiyzxuLuEnG/wBiNr24NVFiHTZCLvks9TijKlVcsPUSIy55KpICybUvcyZU8fKfZZKEI8uX+GVxjutxf+4Vly5bVUcLM5ZdZTfB2ddKai7lD/By8GHdkfNtsmq7Hj8KtNLlI7kPpgYtDj9LCr7NW4It3EZ5kiG4z557SpUNdr1hwSl70eVxyer1LnktK+30X+Y1by6iOCH+Tz/6i8/h8RoXgi16zXAGH9YfqVaHDLSaVpZKabT6Pl88+TM3LJLc27tlus1mTWZ55csnKUn2zNVIRA+hA+iJUIQAVUl0drB/Rj+xxV0drB/Rj+xKJsQwIpIQxFWAAABMTGxEQAAAQIvskRfZQMQxUUAhtCABDEERAH2AbCG+hDCVERMQEQD3AiEyL6JMi+ghAAAAABQAuwAUTVURkIH0QIBAESAAIprokiK6GgGxDYgAYgKGMQ0AAAAAxDAkAAQNMLEADYgAAJ+xAn7CAF7oALV5+uhp5/Sjq6eVxRw9PJqVWdjTO0jnXeOnhl0dHHM5WKXRtxz/ACZdNdrTzXBuhLhHHwZOuToY8nC5INylwOyqDtEufkzWk12Mgm/kknZFiZXKJYHZK1GWcOWcrX6eOXDPHJfdwduaSRgzxvpCU6mx8v1mn/hdVlxVwumcnLzJntP1PpFjTzxj12zxMpbm2erm+njsyiJOJGJZFIMmlyEok4pDkkRpRQbSbQ4w3zUV8gavH6Zu8jXCLssfqN+LH6WmSquDJkVz4IqOLF9I1idmrFj+ksWEMxk9JieJs3PDXsJwVcKgrC4bUU3bZsmtz20QWnt8IJqmMScYl3oNew1ir2KK4KpH0D9DS/kZP3PDRxWe1/Q9xWaPtYSvdJ2EvtY4pBNfSysuZk/qHR03UTnZV/MOjpuMabCxfnx5J4l6TUckZKUX8NHP1E36kvWr1G7lXydvTU3u9qOHrZxlnytdqRKqOyGXbJOnF/5oz4PHv14yeSpdxbNOjnc3GTex9j18NUtM8mnjOTxunFr2+SDqwnL6MWeanP22uynNh0G7LJyazpPndRh0+j1+lw4dfkyucZf2beVZXq9JLV5fXxx2z6al1IDf4/VenpccM80nKT2zTu/wzrucMcackvl/J5zT+CyLFLHOTayO/pf2s3Z/CSy4IxWbLvx1TlJ8r8lGnUZmvJYMWKUJRfM65qy7O3jm0oRat80ec0njs0fNepDM5YvulT449j02WeSS27bXzQHJ1T4cvk83q5VkdfJ6XXY5Ri76+DzWqj9V+4V1PGZXsVnexzcZxcZJPtWef8bJbUjuYotQpKyxitbzSnJudNt8v5ITnC69yv1faSoGo5EVIvjwl738E3KlxExY4zxyat0alua4ZFhymq6or34/eyE4uL3dtEXqIJU48/sFSypRe52yhy3J1aJrPFxpQ/3RTmnNQb20iK5uv+hlnjsO6al7Ix6mbzZFFOzsaHGseJfJIjoQLPYri6Q3Lg2lPdwcnyGujijO3xFHQy5FCDl7Hz/9Xecx6TTz+r6n7GSMPkv1BDRrLnlzNt7eT5r5DyWbyOrnnzTcpN8W+h+R8hk1uZycnTfCMbS79ywpMUuhNsTbZpCfREk+iIAAAFTgdrF/Sj+xxYdnZxusUP2JVTfQgtsREpkRiKsAAAKGIGBEAAAARY7ZFtlUmAAUJ9CJCCVERJ8EQI+4B7gGgAAAgAAAT7GRfZGQxMYNICIDpBSCIiJUiL7KAAAAAAAQAAEgACIa6GhLoaAYUCGFKgoYAFAAAAAAAMKCgJAKwsgYB2AAKxiAlRIiSLACqmMARZil9R2NLL6UcSDqSOvpH0c+nbmuljkbMczBjaNMHRl1jp4J9HQxTbo4+Gds3Y8jjQV1YZHFE/VZgWay2OQlVsjJtoujIxwkXQlZmtRrTsZTGZZuRlqFNGaUVZok7RU+wrh+a0n8Vos2NLlrg+WZ8Lw5XjadxdM+xapcM+c/qfSrT69zikozX/J14rz9yVwoxLFEhEuidNc8SUaCXKGD5Jqq2uTV47Gp6lX0Z3H3s6vhtM8mR5OKRBv1FenXwYJRpnW1WFqL+k584hK04cTceEWrTTvo6fjdL6mC6/3Nq0SXZphx8WjnPsnm0Djjb5VHf02kgWanSx9CdfAHz/Gr1Er9nRux40+Cmenlj1U3+TXhi7sAWFMX8OvlmhKhpWUZ1gSXbPVfo5KObKvk8+4Uju/pV7dXNfIR7uKCa+lji+An9rDNcnK6y/5N+J/y0YMy/mf5N2BXjX4CtqyrHpZO/Y8/ibm8km+5e52dWnHRTS7ZxtPxik9rasVYIvLHfLY1FX9Rt8NqtRJy33kh82UYM2THmjGdPDN04sWozT8fKfocY3J0lyRqPQ5Hh1EI4cmd41aqpUwXpyjJ4prJsdNr2/JyNPrMXktPixZOcm5VRvg8GgvHkzRwSb5X+oK0ThkyOM4ZaS/0vsNKnheRyk5KTdW+TmZdZj9eChqJSjJ19K4j+5ozyywwSnDJjdcJ2GU9Hh9LUZ9jclN/7fg6cZSWPbOLjt6v3PNeKeXHqMnryUckpX30dnU5MjSa5TXYFHkJRnB882eX1aqTXsd3M5O3ycTWLl/IE/HNqXDPRaV5Eq7/AHPM+PlUv2PQ6bUcpdWErdSk+UThiqXHRUpU7NGF39SKyc8X03yRj9MaLMudNbemZnJv3BEpR32rqyCw5MUfUbW38koyXv0DyOc3vX01wg0plm3zukomLW6yEISgnftyi7UboY7h0czNNzSTxkVRp2pZb7TO/p41C7OVpcC3LijrwShGgzq5S9iMpcUR3FWSfDKjL5TUrTeOyzk19Ks+F+d1k/J6rJNSbinwfS/115GWn8LLGm1PK9q/Y+UbW8cqJWsYX2+OSDRbRGQhihoj7lklZBrk0EKh0FBCoKGBRKC5OxBfyofsceHZ2Yf0ofsRTAB0QIVEqEUKgoYmAUJrgYn0AgAAFRFonZB9gIAEygsAAAfJAmQCovsAfYAAAATQIYiIVgABCBsGDAAEMBEH2Tsg+wAAExAWAAUAAAEgAYqBIaBdDIuBDEhgAAAAADQCGuwABgIAABgQCGAAAhgAyREmWBUFDABLiSs62la2o5P9y/c6mka2mK68uljNUTNi6NUDDrF2O0aYyZmgXoK0wnZfGTMcXTNEZEabMc2accjDCRqxyJYrXFosTM8ZFkZMzV1Yyt92TcuCF2uSLazZotp8HkP1TpPX0sMlcwZ7HJ8fJxfMYPU0k0kb5YsfO4ae/Yujpn8HTjpmq4XZesEfg3rGOHLE4t8Mra5O5l08afBjyaZU2kRLHNaT4PY+A0ajpIt8NnlY4ZSzRil7n0XxWilHRY3XsaZrLrdIvSbfVHCeBPLR6vyOJxw/4PPrH/PZYzr1Pi9JFaWPHZrnp01SQeLjelx/sbp47jJL4KywYdNtLp4E4NfJfjxuMUmWOFxKjx+t8fFZZPb7mF4VHpHqdXgW5trg42fTXJtBNc2gxrkvlgYLHtChxW06n6de3XUcx9G/wcq8ml+APf429vI5v6WRh9iCf2sGOblTeXj5OlpIPak0YoxvL/k62mgriETy4t+nmq9jgYseSEMikqW7g9Yoxaa+TleQ08Yxaiq2PkVY4WXLLHON/KTLMWqjhyyqssYSuUa5Vksmmx5pJ5JqPNoctBHT51rMOX1MadzS9jKyujijo5ThrMGJwn8LhMy+W8Vm8hN6uOphurjE2RXloZtSsKjHbHm4+5bPDl1OZ5MEXHDXPPuVdcjS6DUQwyjjmpTnJJ1/bR0sugyuEMP8RPduuTa4Zu0ukjgi4rnm3ZsxY1T3/Ul0EcHD43NDy7nnz/RJrb+Ud7+Hl6a+rhexXmWOOWOfJClFqKdmrJhlKKlB8e/5IjJPFFwalwzz2vxRjKVHoNS3Gl0zh66DdyKrm6WezN/k7+PJBtPpHnsPGY7OH7AldiE4zX0uy7Huvh0c3T5GpJG76r3Rl/gsZE4yjK5p0EJQae1u/wAj9WclU6ZTJtOlwCJ2+RPM39LVFO6V9lmOG525pBrSnNJc9HOyyrI1Xua3NKc4tcJmTK92e0QaNOrldGyzHg4LvUKLXIz5cm1Ox+pyYddnjiwzySdRim2Ez2+cfr3yT1PkselUvpxRuVfLPKL+jIv1+qeu8nnzW3uyOv2MspbYSiZtbjG3yRkD7ExCoNMg1yWvorkaZRAYgEAwLocOzsw/pR/Y4+P7jsw/px/YBpckqZFOh7iB0yBLcIBCZITAQNcAFhEaC0N9EBqmRYwKIiY32RZVMBAEpkLRIrBA3yAgC0wEAZMQCIgAAABMYn0AhiAApkadj3AQRpg0SEywRAYFCAAAkMBioF0MEBGghiQwgAAABoQ0AAAAAEkOl8AIYrJIgQVYxjBGqAkFDBEmKgKGOJEEFiRt0hhbo1aWVtIxXSO1g+01RMWnbpcm6H5MusXYy9FWOJeo8kWJRLoOitKiSI0vjI0wlwYk+C7HIDfjkXRkZIMuiSxYucuQu0yIn0ZxVc+zJqY78U4/KNjM2dXGVGojzP8ADfzP8l38MbZYXv6LY4vwXWccuemVGDU4drVf5PQ5MNRbo5GuqMXfsWVLGHw+i/itf6iVxiz6VpdO1hxqK4o8p+m9DKGnlkr75I9xp4yWFJX9JY5VxPL40oO+6PMOP81np/PZ+oqPJ5yOOU8hpmvW+Jl/4eP7HVxw3Rs4/jeMPB2tHONc2VEY6duVIJ4nHhmqU1f0kGpTZUrl5sVpo5mXSW5PcuPY9Dm0/DZxtVh2ybXsEcPNi2zM0zfn+8w5egKjZ4l15KBiRq0T2azHL8hX0LA7xlklcWjLpJ7kjXk/2Arw4blZompRh/Lux6dLk2RS2hKWkzetDbP6cke18lOtSayRfuWuG9748Sj017mTU5YvOse76pJ3YpHKyY6gnGm0uiOCM8Mp5G04SjTjf/BdOKcqi00nUnfRm0/jc+dykpv0/UtJyu18mGmjx+o0mDULDmhHdLjhLizr48csOGeHSy27uU5exwkoeL1MsuaMd8k221f+xsxaxavQ5JO06bg3xRR0G8uKo5/TlN9TTq2U5cuTEnklNJp8J9M87iz6rX6PJCeRXCX0NL7vwdDR6GUsePJrZzgqpwb5kUa45JeT1j0+pWzBjSk5RXF/g7Ec+TC1icI7K+mXyjnLNgxQjp4xn6UvpTb5OhGEYQUW1KKX0tr2IivOllg9yW72ZwtRgcYzs60NR6kpxkqqTSOfrcklug0q+Sq89kTjlddnR0WslH6ZRTOdm/qsu0zXqhLHoMU8eVprs1Lo5OD6ZquDpQlwixLFnsVyVlj6K5BCioqScugyqGRVFtUDkkqK5usba7Aozz2wM2B+pOwzz4qyWkjXIa1tXRGXRJukVyl7A1CbpWeX/Vvkv4bxU4f600d/UZtsWr5PnH641+/Jj00XfG5kWR5fTrdGUvnkqz9st0cuEV5uc0kZbxiAHxJgWJSZGXRJkX0aYQXYSJCAgAABOHR14f0o/sceHZ2sf9KP7AAC9wABDIgMjLsG2JgoRJdERoJDfRBE/YiFITEBQmJjAoQDEEoK/cmRBKiBITQXSAKGAhEgIyiAwKIsBsCBPoiN9EQAQxkEQJCZYEAPoRQAAATGuhDIGALkKAEMEgoAAVhYDGhDQAAABNA+BJ8jkBEknwRAgmmMhHhEkUMQxAMBWMADoAsAfLL9LJrJRQn2WaaVZUZsb5ruaZ8HQx80c7Su0dLEuvwYduWvGi9Ipxo0RXBGodIVEmhPhBoW6LMbfyUbuaLYOiDZBs0QfBkhI0QkMVfbCyNhuJgH2UZPctb9yqfyQZticuUXLHQo85KNajfsXTGPLj+jo895TE5bYxXLZ6vJC4tHGhp1qfKY4ykkk/csTr07fg8CjpoRapqJ6NxWm0+5KuDPodPjguKde6I+UnOOCk/p6o3I4W+3nfITlqNRK2mk+ODLg0+/J1yanFpNsrwTeLM3Vmma6+nwSwxpLg6ulx8cnPwzbpqaaOpp5Kq467CLZRjHovxxjsuuShpySoviqxlSqc6Wxv3ODqleGUn3Z3Mz+mX7HIz4pzwNRi3zYRwtRBVfuc7KkdfUQaVNcnLzQaAzR5k0X4HWpx/uUxjUmWwVaiDXyFe50DTxxafJqlNubT9jmaDJsjFP3R0I5FJtVyDGvx+RZck4v26OhG+U/Y5mhax5VNfsdeUKarpqwzUFw79zka/JhXldOre5RdnWk+H+DyXk8zj5uORuuEqFWN2qjGOT1cSlb+5VdlbeeTTxZHBJKltKnlm8tytRXv8Agrjky48i5bcea+UZaPyOowzw4oanG8uSD22nX+5Xjx5YZ5ucl6KT2w3f9DW5Y9XGeNxW77ou+yvFiWbVJZpxhljzKPsAtGo6nMsWTFtxQe/al0dfT5sk8k1kwXgj1ar/AIMPqRhm2YOG3UpfIo6bUafNuhmlPDLlyl/a/go7jhjmvogu7VKiENmKE4wk5yT+xvowy1WPSxg8uV0/e+GWRy49ZJ5cClBxf3dJkTENXnlviscYRgrc5ORlzOOWUZTd8cGzUaXHqoS9SHaabT7MOsxPR4YwhBtOqbCuRqYKOVv2IYMijltmnUwWRfBiap0B28OVTSceWdHHdKzjaKbcVtaTXydrFucU8ko3+GWJV3sCinYnOPs7ITybYlZKaSZlnniri+iObK+aMspJcvsCnNl3ZODdpWlBX8GDGt87o3R4S5CrnP8AJVOaTsUn+TPllSbvpAYtfkuMnfKPk3ndT/FeTyzTunR9D8/rFpvH55p81SPl+Rqc2/d8slakaNFH6L90R2KWbJft0W6RqONig7nkZl0cuX3P9wSd/gJupyX5EuU+eixmnTb/AARlS6NNxWn3VyzK/k0yQhkbCIiGIolFnZxN+lH9jixOxif8qP7ATAAIAiSIlgQiVCoUIENqhXRDD9iIbhWAgFYWUAgYFSgBWFgBEdiABMYmEAAAAArCyAALFZQMGAMgi+iJJ9EaAAsBAOwEFgD6ENsRTCsLCgoCyx+xGia6IoXQxDIg6CxAUFisBBEk+BpkUSQDsLEAVJPlDkyN8jfJAAAANdEkRTJJgMVDAoVDAAAAABe5PDxkRAnB1NMla5drSdI6eJnJ0jtcM6eJs5u/Lo43Zoj0ZsPsao9EaTIT6JkZrgKpfZOLINckougrVBmiDozY2aI9AXqXA2VK7JbgqTdIqk1RJy45IS6MULGrzHSjClZzsSaypvo66S2hplzKsbf4OZ43DHL5CU3G6OpqKjikn2U+Dxbszl8uixjv49DpYKGK0qZj105T+l9WdTZti0ujl6lfzGdY8rl6iKUKS5KtJjhKd5OLLdW667KMUHKMa5f4KOpDFDFSXRvxO2tnVUc/G5fbKDOhpU4KqA6eHG0k3TJTlFcIlhhcF9X+CvUVjVqIiVmzOrOXqs8sbrHLj3R0JOWRc9HO1lO9sar3Kjj6zI/u9zm5m3E6uoipI5uRfSwMcXci7HzngvyZZy25P8m7Sx36nEly2wr1GDDKWKMo+xq07c8uSXxE16PBt03K5ozaKa/jZY/d8UBo026Wmbj32djHqY5NPGr3Lg5mjSx5pRu42TX8jVuLdRl0ErbKX0yPG+WvJ5Tavakj10m9r/KPPx08c3l5Tl0uyUjdp/8Aw+KMJ4d8mluklfBZOMJxpR2tdNPpfBdJxVtul0UpwbrHy/kjSvJosT5imvhL2YSwJz9Fyg8jjx8tkdXOcMEqkot8Js4+XVy0uTG6c8t9lHT0eWOKM8UsUd8XUrV2zSscoyc4YpwT7t8Mnpc+m1uJKKUNTHu/f9zNpXr82rnPJFRwRk0kmBZJ48eFyz4l6TdQUn9V/sX6CdQcVGe3dxaXBfLFhnii8+BTmueyuDWjzRlpccpSyv6oydqIF0oxm9zyJTX9q9ynM/UTU1fBXrNRl0+thcIvGly0ENVDUYnKEH3VkHM1OJJKjlZ4OMvY7Gri8cXJp8nLmnJ21wES00qruzt4MqljUdjT/JyNPLCpJNOzq4Ukk7LEsaUq6ZGXPDZFyaKpzddlRKSgnZg1WZO1FE8s3T5Obkk3J8gaNLJ7+Tc5UYNLwrfZplIKlKV8oyZ8zjGVeyLJz7Odqs3pwnK/YEeQ/WOsl6OPAnzJ2zx8Wkvezoeb1z1nkJc3GPBzo9ozW5G3CnGHYRaUpgnWNFSle9+xltz8kl6kv3CMldEZ8zb/ACEe0bjFWSk/tIT4aJf32KfJUQCgofQRCiLXJOyD7KHFHYxf0o/sciJ18X9KP7ATAAICxAK0UMTdBaIyasgGxN8CbQrAdiCwKI2FhQUVAxAAQAFisBAAEAJjEUAAACAAIFYWIAHYmwBgJvgVjfREAEMQgBMYikAAAUAABFgxDIAAAgAAAAQwCENdCGuihgABQMQyAAAAaHEiCAsAgAFoiO4kUAhiABrsQ12L8WfXY0PSOriOFoslM7Omybjm7x0sPsa49GPFI1xlwZbWIU+hp2hT6CqpERz4RCwNOORpjIxQZohIK1KXA7srTtEkQNkX0N8Ii5cBT3VNHVjlWxHFc+S7+NUSC/X5tsZNG3wePbGL+eTz2r1W9qP+pnpvEfThh+DUc+67b6ZydV/UZ0nO0zDnXbNvO4mq+8lppRwyhLt/BHV/cxYI8BY7mHUQycyk1/8AaWS1MIySj/uU6aEsuGpqMGumWxwQcts2+eyjo4sr2qS6LdRU8F+5ixZHiksavb7cGttZMdL/AKBmuf6mx9WYtTkUsU6gdR6V0zm6qHpOS+Sji5ZHPyfazo5o8MwT+1gcnP8A1Ed3wWB5dXCTX0xpnF1Uabl79o9j+msUYaTHlatyX+wHoYThLG3D46ORpJV5eP8A7jo50oRvGuH2cZ5Nuug33YHax/Tmk/yXahb4ep7xKIy35bNKCHjyPJiv4RysUW9dOVcdHQivTm4rpkljhFWu7MrGDKsuo1L08sbjCP8AcbMGmlGMY4ZQm48Pd7M0epFpp1do4S/jJa3VvFOtnMWvYK1anTZF4uENVK8rndp+xmy6ZPJinjwLJKPDkm+jTo8kX/5yDalz9XPPR0sccOKd6WTprp/9Ary2nxz0uresjnh6UHykuXz7o7uPRyzaiWqw6mfoSSexVVnO1Ojz6VZ8rjFwk7qyrx/k9Voac4ueGb+2uijv5HHE43xf55FiyLJObhGSfTk/cohq9H5WLVbcmPmP5Zqx5VLFvk3H2S6AMkbSiqarp9sUNrThjSikvt/JOWmi9XkzKUuUl3ZQ8sIZqSdgZdVhySi9zVHPyaXdHg6eqkmpRcmjnyezqbYGGMNmWn8nXxOoIyenHK1OXaNUJfQgLm7iZss/YslLgzzdlRCXKZinH6zTPJtszQ5y7gNWKO2I5SEQktyf4CI5MiinZ5X9R+SjptHN3UpfSjta3Lsg2vZHzv8AUeueo1fpw+2KJVjiu3JyfuOP3IaXXySS5MukaX/TRVH+nMuUf5RRD7Zgrnvsa6CX3P8AcRuMVJA+hJ0Ou3+AhLsJCx9slIoqEMQEoHYx/wBKP7HGj9yOti/pRAtEJD9iBERkCxNwxMAZTdRYDYmQACAqmIYghMTGxMIBAIBiAQDGiI0KBiBiJoYAAEQAAAGAMBPoiSfREAI+5Ij7lAAAAAABQIYgi4BAQD7BCfYrAkArCyIYyI7AT7GugqxlDQCQwAYiRFAAACAGBQDEAEgtiACVjsjYgJ3YIihkWNelfJ2tNLg4emkk+TraabMV25djFI1wkc/DLo2w9jLbXF8A3aK02qJoNK59FEjRP7WZpAWY5GiEuTHF0aISA2wlwTszxkWpsKk3wRsGxWEVTKJyLp8mPUzUI3fQFbfq6rBji+d3J7rRJRwRVJNHgfCt6ry8skeYwX/J9CwxSgvg1I591qTtFGdLY+C5JJcEMsN0GacnntW6nY8D3xpdi1tb3Gw0EW8rivYDtaXDB+nCTSa9jozxRirUbOXp4OWVL+5Ls3afLlgpKUd0fywL3GG1N43fzQoT2y4ZV60n78fAr96DNb/USg2zj62sjv8AJpnneyrMeWcX2UcrVRVUnyc3JH6WdWeOE3Jyl+xzs6UbS6A5/oevljDm26PaeOwx0+FYo/akeZ8bFZNVyumetwx2xAsy5P5LOFmlWqi/ydjPxjZw9S/5qCx39NK5I3RaOX46W/GpPs6UaBRNc7ijJnq4pdrv8mib+mjnZV/PWO+b3f4JUTy5JUp/4aM+KMoa6OWLuHb/AD+5fnjLHiyZcbbnHlr5Ry9T5LUSjCEF9UldJdIjU+Nv8Rp8eVyl/Ndutzs2YMrytttwVcey/wBinRw0+t0yhKEVki07S5dcs16vTarUTxPBjjGK+5v4AWFTzYlHO1OK+Vdl88EZRe1RUarZ/wDgz6TK5SyYJRcXj9vdknFvOpW6S5plHMn4/Pp5Y8ulSSxybltdtc2ddSx6/HDLJzi+5RXFiza6GHTSjkg66Tr5FixLbGUZVH2C1ugqgpR6a7MepTjJzS5NmKVRStbV7FOqmnB0kGXIzbsjuTdmOS2y7N+W2+DBmxZLurKJwi073NovUkZYboRtk4ZUwNMuiqcoQi5SLFKLiZNVqIRxtVbA52qnNSSi7jJ8l2D7EzEperlbb/wbsaUYIC6TfyVzybYMbmmZNVljji9wRxvN630sE6dcHznPkllzOTb5Z6L9R67fKWPd2eZjSfBK3FsI/JNR5CLLIrkw2uusXJkh9uQ1y5hRkh9sywrBL7mAS+5gjcc6a7JP7SK7Hdwf7lRGPFgRi3ZIggIYihx+5HVxf0onKj9yOti/pRAkK2MAlIiSIkSgVjEyxYAYgKoEMQAJ9jIvsIAAAAQxBYiIYglAABEAAAAAAAgAABiYwaAiIk1wIoRH3JkaAQDoKAQDoKAQAAE7CxAQAABUAAABYWAAST4GJdDQAhiQyKdDEMAAAIAVDAoKCgGAqChjpgKh7fyNLgfQEVGvcdcjF7gTxOpnV08qOTB1Lk6Ondqzn068uzgldG/FLhHLwS6OhiZl1bb6Jp8FUXwixBop/azLJ17GuS+lmbIgIRNGNGeKLoMI1R4RamUwfBYmgqTfBFvgbfBFvgCDlXscHy+ux4t+NO5Ov8HdfZ43yEVn87KCVpzRqRjrp6f9Kad4tP6jvdOSZ77FGsa9zzvi9OoYoKMaVI9FjjkpJLg05W60LG0rKNU3DG10zbC9v1Kv3OV5DNvk1F8II4GsneRrs0aNtcxdNnO1Un/EpP3Zv0kkqTCu5p5bcqlR0U/Ui4xionNxbFNXF8/k6GOUFxffwGbVWLE3kafyaJ7KaS5RRPDnxtzx8x7L1/M06kq3L7kyprJODdtRMWbG23fB0HmaTi40Zc7VNsI52RJKjmalpTaN+ead0czLcm5ewV0PDYo7XOrdnooKonF8PjccPPvyd1dBFGo4xnB1X3nf1K/lnn9YqkFdnxj/AJCOjGRyvFPdiSR1FwBbZmy+msik0t/t+xcnZRJ45TrImq6ZKQskXtjJSSg/u59jBl0ThjWKGa8bTcJyVtfg3TUGpSUuK5T+CtZ8Es2HTTa2e6/BGkNPq9NodNjxwTtum/ew81r9RpcMc2ky1Hqa7NkPF6fT6TPFYnnnK3Guf2Od/A6jJuhJuEVFXCUeyjmaPyupzSyRpSm1e9dnax67VajSNz0so5IpLur/ACKODHpMScMaduuFySWac8jxKNJcu+wOTq/Iah5sayxSx9NLps9Nhmsmig62uuvg4yw+vrYY8sf5d2uDvRhjfDfK4AzLLJNxSf7lM1JO22zpenSdK7MuVuF7oWVGDLkUDNPUX06NWdY8i+2mYJQinVgTTcoihDiy7Bi3LgseCS9gKU9vL6MespW7VM3uccfE42jl6/JHJL6FSAx4Ir1rv3N65VGTDBR59y9SoJpy+n3OL5vVrBp5S7dHXyuo2zxH6o1/LxRffAV5jWZ3qc8p3xZShVQ0ZrUWxl+C3FLdOqooRZh/qMw6NMnxRlg/pyF05UURdRmaiVikuWRTJSatkDcc6knRJfYyFkl9pUVrslZFdkiCNBQxFBFc2dbHxiicqPLOpB/y4r8BEwEmDfADr8kKHYECoTRIT7LCIvgVjYiqLFYwAVib5HQmnYQAFUAQPojZJioKiA6CiVKjQUSoKBEQG0IKAAAgoVEqCgEAVQAJrgVEhAKg2jAojQmqJkWgED6AAI0AxASAAAAAAgAAAAAAGnwNESUegGhiQyKYxEogKgJCIEAMAAYgAZNFZMokIQFxDAQAP3R0NM0o9nPNWCRix25djA+UdDE+jm6d9HQxvhHN0b8clXLLosy4nZpj0GkpP6WZshofRRkCq4lkCotxhGiJaiqJYA30JtJdgQlyBVKVW/hWeb8bher81lzNfRGR3dXP09Lkn8Ih+mNEp4JSf3ZJ2ajn09fplF4IPDKJ2ceozSwxjKEVJe5yMGmjpJpOLkmufwdfFtUVTtexpipSzZ9qVRZy9bGrl7+52E4nI8nkSUqCPL6qV6lV8m/G3GMWjmze7VL9zp42ntiSDs6WXqxg32bo423x2jFptsII6OJ7ufk1jFP+IzYeOZL4KnqH6jaqKfsWZNz4TpGWeNduVgxPI931Jr9jFqJtuicpqPTM+SW5gY8sOJcnPy2nt/J0p9M50vrzf5CvReLSjgjfdHSUlRz9HHbjj+xqUuQiWo5xnA1sblR3crvEzh6v7yjX4rK8dRfXydtNSXDtHB0K5SO1gf8AaSrF3UG0Z46nMpuCwxlBcXJGib2Ju1SRihljlvLj2yTdSj7/ALkrUP0sLlk9WcoKSMOo0sMGuxZHO8MorazZlyQx7nKCvp7lZztXOWTFjhuTinw1xQWO5DV5MeHJkxSuWJcL5JYtTm1eaMssYxUU5P5Z5zFLX48EnhalGfcr5VnU1eofjtBjzQ+rUUuX7/uFx0ZKOJu1a7Qnict0owalJXdex5x/qLPq8kMWox7cb4bh7M6mk8/qpLJihp1KGKNRnLi6DLPHX+p5BY62qLo69xX1WebzazLHTw1EsMd8pPe0qPU+Onj1Pi8cskVcl2gCOeTj9MkZ8mWcnU3/AINK0kNzqTKdRp3BOSfRWbWPJDczn54tS4ZrlNqTM8/qkDVuly+n2apauO3pGKMRy4X4Cs2q1G630kc2cnN/KOhnlBxao58V/Ma9gVbDhE/yEYqiObIoRCMWu1Tx4pt8JHzPyuqlqdfkldpNpHsP1Fq1j0snGXLPB7tzcvl2FhpcEkL2GjNdJEukTxP62ytlmLozipZJFa+x/kef7SP9i/YshaxS7YhvtgbjnSXZO+CIIqIrskRfZIgQgEGdTh9x04fYv2OXD7o/udVfaiqENhEkEV0MkRAOhMBFWBoQxMGlYrGICQhAAMSGBEAqGhgQoCRD3KGAhoYE0KiQA1CgokBABYhANiEwAYgAoAERb5IJiZHcF2IgYAxFAIBBUwEBMDALCyoAEMAGIAAa6EAE0Mgmx2BMcSG4e4Cwi+w3CsimAgAYCABjIkrQQDXQWgTAYABQy/BL6jMXYXUzNdOa7Onl0dHHLhHJwS6OlidxTOTrG2DtmmBjxmqAaXoryDTYPnsKpJxFRJLgCaLLorXQwJ7iEpDRFgZdct+DZ/q4Oz4XFHBpsWPlSicqVPVYVJXHcnR6vB/C5pqUJenfKNRz6b1HJkkmldmrHp8rppIzQn6ScXK76ddE8WqyZMt48sXCP3JujTDVPTZttJf5OJ5mMscHDh320dDJrdXtkpOEFVxaldnC8hqd2NOT+tvlER55zf8AHxgdnH9/+Dzsczl5Jfuegxt72B3sH9FGrDJQ67Zi08n6aNNo1GKunllTMssjvklOb+Sici4I5J8MqhGKu+2Tc49MqlTkQV5YtNxfTMK/8yjdklfbMmzbqE7DWO9peYL9i+aop0bW1fsasvMLXYZVz/os5Gp+5HYtSxvg4+p+9jRdoPuR1YnH0k9slx7nZTTSoNROc28b/Ko5mHCsGnc4pqTk5Sa90dDNLbjbMyj62FpN7ZRr9uSKOJzk+JJVzL9jjZ1J48uXFBuO9p0mdfDL0pvDK3Suq9iGXPlwQ9WlLBFfZ8/lhY5+jnLHjcoZFCFfbL3NT1UsGB5VCM1/cpq6/wD9FesxRyZsbxSWOElafwbcOhnhjFZmsmOT4CseOP8AE6rDPFpoYsclcpRjTbO1hx6bS41FRXL5M+P0oZnGKSa6SRok3BbvT3SX9qa5Iyv1GzJinjUVKLj9ItEpLSqEnzFU18GTNrFGMvUVUrcfdF2jzqKyZJ/Tjk1tv3VFG+ElOCb5oqzTySg0oraS3Y3H6Wq9qMu+cZOE26l0is1lkoNPdBWYp/TM6mTT17HOlBTySi7TQJDiltIzlGMBJOPBDJFSg1TsL8c/VZU2qM8XymPU/RlcaFjVoJrSpVRi1eRxxyc5cGqmo2eW/VXlYYdMsOGd5Jd17FHl/Na96rWNL7Y8HNXHBFybbbdt+44vkzWpFqVoaQ49DMuhE4kGTiBVl7CX9MWT7hSbpqzUS1l/uYS7Euwl2Vg0MhYWwgfYxDAUhDEGUoffH9zqr7UcrH96OrH+nEqmnQ9xEg3yVFm4RCx2AxCABiYwAiIkImhAMQ0DEgfYgG+hBYWACFuFYEhMVjGgAAKEACIGACfYA3QtwmICW4NxERRLcR3cgFCg7AT4FZIiQEbCyhiAQErCyIrYVJvkLINuxWwizcG8r5Y+QJ7x7kV8ip/IFu5A5lVP5Gk67AsUw3IrafyLa/kC3crJbkU7ZDp/I0XbkPeU0/kKfyRV28N5Uk/kGn8gW7w3lVP5Cn8gW7w3lVP5FyBfuRKM1Rn5HyEad6DemZ6kwUZWVWncieKS3mWpFuK77M1rl2MDVJnUwv6EcfTu0kdTC/pSOddo6GPk1QMWF0jZCRGlg/YV+4twVEkuiI7AmnwOyKfAwGmJvkaItq+egUo4nlyx2TiskXa3XR6PHpW8UIuKjOHLcXxfwef0SlPXLG6WPJGrvmzu4c+VRyaWLSzYnU2/crlW6MVmUZKLjnSr6n9Mn/joXicE4ZM+HJp5YpN7tzlui/2COTVzj6elWGEtt+pLnn9jbosinjcHn35Y/fS9/wBjbBajT48fEZQckunLo8p5GChqMmWUm5v5fC/Y9VkxbYynDa5++48h57K/Uc5cOqpdBXB0+Td5GLddnpsUlKSfyeU0P1a+K/J63TxhFq2Ers4L2I00yjTuLilZfLLFPosZqElyLJpprHvUk0W/TOKV8thPTSxtKeX6X0kXUc1K27G1wzRmjig/pfJRKS2vghGWclTszY5btSueB6me20R0MJTcp+8fYNPRabpGv7scrMen4Sv4NsV9PYRl08m1OD7Odqlzz2dCH8vXOPs0YdatuZr8gS0iVHTxS4VnN0nRtg7CxZq5VpZ/sY/HaiObS7b+qDfHyXa5/wDhJtP2PK6PXS0meUq3W+romq9fJKc4qPEpLlmfVZYQwyeS9u5Rkl8DWoUtLHOotPt1yQktPqlGdtxu66dhYwanLHUT3YIzi4UoLtOzr4lkWixxz5ouS7ivYyrHo8tw08JY53d7r6/wc6Wp1S9TJmilCHEUn3+4V1dZ5HHpKwZIKMpdSq7McPL5lm9LZTS4k/f4Meqyx160+acljxQe1p9nR0mHFGS1OeEFOL2wp2q9mRlbjhq9ZkTnaxTjTbX/APPezpYvT9SGHJF+mlW4z5ISlG/XbhLiG1dMWmWTS41CbllTlzL4CNcaxQUW07fDJTkpOKlw/Ypz445IPJH7oLc430VR12PI4ptdWmi6i/NqXGaTjfHsYsuNyayRmlzyi/LNbrXMaKFp4TTayPlhVcpwi6ldvqiE5+lFyb4XKL/SgotzabXucvyWaMcDayc+y+Slc3U53n1bd8GnHHbE52DnIn8nTT4212VHP8v5OOg8fkyt89HzDVauer1DzSf3M9N+tNZt2aWLu3b56PIx/wCASJDj2IlFGa6Rcn7E64IRVsm+EYaRZKJC7ZK6AglvyUyzU6aWGLbK1LbPcWazVevBRqq/JqM9Of0xPsk+yLXJpkgY6BrgIS7GILABDEETx/cjpwaeNHKgvqR0afpxplFjde5Bvgrkp12QanRRaKympi2z+RqNG+vcTzJGephsk+yUaPWQnnVFHpsHjZBd66D1kUemxbGUaPWQvXiUbGPYMMWvNF9B6yXZVsoNoFjzRYvURDag2gT3D3FfI+QJ7hplfI1YFli3EQYA50G4g4t+46fyBZuRFyVkKfyLa/kgm2hWR2v5HT+Sh2g4FT+RV+SiXAcEa/IcgN1YrQmnYqfyA7CxbX8g48dgPcLcKn8ip/IROhgAUtthtJIAEo8j2jXYwI7RbSYgI7RqPAxroAUQpDAgBbR0MgW0VEqCihJDpAuB2AqQbR2h2vkCO0e1DsAFSHSACh8IE+RABK1Qk6FQ6JWo6OmnyjrYJJxRxdM1a5OvpmuFZzrrHRxSSNUXwYIPk2Y3ZltfFjIokFRGCEBNPgaZBdEgJWiDasZBugVboGo+Uwpxb54PZaeC9XJvw41Jv7muZfk8FBN61TWTbLHFOMUvuPTYs+XWQxa7Sp1FL1sL4cfyVyrurFDJmikoRaW5qPF/BzcWl1OTWZ8mLE9PLfuuUvvS9qKvFeZlrfIZIQ0knDc1HLKH/U6/OectkpvJ9qtcf4NsufDXZciljlsnCCankrqXweM8/qYyy7Yy5Xsey12LDptPkxxW1TbnNL/UfOfIZfU1DVde/wAkVf4vG56uM1VJ8nrcGOEmuTy/ho3P8fJ6nTRcPyVK6uDEorktyY1tVCxlj576DnqhMm5Sa5/6lscMJO3JIhk07v6ZcfgqsWRJztPkg7UWackFFdK/ky5JxSabQHO1Tt8GnxbTnKL+DJqPuv2LfGZFLVNewV3MUtrVs2RyJrsxrDUuZF8cLi79giGaSjrYZPboya/+s/wXauW1QfxLso1zvMvyrAnpftNcODHpuImuIIjq6elmvlHj8kHCb44PX5+cbXscHW4UlwjNajq+E1MVovqSlKLp2WZdq1Pqxjti+0vY5nh8kYN4m+ZPg9Dk038t+rFqDjW6PsVYx48UXGMsbcckZe3ucnLpc8Nbm31KMl03wzt49Psx0nUkqX5/JXqMPqKKzWskeprpg1y46GXkMMIbFHY/bhL/APJ09XLFg0+PFkh6mz7tnCQ4rJhxelBRW98uzRjxTjCWPJiUsUumpXZEPSZsLwQ9HHNY5JtcXTsnkx5ssZqE9j7+ri2SWX08MsUI1iqnfa/Y5mVZfUx+rkyOLnUWvZfkI6T35sUm4OGSKacfaXwcl4NTHPu9LbjS7Xt/g7SxqMWuW6tNvshDc23JU17AcrHOTbW9zfxZZj1kHL03FqRfHQwwNzxp8yt2PJjxzW/bGM0WCueSKX1K0cPyLwZ8r9or2OplyqFprdfwcHWvfkqHCKUYYKLUl0aJZfeL5RzpalYqhaK56tuMqfsEeE89qHqfLZpNvh1yc5Oi/Wy36vLL5kzPQWLFyTRCJYjNbWQ7JMURy6MtI/3DEuxgVsqml7lzKJmoz0gJi5+ANMmJ9DQn0EIAoKABDECpQ+5HTgqgjmQ++J1VWxclQn0KuCXHyICFBRIAK32FE6QugI0FEhMCNfsRp/gmLn4BiNC2kgKqDiG0kAZR2iom+iNEUtoUh0KgDgKCgoBUOgodAKg4GIIXAcCoAHwHAgIB1REk+iJqKCSqiJL2CE6DgH2IAdCoYALgXAxBABIApLoY0CASGNDAiPaMAFtHVBYbiAQwUguyBgAALcPsQFUPsRJdDAgBMQCJDGQRGhgUhAMF2FAxgEXaeX1HX0vaONi4mjr6WXKOddY6cDTB0ZMcjTF2Rtpi7ZMpj2TI0khe4hATXQyC6GwJEJdMCLdMsKhp8WL+IeoyycXCkl+5u8DLW+O85KObLDbmdPdNNu/cwZY6CWNPJKUJ+pdrrpcFmm8Z6Wq/ipZ1lcayxjjduSfRXKvY5tRPS656bC8UU8l02rcTdkzY45seDeotwbh9VHN1XjsmvWm1+DLDBrIL6o5H2n7Mobx+Pwzya3V4tVlkrhDHVR/Fmkcvyer1WDHqIZpNqM2ov8HjNRJym5v3O15jymfVz2zW2HtH4OMoepkTv6V7GaOx4NXF0eq08HaPO+Li4JJe7s9TpoSSi6NRnpsjItTtFES7G0nyViLNi23dFbyVwnZZly3j2xVsoWJzXVMKryO7MGojw2bNRB4UYM2RuL/YhHOyZG57TR43JBang5+okt5q8WrmpDWnp29yTRdjnL03ZRjl9KLfX2cPFuj8hmsOtneJfuQ1D3wxz+UWazJB4ZNQr8MrWRZdLi+mmmUXaauLdI6FR2/RNM5+KFqvk24sEIdSpPsCOdx2fTyzia1XF2drVwx4lUXycrUxckRYo8Lgll1vDpR5PSyU/qlKdwXaOT4p+hiyzp3fsjZk8hGEPsdSdJ0GjcZLqX5j+w5ScML35JSb6gmRep/nOMpJJwu2YdZranjW1OHakn0/8EZrTjyrV4/RT9LNGVwv3HCsayLPKUox5aqqZyYZckNVPUNL6VcX+TXk1OLyHj3lyKskHckvcDp4tPiz4YSjHh/Uo/6mZs2DyFTzZcG/c6jG+kLQ6qDxQjiwOoo1PUKWfbjjJSS3VKXTAW6ccTyLLBSh9Tg+doY9X623JcZJ/c4+xVtxwuMZJZZu5t9GKGkSyus8oqEn9K6kgOnPO91r7Ct1k3XNIonxJShGl18lWRuKvtlDyZI4oT3K/g85nm8mZtdHQ8hmyei/ZHFwT3P92UUalOOTkyyy1Gf/ALWdLX6eaxqUVxRw8raxzT+GB5PLLdll/wC5kSU1/Nk/yIKlHosj0VxJrojUXR+0UvYguhsxWgiRFDXaKCRnkWzK49M1GKqfYgArIAAAAAAEIYiiWNfzEzoxdxRzV90f3OhHoqp3QWRABgIVESmJgJhDE+AZFiLD3BuEBVACAAYAAAAAACGIlQAAAAn0MT6CEAAACGAEWA2IAEMRYAYhAqQmIEED6EN9CCgAABgABAAAFNMLEhgFjEMlKBUMaCElQ12OhUQMYhgIAAoa6GJDAB0ILAZIhYb2BMCG5jUmVUh8ELGuwmpAKyTIJQl9R09NI5PUjo6WXRiuvLr4nZsx9GHE6XBshJ0YdGiHZYUxfJcuQ0YgsVgSQAugCkwVNq3S+QLMCTyx3RclfS9yxmupi8Zi1mBQ1OixvHF0prtnUweM0+nhF4dKseSEdkefYloowx4oNYsiXxJnTWOUW5uMbXNduiuVczPhl/D6jG23J4m3KN3dex5PJijJafWTbxrBBxcMj+pv2dHvsk6jN1HdF7l+V8HzrzOXDk1+V4Itep8vo0OHrdRPJlnKUZKF/TT7LNNhluVxai/9ROWkctRGcmvTj7fk0t1JJexmjsaJbZQUYo9HgnJRjuVHB8bHmLO9D7V2b5Y6XD3EVIOH7mnNOOXbIteb6G+mUxxN87kLOnHGRYzarO5NW2zFmmnGl7izZG3z7FEm5ckajBmdtmrxcnzToxZpNNmzxPf7kaei0ct2OpPlG1TUcf0xTkcyMHFJpujXDKqXPCAz67MpYqlFJrsxabNujt+OjVqf5sGnXZh08PSzdlR29Kk6bfRucU48e5ysbcUnZthlTh2BVqIJsxzxueRQXMn0bJScuyeCCUnkr6iKrw6R48c8cnTYsekWLBOLjvlzX4NWWSbjfbZLfcXKP9rp/lEK5uPLpdTjmssqklTKM0M+bG46Jb8eOScourZZHRYJ6nUYJNxnkVwXsvcNP6uHVL0lfW5+1oIrweMjkw59ROcko9QZhwZf4eK1EIVjlJwlE9L62BLI5J1JPdHqjm6nS4Z44Rwy+hy3NdgW6XT5tVGsMlTVuKdMXoZoZ3hyKeP/AOSt4p4nKeDK0+OOuKNGHWx1uVafLKSy46afyBXqMGX05TSf0J8fJTBZ8uJOtrddnTWbNPWTx+lWGPG5+5bkgpQqCSa9ijm7dSlsbj+5GWHNjXqNp/gt3KMnF3f5M+aWTa+eEUcjyuXJPG1tRzMGCcak0bNRklPLUnxZrxqLgkqYKsx4VnwKMl7Hn/P+Ljo9Bl1K4SXR6vBOOONe5579Z61LxEsV8Sa4CPmf3Ny+fYKB2pfhjoNQJE6Y0iVErSK4QWOgoy0ESXaEkNLkJVeQhHpl7xubf4VlLW1OjUZrOAPsCsgAAAAAAiIYiiUOZL9zoLo58eJL9zffCALphYmIqrESojFllAQaINcllCaAraoROSI7QIgS2i2hCAdBQUgHQqIAAdithmmILYAAmMTAAAAEAAACGIBMQ2FEQhEmuBUagQDoKDRAABAAAAgAAHQUMAhUFDAAAAACVEQtgSoOiNsTbAnYWQthbAnY7K7Y7MqmMjZJdFQDFQwAQxAAUAwFQ1wAAMF2IafIRIdkbCyKb7s26VtpGI0aabTVdEdOXdw8Lk2RlXsc3DNySOhDlIxXWNMHZdEzwZbFkaTsBJ2MB3QWIOgobdcdmrxzT1kIpJtPpukY5P6eDm+T12TTYYSxycJ3w0Vi19I+3YpRljv332jTPKsM4OLk4r6ZXzaPkGD9Sa2M08uaU0n7uz6V4bzen8tpI1W+K5j1f7mnPS8vrZYcU8WOdZFH6G/7jw0syySyTf3brbr3O9+pNZBZ0pLYo8Ol/wBDhLDPbvyRcY3V1xJfkqarcHGK3T3JvojHJedQXP5LJrHklNY3aiyvxeSOp1soRh9vNsg9V42LjGNK37HZ35o41cUczTR2pV7HRwzdVJWbjnUfV+U0WwSk19Sol9D7iVz08JO1JoqNO2EV9MrK9Q3sKfsXDIzyuUWmCOfmjd/uUuSimuzXJxTe7kw55xV1EiufqJVJmzxckpUc7UT+qzf4uG6DkvYy29JjmtnKtEcrUcdp9lGCarbT3F+aLcVufsEKTi4pt+3Rj3R9dUqNEmuEueKKHFLK9yqgjfBbocF8FUaK8L+iNcplr/AWBqot2WabIpwa6KJzrG7KdJmSyyg5VfKCtOVPPNYk9ri+WaXL6VHiOSq/DKYtetKT+1tFXkYbtJJwfOPlfIE8uPFh1ENXmyQjKKrZd2UwU8+Rziowxzl9yORmwZMuOM45LtdNnU0X0abbOlFpJNP3INGXH6LlhztylkXd9jwwhixKCtST7LMr0WWUHq5SU4qou6MOLNGDyRbcoRl9MuwNqyxmtrguOLfwRy6VTlDJF1kj7pJBNwhHfKSSf5IY9VHJnjCM037osR0INpKKJ1FNyKZZOeFRCWolD6uHRUU6yMX9UVTOTrM7hgfub9TqXl/Bw9fltbEwa5E28s3cmuS/S5MmGai8ktr64J49Nas2YMNNfSmBvyYM0cEcsZKTlwuOjyf6nwZtT4/LKUf6bV0exlJRhBPhX8nJ1kFm8f5GNXeOT/4BHyp8pColk+nI4+wkR0kSXBKyFjszrSQNguhMga7G+EQugsqVdjyqN3zaozTdRG0vYWT7WajNZ+wCnQFQAAIIKChgBAQxFRKPMo/ubvZGGC+pfubgoYhodFU06J7isluQErDshYXQEqCkQcg3ASChbkG5BC2ht/I7CwqLVMEifDBolEGhUTrkKCVX/gKJ0RoEKhNEgZVxGgoYERHaFEhBEQHTCmBFoXRJpiaATYh0FBCAAKoEMTCgH0ABEbCx0FBEgAAAAAAAAAAAAATGACAYAICQGQEl0AASXQMSAoYgAAGIQEgEJgSBEQXYEwEAEi/B0zOXYWSt8urppfSrOljlwuTlYHdHSx9I511jVCRdFszw4RbGRG18SRVEsQDEwBhUZfacPzv9GH7ncl9rPP8AnZfRFGo5dOLZ1fC63VafUReB/u77OTE6vho/zTWOT1Tll1uR5s0Izd/dL2KNbjnk02WKncJLnnpljxpRjvwue5cOMlx+5TntrYqSXsnYVyNNo56KDccylKb+07njNAtO/UkqyTSujJhwxlngpO+TvJx6XsDW7EuC+MqKcX2IsNRzrRuE58EQfRQnL3IPIpKvgb6KG6sKqze5zdRabOhkl3Zzs+RSbRCMOXk6/hIxeGW9tK6OTkOr4aeN4nCn9xGnZcYxS9J9d2Oeoi4U4tNCcmpbYpU/kzZs84Y5xlC1faIauVWmivIozzuLa5IQywljjUul0JtT5r/IHS0u6OKvZFjzRuq5+DDpZ5MckoStXzZryZtyr07fygrLrNRxUSvQaeWp1C7+nmyOqjRr8ZGUMMpwq3x2BsvI5STilHpUTyScMMskYbpRjW1+5CMM0FeVpx/EiOTNiuGSSk2n7LgBarSReTdhjH6sfS9mZYY82fQucYKKxS5i+Gwnrsr8gnjTcfaC7NMHeOanN41O755QGDXpaxQ2ySzQXEHxZRpdFqoqUpKoyVSjZvmoRlJW52klJ9lrlPalF+wGaWgctJ6MpzaTu2+iGl0CXkE4TqUUtzXCZojGTlOU5N/gv0s4LUz2x9gjZPld8exkyX1Zc8tunHgryZYbX9NMqVz889t8o5GVueS/Y3avKmmZMa3FRbih/LN2ljFy2tGfHBqJo0trJyQp63HUU06owwjxlg+skGmadbNvJtXuUQi45HfvFhY+UavH6Wtyw+JMq9jb5iO3ymb8yMJmukMYhkXU10JgugYUmIb6EVKiE+gDJ9hYzVLIguhMqGAIYQAAAQEMColj7X7m2n8GOH3R/c3eyKqL4FZJkQosYhgSXQn2NdEZdgIAAAAAALFYAENOg3CAKluCyIBEtwEQsKkJkbH2AwEADEAiIYCC6AGRY27EwgEC7JBEKfwIsIPsGkDGJlXSAYAIAAIYDABAMAEAwAQDABAMQAAAQMNoe5IgiAxpIBIAaAAGIChjIhYDfYCAKYLsESoIAAChk8X3FZPG/qM1rl08B0sTpI5mBnRxcxRzsdo1xfBZEpgXRI2siWEIkwAPYBNgJnA89LmK/c7rPPed+/H+7Nxz7cqJZDPkwu8bqymxmnHXq/B6mWpw+nkklNr7rNmXHtlS5UeLPJaTW5dJk3wlybMvnc84NJUwa9LoMMpKWVxTS4Oio8wlTX4Zxf07mzZdO5ZObZ69RxZsMLq0DSwr+WiYJbFtS4E2ajKW4HLgrsb6ATlwVydjZFoKzZeUzDljyzpZImLURqNrshHLyfTI6X6fac8tnLzP6uUbfCNp5KZGnrPSi4XHujn5ZO2pGvTZpbNsnxRl1GNbm0yGMqq2XYWpTUW6RS4f5LcMovhJ7kFb8dRqmWSmiOFxlHqiWSMNoGTU8o0+Omp6eeJSqS6Mmp+3so0upeHNx7ugOzt2U3O5P/gm808cW4xi4RXNlFqbck/q+BSnmyYXCMU/9SbrgCvXSScdTjg05rmjKtTiyQ/mt21wTlqYuK37UuYKF/4KYaLSyVLNKMou1u9/wBZjXp5YzkmuOGyzUZIUprIuPZI0ajST1mmhCOSMNvy+Tl/wGTFn2xyKUoq1FMDpQaePcpp8fJRo87jrnbqyENC425zmpZP+GZs+F4dRjyY8n4dgehmpRTbOdqdT6abZrWaeVrGpL9zm55qGpayNOASxy9RnWTJw2jdpY/y4yOZnnjy6lrH0djRx/kRssZrRGJdiWyTlQopV0LNLZjdcAYcn8zVtlkoU7ZXgTllv3Zbmi3KiK+ZfqTE8XmcvxJ2cg9F+rVXlf/tPPUGpQAxJ8mWkkDGqE+wukwG+iJUJdin0S9yMuSpVLIkn2FIrJIYAAAMi3QEQEBWVkPuj+5u9kYcf3L9zoJcFXUfcCTSEGiEMiBIT7FY7AiwG6IgABQUDQABYTQACYDAVgDTAQrBqQEbCyGpARsdg0CHYgmjcG4KEA27ExPgVgMQAEAEbCwJCYrGVQAAAwI2FhEgFu/AbvwFMBWICQrEFgw7CxWFAw7DsVDAAACYGOxAAWNSdEaGRDu+x8EQ5+QHwAgsqmArGAAA0ENDEuAsBgKwsoLJ439SIWSg6aZK1K6WF9HSxP6Tmad2kdHG+DnXaNcGXxZRj6Losy2uiyZVFli5AYn2OgoCuXR53zkrzwj7I9HNUjzXm/wDzMf2N8sd/HMoAA084/wAD76XIiWOLlNRXbYHtP03pZrQqTdWek06jHHtlI4/jcz0fj8eWSXp7fqv26O5odZptfhcse1/4AsjCUmtjtE/Sk+0WaeMo5KapGiW1fgow+m/kTV8Ls1ZMUaVOyWPRSlyioxLH/MSlwn7k8uCGOa25FJG3JpGoPf7GeUMOxLFXqe4qseTHGf2P97MWeFKmdKUHH7lT/BzNSpycq4RlccfWJQlfBo8NacyrPii7cuaNHiUqmwr0Wni8ke6K82OdPlf4I6bUuEtjXBPJmnGVxSaZBjm5Ri+0WYXBxT5UvwVZ8mSbqdJe1FuCMaSCtsM8FGmuSalDIqfBCEMaSbVk1GMvt4QNYNXcbSKdHHdqK79zVr1wYdDPbrY26UuAOzJenJSfuWOEvSk4cyfRbJU1GUU6+SODLPZkSaT3UuAME/ELNg4zY1lhxT+Slf8Ah8fpZknlXFtHQ1cVGCWL77TbX7mfW5MM9TjlkhacfrbAo/najTx9JyWSL7T9jXgwThKc58yaSt+xp0mLEsyyaa+Y002D02fG8ksuSEnu3Un0gFUpLbdrun7HNz44+o4y+bs374bXPJlSVcU+zmarK821YXe5tN/FEGuOOWfE3jlTfTRxfIXFuDbcl2b5ZpaaEseO9sXV2cvUZ/WyJXZRmxKsp6TR/wBCJ5/ZWWz0Gip6eJcZrZFGfXS246NUOr+Dl67Op5Gk+EMZXaKKdNGnLjblZDSKKwxkijWamUU0r54GK8B+sVXln8Uecs7/AOqZuesUpd0eesmNRKxIQ0RtYqB0RsGQOT4EuiLkF8FAnzQpCX3BJlSq32xA+wKyAQLkYARkOxPkIgA6Cionj+6P7nQTOfj+5G3daRVTb4I2RbFyFSsjYcgFFgAACGlyImkAqQ9qHQBEdhF4+Syn8hz8hMVbaEy1q+yMkFV8j5JUBDCohyToKQTEeQJ0hNFMREOgoBUMKCiIVjI2OwoaFQ+woIiBKiNARAKCirgBAADB9AD6II2FgBUADAAQDAKQDAKQwAAAAAAAEEMAAiABgAUwpjXQyCLXAiYUBGh0wJBUaY0qGJlQAAAAAACJx6RAknSQqz634HwdHE+EczA+OzpYukc3eN2N8IuiyjG+EXxJWlsSyJVEtj0QSobToaQ0uHYFM+meZ821/Ex/Y9Tkj9LPK+bValfsajHkc0BAdHAzX43F6usiqtdsyHc/TuFznmmvjb/yCPQbJ5cENFe3Flg7bXvxRPRY8ngoRxyUXByrcuaOnpsTWnhHfti1zxZfjwReOXCkn3XTIrdhy/xEPoycvjcukao6SSjuyZN6+Uec1eePjs2CUMzhKcqcW+H+Ts6vFqdTpo/w2WEZqKbjJ8SCOk9LiWJenPc6ukQxyeN82ULfgxb4Qn6kOXG7b/wT/iY5MSzZYSimr5VFF8s/HMbs5monHFqLjHa2W5NfCDptX7L5KXnxatfV9L9uBVivJqG1zTZztRkcppLj5Ohk0dRbWRNIwZYb7XuiK5mo+lOy3xSe+SXuVamDi+SzxUqygdiUKja7Q7hLGvq5LMeaDU4ShzXZk9Jxg5Lq+gIZk1kVF2K1RGai3Hc64LYYnSalaBWqN7SSzz+3aqCMGo2W7UoXQRz9XkckcqU3CcX007OlqVwzm5WnS+CVp6jS6mOqwJ39dVRbBbZuvdnm9DnnjyJRfNnosuLJPDCWN1kXNXVgV66WWEMGOEG5ynzSswarS5cDissG4znbfaR1MWacpT9TH/OjD255D1cspSw6pRlhnB/X8MDnQ1+COaMIOqXKRVm1GWOpeN5d+OfLW66XwZoKEceR4Lc1KnKXFAs7XkIY5qMnJcte5EX4tJLa3nlKMYSbg17r2CWqwYYSxYYS+rmU5L3NGbJk/iIY443KMY8sy6id8+m0v2AxazUQhie2dtro5WklKWRv2su8lPb/AGbb9yjRfcixXRyQpxfydTxuRU4yf7HPyp1j4LcMJKXDNRmu5kkseGTb5o4kMM82Tc+m/k1Z88njhjvl9slijUlS4Kw244LHhSXwc/UtOR0HKodnJ1MmsjFV4b9UNfxsUvg8/wBHd/UzvXwv4Zwn2ZbhjEMjZrob6EHsQQfY0HuJ9FDSdkZBYpBmoe4g9wKhoYkMBCJPoiVCAYBDh9xsXSMcPvNi6DUDEMXPwFAD5+B1+BiIgSoGhCEkSQkNFUwAAiVBRHchbgG1yRkiVpibAjQUMApUFMYwI0wr5JDSsIraFRa4kWqQTEKChgQRoi1yTCgKnY43ZNxElQBQqZIAKgJ7SNARAYAIGNiAQDEVEgAaSYCAclT4EFADQyU1ECYhpqI0Ma6GiI12NggGADCEAAFNARfYJ0BIBbg3EDAW4NwDEw3CbsBsQmIoYABBIfsIPZAlasPaOph+1HJwumjqYX9Jmusb8XRph0ZcT4NWMzW1sS2PRCJOJFi2JZt3FcS/H0FVZMdwdHk/PQa1MX+D2yipKjleZ8T/ABmJen96Kz1HhwNGp8fqdI2pwaXzRRVKmblcLBVtHpv08lHC4NNbm6kurPMVxSPaeIjhjp8SzcRrtDUj0miyuekgskkpriXBox7o3GMoqMul0inBp4LRSy6OanJNfQ/cr8q9bovHPPDFjyzviMX/AMFacjzmO8mzUwnkUnayY+dn4o9Fljh02h0WTNmliSSXD5l+55fwerhrPLQnmw5I50m8kXe1nrMuJamM1lxLJjfTTqvyWI0fx8VlUIuW+fVq+COfblwyjLBvxy4avv8AKKY457LWaGSPX1RqS/yYNRihppaffrdRBzzfTGKVV8fsCsun0z1PnJSyRnCeBcQTuLXsdLV6NZpYpvetjf2Ov9zdHenKUVc1wm1y0LfJ2p42mummRI50ZZMeWWObuLXHJRl+jcyjWaecPLw1SyycnCpY48/5LNZcoNJd98hXM1c9z+ks8ar5KM8HGJp8Py2B2IpONrsz5HOLa9maEV5ftIlVylujH5SoswKa5Ur/AAZW66J4pZFNNvgqOrjc656LPUv6SEZqeJfIgsR1MYLCzhzre66O3qIbsTOLkg4tkaGOex2u0ep0md5NPhkvufDPIx5Z3PD528UoztRjzF/kDq+o2oz4Tk3EeOcVLbPlJ838EZrEpL0crlF/cmvnsqnJU/8AZflAcvX6aMHlxqKSu4N/3WGCEdPixvKt2o2tJfg25HHIvTySWXHGnXW0py+l/F3linDZ9NMiKHhzLJDLHJLlfVb4oqzyaxNyuTXsjZGcVjezFLhcfVwjj+SzywwclttrtPsDh63VSyZ2muvyWePnc0vyc+T3zcvds2aJ/wAyK/JVekcLhEnD6Rw508Suctv5NRjpohjcnb6NOOvbox6eUn30bcPJUWS+05eoV5GdHPLbGzj58l5G7FHiP1LPd5Tb8ROKdHzct/kps5tGW4Y0IaI0muhSGDVoiq/cHyqHRPHD1MlL4KKehSDJH6n+BIrNRGgfYIIAQwKE+mQJvpkAiQhiCJ4leQ2RiY8f3L9zcuitFVASYgAAAAExiYAAAAAAgIgABQAAAAAgGMiAE10SRBdABNuhXZFiAkBEDKGAgAGIYAIBgEIj7kxFEAJCYCYuxgig2kCwgEOkFIYiApBSCwsBpIdEbDcBIKRHcPeA6QC3BuAYEdwOXAErCyuwsCdsVsjuDcFNt2KwuwAAAAAAAAGhDQAAAEMdIQ7JQxiAuKsxypnU07uJyYnT0snRiunLqYfY14zHh9jZjMOkXxLYoqiWxCrIougUp8l0GgsaIJe43Hm0Vxyc0XRaaCqMunxZouOSCkvyec8p+nIffp3X4PVcEMqU48pMqfmPm+bRZ9O6lB8Ps9f4nNj0scWTNGM8dcp+3BPV4I5Iyg4/sSjgjh07xy6cL57/AMGnLrl6DR6zS6vDPLptsIdfS+Dj/qjDrdRix5/Hardjgtzgu7+TkYI6/Bp80Y6acsStxkk0pGXT4/J5NDilhzShNya2t81f/wDU1HN1NJ5CWHPpc+XUJZZLbPE4pN/k7GXNqsXl5ZM+ZQ8eob01wv2PGapaXV6ra804aiD2SnLptHt8mLBl0Gm0uuTy4dvMlw0vy/go6Ok1mPW41qMLxPBe1beL/cyajQa3X6tym9KsUFeNxbuL+Q0mm0+j00I+K0yWLJ908s20/wA8mvHpIznHZCONOLT28doIp0HklLK9NqZRjki2oyvma+eDTm1GPbl9LJKUoKlH2sx6bxmLxqg8OH1MiT/mzVtWW4Ixi9RKWOEZZJKq91RCORpNFkhr56jPkby5Y7lBvmPt/wDBpyJc/wC7NuXK8eFPYpPhXXS/cx5KUJTbTVewVytY64LfEOpsyanKpt17GjxUqdgdxIry9UP1KRCc9xWWddtEocTsNvLY4r6kVW/HxFMs5fSKoP6UdDT4lKNtEoocG4Uzl6zCo20qPQSxxSpHM1uK3RBw0qO5oIr+FSXFu2cecNsmdbT5Y4NNFytRfbCtsKhB/mVMeRJQk3+xnxT37a5UlcQy5/Te2fbfJFZdXJOXpRbxQSTc17hp9RhzSWHI/pj9s38lGeOTdleR/RX0mXLH/wANWFOVPlMDZ5DJlxxjFNKK5te55PXamebNK39Psjs5s8p6bbkfK6PPZ69S0AkzVpJbcsW/ZmSPZow8NE/o9JizuWJq+PYswq5U+TnafO4Q6XJtw5FN2jcY6joUkuOC7T2UJ3FfsaNP0VMQ1TvG+Ti5eFbOnrZNKkcjPJ7Wvw2KR4jyqryOXnh9GIt1E3k1ORyfuyujLSA0FDqiVtIOhWDZFBr8bi9TUV+DIjpeI+rNJ9Ugv8cvUw9PNkXtbKOjRq3eoy38szWVii3YJsQ0VDVsYo8ErKIvpkCb6ZAM0WwAAJ4/uX7nQRz8f3L9zoWVqBiBsTfDALFbIhuCp2FkLBgSsGyFhYRK38it/IrFYUwAAAAAIAAVhTHRGx2ShjI2CYRIQWFgAhiALCwAIAE2FgMBWOwAQ+BFQAAm6AKQ6FYWQMjSJBQELCyNr5C18lEuxUJyQtwEhWRbFbAnZGxWwAe4LENAFhYAA7CxAA7CxAGjTHYkADAQwgCgC0AUMVodhAAAA7CxAZEwD2D3LqpxR0dKuLOcrfR0NJK3XvRmt8uth9jXBpGTB7I1RMOjRFkkypNIkpckWL0+Sak6KYyXyWbl8hqLFJ2XwnwZYyV9kt9e4GtO/ca5VGeM7NEKUOewirJCCkk1bCWmx6mOLLkUk8E7TXuvdGfNnis1OVfuX4Yat5IvFseKSe5SdWajHVb9RqtTDVYtNpJrHuhuV8xa9/8AqjB5Lwc/J6rHqcWeOm1ONfVFy4fxX78m7TRyOOzVYVJQ4jKPaNvoqbUvTWRx4UoS5NuVeK12ixafV53PQynqsSjJuKe2XHZ3M+fItH43V1lWNTUM2N9KP5OxqY5I493qyfNNuNujlS8jm0sItaf18OeT3Qkvb5Ky1S8hPPqNLgwSg8F7W+4x4s5+o8hqZfqqGhx5FPHkxpyTVjh+ovD4tPllj0S9PHK5rrn9i3T+V8P5/wBWWOS0mo2/1WuYoDtaabjcL/lx4q7OZm1GlzeSx6XdL1cV2oyXJpwYYafQLF/HYZSrnJfZhzeY8Tg13puCyZnBN5IrsitWq1UMWCUn9seGujE5xnB7fsriiEfKeHlCSx59ybuSfKsuy+m4xcOFXQHH1GFLc0X+K6shqeEyXj5JSpBXZ2ppfkSipQlXaDdtgq5bLI44+lvjP6nw0Vlm2yjzLhPocFbHKEs2N7nTiwwT2wca5+SjZjqlya8WrjD6XZz4wnLpGvHpmo22mSq2LPFmfU1N8A4OJCb+nsgw49KsuWTf9rNscMZY1CSuKdpFuLGoQt9yHNbcqX4Cs2syPHgU4RUfT6ozS8teNb4K33KjfrMSnp2mrTXsc3Nhx/wG6PFPa217kU3p5ubzKbnja5i1yrM/kJbMcceKKjTT3Rf/AFLNJHU447pUoVTt9/sGfWLT4v6T592BwddObqTdt9nLmm5M6WqyvPmcq4Zjnje58AUJNGjC7ohtdFmKkq9yf0bcbuJt0rS6MOLo1YnRpmuxjl0asbrmuDlwz7UrZfHV7lSLA9ZJNo5Gsmo4skvhM353LtnH8lkrRZpfjglR4icryz/9zCyDkvU/cdoNQ+yRFNErRGyAPcAGvc6XiHWea/8ASczvou02Z6fLv64IqjVcZ8r/ACyii7NJ5Mkm+mVFYQfYWD7YFQ+xrsSHYCb9iNDfYFQrCxAETx/cv3N+4wY+1+5tKpuXBGwYgsOxUAxVIBiZEAABQCoYEUUOgGmqGhNUIbfIrHsAhgEICREAAAAdhYgCJWIAAAsQWAmwsGxAAU/kEMIOR2IAHYmAAIF2FMdAOwsQAUgICoAAAoAAAAAAgGIApgIAGAgAYCALqSAS6GDQACCaYCAGmCEAEkMgAEwIgTBYhkIkhgsxmrTS25FyY4lsHTTJXTl3sM/qRqjkOZpsm6N/BrjkMNtXqElk5KIyJWlyTF1pjNknkpGR5klSK5ZpNfSMNblmLoTcqOfgUm7Z0MS4C60w6L1L6SnH0S3Aef8AOOf8RGUZNJdnQ8J5yEoRw6l1JKk37GLzEd1v8nCjJxl7qvc1GbH1XBljlUYxvd/9Rcp/uX1HFJLLCNvi4S4bPnniPK6rHqoYVmahJpHuWssdm92001x3+TTlY1OF5KbdbmqTOD594tNpNPqsm/bglt2xdcfk7LyffFSUpR+tV7mLNkwa2UMeXAsuKae+LV7WVl5KGHT6Gbmm9VDW8QxNVSb+eeS3ymFeBXpw8apaXPSc1O5X38Ha0fjtVPLKtRpdPpMD248bju4X5O1OMJJRzwxZ4wdx2qwseIxaLPk89hWGOSOmy4bqVravfs7sPA4IRh6LbzQW1Smvujds6OLV+vr5Y/QlGeNdTjSpluVZf7JW/iuhi45WfwmgjhyY8enjBZF9TXs0ZtPqcTb03rKeTG6aqqOtOLUf5n+Tx3mtfmwaz1NNCLxy4nOEe3+WMMdPWypj8c7VmSWWebTxyP7qNHj5JfSQ12oTbjTdIsjj2L7vu5Rnli34eJqLHjy7seyUuVwVlrv/APBQoZcc3JJNfBUnLcluNMXLcuQFHLn3KuOTfp9ye5u2Zt0P8lsMn+kit8pTyLlUY8z2vbfRfDJ9P1GTVZIpX+RqxtU1/Dr9iMblOOX4RRik8mBbX+6NW+MdsUqTRNXEZz9RzUZRTfd+xzs08eLA9LCUck5O2Gv2qayrdDfxOukcxL0MjkryTb+lrkDZ6eTI5QyJqCXDTOdqs2TYsLbcF+Doy1eWeHa4VI5ufO8k9jjFfsBg2NEJROhLTPbwUTwuPYGJxBKmaJQorceRguxdGjG/yZImjEVK6OJQVb42i6TxyW3FjdmfFKNIu9Rw5jRqMqMyjVNuL97OV5qCx6HJUruJ1s1Z01/d+DheZ1EXopxfb4IPFtfVYWNp7n8JiI1EyaIRJkaD7AQwouiLZIiyCEmRHIRYzUH2wB9jRWdCAAYAIBAIAAqJ4/uRtMWH+obAoAAK0AsQAOxMAAAAAgAQEDAQAAAMoQwEAWMQgJCECAYABEMCIBAIYAJiGwCkKyQghWG4YtoBY7FVCYEtwbiIAPcG4iAEQACoAAAoAACAAAAAACgAAAAAAAFbFbCJAKwCmMiMBgIdgACsaAAGAAAwAAsAAnAvXCRTjNUY7lwZrfKeLM4M2Y9Qpd8GP0ZcsShNezMOjqxzx+R+rfuc2O74ZpxbuOANRLHFymhQg5exqwYtvYVfjjVIvg6ohGPBYkQXRkKUiHRGboGsWuW9M85kvHNxbPS6h9nm/INRm2uzUS1VHUSx5scouqlfB9U8fqVq/EYMykpSa+q+aPkG/nk9X+k/L505aVR3Q/K6NOVr1kp48vk4+hllGeFL6r+lt+xTrPKx0+o/hpYVHNkjbrhSNcJaeeaezDGO+PPHbM+t0eLW6ecJRUskf6eTqUX8WVl5XJj8jFZM2n12P0cj5jkdUet/i1HxeDHp5xlm+nvhv8nP00JarUT0Ot00JUrWTbSk/ko0PiMebOtRqtXNZoXGKjL6YoLG/Xebz4NVp9Nmxzllk1tnHlMr/wC+dVHPlw6rRvDJcxyOXEkdX+Hb9OSWPLkg3sp2zxP6hxeU1/lI6V4MkFF3ynXPv+StOtPzWq12eWiloJ44z4eSMrSRzs/h5+P0uWGilLNLI+sj4Or47xktJjwXqMknii0/ZNv/AKk9a8ULlklwuW76Jo4uF6jHptupiozXe1lulac3TM+vxueKahkUUuVL5KPE5p5dTlhd7YpoiY9Lp2tq3W/8l8ZQ3cRox4lOEqVtmiW+StxaaDLXUaVVZZCEpuorkw482182zfimuJRX/IVNaTLf2/8AJOCeN06ISyZOdt/7nPvNKcnNyXxRKOxvSxvk5mryNz7KVrZY/pdlGTM8uRK6T4IsdvQRlHDv/wBS4s175ONSh9S/5Mvo5XDHix/2pe/uanPUYop5dra+CqphlcM6js3YpfemujmajBLD60sKdRk3ZtnqNqnKOKsku3RzdNq81TjLmLly6Aq9DKoxySnJyl0rKYwbzfX3fsX5NUlKW5XXVkdO1e5rlsSJbjYoUqK8mHcrro0qpc0S2p8UXDXBzQqbKnHg6GqwtTujLKD+AaqjGmWxZDrga4CNuLotiZcc2kuTTB2iornFuXDr9jzv6kUceHEl25cnpJRt2vY8v+qJPbhTfvYWPNyVN/uRJZH9RXbI0ZaukVLktXQUn2CFJ8gmyCQmFv5ItsGoyEPsRUqD7YhvtiDBobEhsKQhiCEAwKJYv6hsMePiZs9g0AEBVAAAAIYEQgGAEQHSCgEA6QUgBDACgEMAEMQAMQAAAAEQgGAQgAAIyETqxUgqIiTXAgh2FkaQASsTdkQAYCABgILKIgABANKxDXAUUFA3QtyCHQhbkG78BYYC3fgLAYCsLALCxWFhCsLAAHYWIAp2OyI7CHYUvkVhyAxpiCwJWFiTC0/YKlYWKwsCQCsLCJxdGzAzFGRv0y4szW+W/DC6s2Y9LCaM+D2Ojh4RjHVQtFX9pdDTRj7GlNsTb6AjsSVUOMafYJ/JKL5DS+MVRKuCMHwSsgi+DLlyuL+10XyzQj3KijPng8bluqiyMsOr1UccW2eb1eb1sra6NXkdX6knGPVnPaZqRi0l3X4PWfotR/iMm/jijylc2dbwOvWi18XNvZLjg1jD6TqIfQ9nE4LdEx49VDPiWbJGUJ/3NLsvjl36bdCa+pXFv5MuLLleObyLZPHPmuhiKNX5zEsGXFpIuepUeKXPJ5zQ4dTh0ksmphlhLNmgk2mrV8s9HrdBhzRjmluwai0vVxK/+hZj0bW/VYNTPPD0tmXH7yXz+4WL9Xqr9DTaPJjWWP1Nt8bRZdfN54JtPJhT9SGNW+ev+jM2n8H4/BH+Iw6jJDUtcqcrtfH/AENS3Rk8mPTp565l7tIKm8vrYfdxfP7HN1ePDji3NeomuYyVpjyZdXPHkx6ZSWSXMoyf2nj/ACnlddPUz0ty+h7XFLkg36rPjySlp8cnu23yqiizxMY6fM0lue3lv3Memi4QnPJkTzKKTXwbNDznf5VDB3ceVuakkrRrx5J7m1yn7HPxtwlZvxZI8LoIk41G3H/JJZcfptJtL5LZW8bqmZmtuDJtmouuG2BoxztLnv8ABKb21UWzJpc2e4Y57Zyr7r4Rtc8ipva0SrGHUwgluapnNyye9TjxXJv1uaLlTTa+TFniopV1QV6HFqf4nRY5Y+JpVJr2JxpK1Jyl8tnG8RqvSm8TtqXZ1pqMcT2u3f8AsgI+vOMqlFPGcvWZfThL0a+p3Xwa9VqJ49zjTbRx8mWcW21bYS1HfLJJL39zp6ePCRh00VJuXudHDw0jUSf/AFqjxwWwXuThhTimWLHXQGXNiUlbMGaKVxSOtlhUTmZYveQc+cOSNGnJBlDi06Alj7NmOK23uMUTThlCqmVBkkk6Urs8n+qP6mGN8M9hPHiabg7PGfqeV6vFH4RNWODk4kiNk8vaIFVJKixPghY74JjRN/USRF/cSGIERkSTIyYCE+B2RbsJUH2Ae4BDQCHYQCCwsAGIZRLGrma0ZcX3mqg0KCgHZVRoKGOgI0Oh0LoIKCgAmGFQUMCqVBQwAVBQ7ABUFEqCmBGgoAIlFCHYmwAAsAgAAIAKAKKEDG0KgYQqJUKgYVColQq5CYjQiVCaC4QDoKBhEaJ0Ki6iqwsACCx7iLAolYEUMAAACwAAAMBAQAABUAAAUAAEAAAEA7QgAdoBDRQAuwBdgSAAIGAAA49nS0/SOZdNHQ08vpRmt8upidJGzFOu2c/FLg1QfBl1b45Ir3Jb4/Ji5+SSuuxRr3L5JR5Zkju+TRibRGo1RXA3yqIJvaQnNrsioZYYf700cTyGSONSUMiZ09bOM8dRdM8nnk/Wa5ZqOXdxXbb3MbbYqoZ0kcrSGrvh0ILotSO/4r9Q5NJtxZl6mJPpnp9NrtJqoy1elc3tjUsbPnKbtV2el/TGfbKeK+ZEK9bizNRc8MlCDXEMnaCM44XPJKW3fakou+PnophLPlk7WJQXLk3bsWNVneRfWk+q9yVY4Wm8f5DT+bjkyuc9NKe5O3R0P1H5XJp9dpFpYObnaklw64r/AOTrvPrITxuUYSx5JU4p3t/wcTyOWH8TmedxhDDG8WVK3B+6a/2IrRptNrZa2evzSxx9SCXp7uVRHVY9Jo5ZtW8O7LJNt7bOd4/y2myahQlrMknX2yhV/ntl2p8tCGtjpcVZFkX0/BRxMWTHqNRm1ceJVUl7WatJkisqdrnoj6E4LPuxrHFy4SOfk1EdPkx7L4l8Bp6/B9aSaL54cmOKkk6+TP46SyQUvwdf7sO0MoaJ7otTVp/JZkjilP0fTW1r7kYXLJjcql9KNml1GLJh+qNfuQPLjXpuMKjxS2roolDUSxxhDLclz9S7NieK1tnFfj5DNGUcVR+5+5FjkSninp574Su6v8mSbShXsujXqZ1FwaS5s583x2Gm7w1SzZG1biuDqvK/s4W7s5XhskVkyP3N+RqUG7phFGp2znJy4hE5uf0ZyShJtl+qyVGlK/kyYI78i/crNdDS4aibMaqRXjjtgWx+5FR0MUvpXwXroz4ekjRL6aIITSlGjBnSjfwdFyUlVGLPC7VFHPyV3Zll9xqy4nKVFcsDIKowUnwy1QceeKK62D9VtFE5ZPpaXB439RyvWxV+x6rLulFqPZ5HzsJR1kd3dGVcvJy1RGmSl7CNRQSIjCl7krIggJIjIkiMiUIiMiERfY0J9jRpKAACYgEMQDGIALMP9Q2GPD/UNgUmIbEVqAkIkAhPskRl2AgAAAAAApgSIvsBDSAcQGlyP2APYlSoESREIBMYmAAAAMBABIBDQAIYFUmIk+iIAR9yQiBWIlViaoBACGQIQwCKAADTIAAKAAAAAAAAAAAAAAAAAQAADQAgIpPoQ30IFAxDKgGhDQAAAAwAYDAACA24ZbYpmJOmaYOzNb5dLFPpG3FLg5OGaU4ps6MGtqpmHWNyjuJbeBYpraWexKpRVMuh2VrssXAba4cIcpYlF32Z93HZXOapoDF5XLihG7o8tOW6e46vmpKUkrZyDcefq+z7AANsAAAgKNWh1k9JqFkXsZhko95ptZHyOJyw5km1zHo2YZQwZcWFOTcvpqv/AJPnmDU5dPNTxTca/J6zwnnc+ua0uSUdyi5Jv3A9FPD6q9OV43CV/S+WcHy3jIx17xY45PR1eNNzbvbJN/8Aw0dbTapKKWsnLHkjaUvZ/hl85Y822O9NxX03KrIrz+LwPjfFTjkzZZzypfc+mYtToVptRDU6WpRyy3Jv+z8Hpc+nhqccseVwab9+aPN63Jk/iI+Mh9GTG7g74aCxQtZLVYpzyT27XVJdnPzZsU4wUruT9joanRY9MskJaj6snSXFM5T/AJMoYlT9roqvY+Hkv4RUqR3ca3Yjy3gcz2xUpXGz2UMunUeoql1ZEYMzhgW6cNyfsZP4nSQyKMsc4v2SkdOGSGfK4zx7MUXw/knqNHgzwU4xhu9pJdBYw4p6DUyxuLcMkOrfuXZMmX0HTTt2jDqPH48SeSDe+DcuDBj1WXLGT9Rw54thV+fDky5HOajBL2bswZPvddBqvUnP1FkuNU0nxZmuS4+DI1aXO9PnU/bpnZlqIzg5L7WjzvLXJt003tcW3RRPUtOi7TYaqRlkv5qV2dLAvoRYxWgnD7kRHF/UjSNya2rnknjt8N2ZrLMbdPkC9y2SK8svU5E3fZF9MDLlXJRKRslG0c3UyceuCVUMkuyuMrIbmyUHyQXJUmeO/Ucr18V+D2O7o8b+oV/46/wFjly6IkpfaiBqNGAAQAAADRF9ko9ikShEBiCAaENFSgAAIH0RJPoiAAAAWYP6psMmn/qGwoT5QlHkmAag2jEMCL7GgbIt8hUmRfQgABi9yQAIYghMKsdjsKTVAD6AJQQkSI0ERAbXIgAAAAAQEQARACV0G4iAVLcPcQEBZuArHuAmRkLcJuwJLsZFDIAAsLAoAANMgAAAAAKAQxAAAAAAAQAAFAIAAKAACoGIYgAAAAGhDQANdiBdgSAAoIkAAAe5bjbT/wAFRODpkajQmbdLlfTfBhjyXYltaZmukdrHNLo0RycdnPxSs1QM1tqi7ZYU4+OC+K4sNhukZc89pomYdZLbGT+EEt9OBr8jnnduzMSyvfmkyJuPPb7MAA0yAAVkDsdkbCwGX6HVPSeRw6i62Pn9jPZGRKPq+GeLVaFTmt+LJUtq6TKc+lw5smOfpqM4/bJcWvhnhvEfqPUeNahJ78Xwz0EP1ZoMsXuUov3VEV15zU7jSxuqtcIwZ/TtZpPG541w6TbRVh/UOh1WX0Iuty9yyWjwxU2knGS4n8BXKz6eGpyvLJ71dpL2MeeKUuIr/Y6mXEsUUlxxX0+5z8iTdhWzxsXixw2rl8nTzr+LxxnjyScoLlJO7M3iXN7foTS6Z1ZVije1qbfsgLvGahZtO4NS3RXKkieV5oScoSqPujH6maElLG40+9zoulrKxKTx7ndfS7QF+TLug3Ora5Zjz+Px6jSwnhaUostlqMMopZPpuLbi+xxyYpyWPDFRSXe4iufqMeGOF4Y1CV3bMTjBcRan+UdHPqMcZvHOCb+TDGMZfZx+yApcfklCagnb7JPDKyMoNTUYuxBdpYb5bm7OvhjxRg0uOUEk+jo43SNRzqxqiH9xJysr3fUUaovgtjwUwf0ouiwLK4FRLbwhuNMCGxNcmTU6P1ftOjGN8E5Yow90Sq8nlxywzcZL3FFUdzWaVZIt0cfNgnifTZA1Lk8p+o41rY/lHp0+vk81+pP/ADWJ/KBHFl/TX7kVyTfOL9mRXBqNgAAgAAAHHsUuhrsUgKwCgIAaEMMgABBBQqJCKIgAFFun/qGz3MmnV5DbXIUgGIKAAKAVJhSJUKgpUhUSoKAiBLaG0IhuC2yW1DS4AhVjSJpD2hUGhUWbQoCvaOkTFQEGkQfJa4lbVAKkJrgYBKjQEhUREKCiYmuQIsRJoVAIBtcEbfwUIAAqAAoACx2IAAAAjSFBQwDJUFDABUFDABUKiQqAiA2uRAAANdgFBQwIIAAFQAAFAIYgAAAAAAAdgnyIF2BOwsQBErHZEYDTJRfJBEl2RY0wZfEz4/Y0Q565M10jZgZuxuzDg47NuL5I3G3FG6NCjwU4ukaF9pF1TkVRs43k57ccue0drO/5bPM+UyPeo+xU69OY+b/IUMDccAFiAoAAAAAAgCEmTK5EojYNiAimpOLuLafydfx/n82mj6eb68fRxw9wr2Mdfp8zXpyu1bizHll9TXucTx+f0NXCb5XujvZ1GUlNdSXAV0/CZ2sihadex6RQhlwXcVL49zxGhzPHqU6exPlrs9lonjyaeGWFvigK82mvDtn78ddHH0XraPW+k4ZGrvhWj026OSE1GnJcPgoxqcItYU2l9TbS4/AC/hsWVRz5Ipzivf8A+THrMzwuORYWo3VpG7FnlqIzkqbSfBw9d5PN6UHFq3KncbJVjRLB68vW4cSpYNs3VP8AY6McSzYMMl9Kf3KJKUILpUgOVPdiT3dMy4rnl7Oh5HatM5LvoxaSEnBSoQroY1tpGmHRTihLam0/wXx47NRzodoqcvqLG0+iFfVZRqxyWxGiErMmN2+DZjiBoxte5fsUubRTDalbLVkio8KwIdypEnCUf7Uwxxcpbn9KNCnXaA5+SUm6aMuXB6sH1fwdKaU8m6qRTkUVNuTpDFee1GmyYnu2ujzf6jxP08Umqa+T3+eWBYnXP7nz/wDVOr9TURxR6iFjz65bS+BLmyaq+PgrTpOyNHYCGAAAIBoUlaGgfREQoiTCgIgAwhUCQwABUMAiFAMRRdp/vN3uYdP95tTTK0GIbFQUUOgosolRCgokIRSoKGBQqChgBGgoYAC4HYgAdisBAFhYgCG3ZCSJWiLCosQ2IAAAIyQAACYhsTABUAwiPAqGBZQgACqVBQwIYVBQwCoAABkANAAgGACGAARfYn2TEwIDXZIAEIkBBARIRUIAYFAIYwIgSACIDEwAF2ALsCQAMAAYwEiS7Ehgi+BowdmaPKNWKJiusjXH6TbgdxMMTZp5cmWo6mJUkWydIrxO8aY5dBrFWeX8tnlddPfnZ6PUzrFJHls7vLI1Iz5FYCA3HAAIAGAkMAAAACEuyZB9szRWAS7ERTAQASjLa7O5oNR6+PZLuK4OCdPxX3S/YLroYI+lqG7tXyj0vjczwKcHm24+1+55tcc1/k3+Pz4d0oZpOn1QV6vR49VKcskcaeJ0927vg0ZNPknfpbYyf+pcHNwazMsmDDipQlxFr3L/ADuvyabR41ptzm6rb0BVh0Gr0OZuOXHLHO31Tv8ABj1Xj1jwLdjzTqVmvwOXUarJOWod0rhcfc3yhkUJSnkaXwgOfooarFFxm1CK6RZllyyyc4+8q/wZ8mVJN3a+SYrFrpp4ql1YaJxVKM7v2+CnLlxTnd9DwThLJUXRZErs4neOnXAp1TZThmoJqmy6vWVXSKyxyzJTLI5FI2Y/Hw27pEZ4YKVRRUQxfcjfiko/U1aM0YSvhGzBjd8gWY6yJtKkW44UmxSxyr6eCGOUoz+pP9wL5SiocieRbehboy9mPZECnl8lObbKLT7RqzJY48e5ydXleOLbdMmqw63KsEW74X5Pn3ktQtRrZzT4s9L5rV+npp/VblwjyD55fY1YnDsqfbLIdil9wVEl7CAKGNEWAE0D6IIYQE1H6SBZH+kTBUAgBhgIEDDAACIiJbhv6qKi3Sq5s1JUV6eG1bi+rdlaRXYx1QwpEgAn0IRITKEAwAQAIAAQgJAQboLAmIg3wLcBICIgG+wIggGxDE+iIBARCJAQACTERYAMZFdkiIQgEWLDEwAoAAAoAQgmpUvgKXwMAEkvgdL4EA1DpfAUvgQWA6XwQJWKgEA6CiaEA6ChoiA6CihBS+B0FARaXwFL4JNCoCLXAibSFSKiIDoKAQDABAhgAAAAMAGCBDXYJcGnTYJZJrjhmbWpEsWNunRqx42jUtKseC65LMWnclx0YdJGSN3RswxaM7xNajbVnQjjSSDUjZp5LZTHlmkuGZNzj0Qlmf8Ac+ArPrc23FLk4DlubZ0PIZ9y2xfFnNX0p0bjl3TAVhZpyACsAoATbQrYEgFYyAIPsmR9yUQl2RLJxSVkPYikA6ABGvRZ/RzV7MyDTaqvYo9FKW6CafDDAnu+n55Obp9fUVDJ7G7FlXEk7JjTv6PO4ODxzjHY/wC/2PT4tUtkVHDGWOK7cbPERcMkNx2vHa2cYqNtoGvQejCP87DDY/eK6LUoVUqTa9yvT5YLG3vuldFSktXhp8TirTXyDVGtU8CllntlBLpHk9Z5n1bUPpi7So7vl9atJpHhvdlnwl3R5L+Glmx7HxOEt1gdHTaaeVb5KTU17PpmzFilhae3lccPsnofoUaSbaNc3BKXs0ropTxa7HN7aVrijbji925OkzzS2TzS1Gnyuaj3Da0ek0OohnxJSa3JdMMt0cn0cszLKnmabSLXF1fsQw4V6zbjaLpi1O+Yu0XYZy+CEYP1OqRp3RilVMGLU7S5FLJHGuaMz1MLdez+Tm6jWZcmXZsdXTfwhqOjLyuG3GLVr2QY9assb4TOU3Fc1G/wiib9N+opOiLjq6rVyjH7jh6zVyyLbd2TzTyZMbcmcbUZ9inFvoi44/mszb2WchX7l2ry+rmfN0UoLiUfuQ8nGRiXaHPmbKEAAFJgDEnYDQxAEMnH+kVlkf6QFQmAyAQIAAYCsLCIl+CF8vorjBzlx0a8a2pIpi6HESaIIaKqYcfBG2G5hU+Cse5iAAboQnVgPcJvgXAcAFv5DcLihcAPcRbd9kQAdgIAhiFYWFMBWFgA7I2HZESsQUAQESREBAAECYAxWESGRsdgIQCLFMEIaZQwBA3wDQRHYgJAPaw2sgVWG0dDoBbQ2jodBENv5HtJUKgFt/IbfySEwI0FDGuWBCgos2htKI/4CiXANAQkuSNE2KiCNColQUUR2kaLNrI0EQoCdCaAiA6YUUIAodAA+kIt0+J5siikS1eYt0eknqcqXO33PSYdJHCoxroWj00MMEkufc2OKq7OdrtOVWWCcVFIlLFsxKuxxdzTfsQz51e1EjWKsONOc5S5YTewlFr2ZTnkqu+jUi/A5qrfBg1WrUVS/wCpXqNVaajZzcmTdfZccr0eTJudlblx0R4SC0yxyt07CxUM0gsLALAUhIb5AihdkiK7JWAEb+olZB/cvyxRLLwl+SuuUieWS4XuiF82TFNxoiSlJNELGAAW5BuRQPk06PM4ZUm7T9jNZLG6nF/kJr1GF1Cjo6fKoJKq/JytLK8UXybfVUIXdkV28Hk9LhvfLlqhanz2mxRfpL6pKl8HlM31TblZBNv6W7RKq/UazNn1MssnUvZvkvwZHN3Lbyvk5+oi5xjtfPuS0zklsfS9wuOzjyywy3dJLsnqPJy+j0sTyOXG72LNPpMU8mDI5XBx2yVnI1WeK8q4Yt0cUJpUij1GKOnw6WMpRUXJK6XuZp6PJGbnp5tPuvkUZScdqitsXdX2jXvWPGpb+GuP/SRGJeS1yxvHkioNdW+WT8d5LVYE3lwuW58Mo1uXHlyenHI1NLdbX/QUYynVSb445A7j8tHbH6Jc9/guWqUdtv6pdL8nmsmOcai5uEX21yasWbLLBLZkU5w4g2uxqY62TUenuUmvm7Oc9V6ruO67+qTRDFOUYL1YKc391vohk1LjPHDHFRbvj269wLnkfauzLmnPJGUJtVd8Ep5ZymouKbb7i+iE47E7dv5KsVS1G6XpN7V7M5XkF/DY5SbUmas7cXbSbOX5ab/hUvewrjSdzk/kE+RDXYEl2iUvvZFdolP7/wBwE+AB8gAmJcDYgCwsErBkBZbH+kU0Wp1joCoaEADFYBQgG1TJwxuasMeLe/wa4w2KkjWIUYqKpIkkSoVBpKPRJEU6RJNAD6FYNqhWA7Dd+CNitASshJ8j3IjJ2wCwsQWAWIYgAAAADsAAVBQwIhUFDAoVBQwsiFQUFhYBQqJWIKjQh+5F9kTDqxbRphYQqAAKEIdCLFAXQCYDsQAEFhYWFhVwABEAWJ9iAbfwK38DXYwI2/gkAAAcAADpBwIAHYWRAoY/YBgQpiom+xEEaCmSAsEaCiQgFtDaSGiCtxFtLasNpRTtFT+C7aLaBVVce52fE6ZRg8slz7HOw4lLJyd6UVjwwjD3RK6cRr0q3NthkyL1Ki+BYHsg/wBjPjluyN/kw7RoyT9KDn8I5kdS8rbfHPBs8hOtPL9jh4crtfuVLXWjN/Jl1+pqG1Mj/FKJg1Wb1JFjPV9KnkbIKxkoqzTz6hVhtLVEe0Cmgov9MPTAzgXenyHpgUgWyhRHaBAZKhAIjJfVH9yYn0BDI7nwQHLsQUuQ9gfQgEAAEMPdOxABuxeRnix0jXpvJ+s9k+G/k4zCLadp0wr0EpXyEE95zsGupKD5vg6+Bp7ZUSqccEsL3yW6/YvePFPRPMk47H9f5RowfXKmrDWUsGTBGUYyyezEWLdHrcKx7scd8UuyWreHWYoTw1jt/W0vuXwc7TQyYYRjGpOPaXudTQ5M8NJWfS1xatFq1dGWypN1fCv3FnyQx4JyyySj8MnrIyy6aEvRltX1OS9jLm0C1+iWzLKcp/n4MssOLVRm45XtinKov5OtGGSVXtV9UR1EMOm8dh0/pqcodxS7f7muGizT08J4+3VL4Ay6/ItHoZepk2ynxF90LxmWGTSQ2y3uPDfyXeax6bDoYbsCy5X2pXyc7T6vFp8a1MY+lGPDwpdBXReXHs9RSW1vbZHJibTcY26tP5LIy0Wsw4s+HGlGL+qCVKyWTVYnCDar6qoIwZsO3G5Y3KOTIvnpL/8AqZF/FYuXJP8AcvlqcmPWT9RJ42qgyjV62M6XXsWLGDVaqTl8v3o5mt1LyVj+Ozfn9JXKzjZZKWRtdCqrGuwqx1REOP3InJPcnRCP3Itf2gVgAl2A2uCKRN9EUAJCfZNEX2Aib+0iSf2gVgAFQWkWY8bnLrghGG5/sa8a2oQWRisa4Q96IN8CKJ+p+CLlbIjDSSkG4iAEkx2vkgAE7XyREADEAAAhgAgGACAYggAAAAAQDAQwATGJgpADEuyIkAAFRItckyL7IEAMAgCwfREolZEAKATGJgAAACAYBFgEbCyCV0G4iBRK7GQQ7AkG4jY7QD3DTsjaC/gUSAhbGm7IJgRsLKJgAAAAAAADAQDABAMCBIYIZVIB0AVt0UsMYSbfJpnrMO+EU1wjiNSV02rKpb7u2StbjvZvIwhiqL7IabLKtzfDODc/yy6Ovyxjt9vyZkP27Ot1F4nFy7RxY5opsryZ8uXt8FW130axL00SyWR3CjjZdHBZcS1CPJalZOOBUWekkExBRHRNQpkttAxVtHtJgFxCgomAFbjYnAsAJVThwR9MvfREgq2Fco8s00QlERGRx5IuJolHki4lFEo8Edpe48EdoFO0iXuJXtCIAS2hRRECVIVAC7R6LQTjk06XwedNmj1b08qt18BY9RjgoZVmjJpPhmzLiw6jFH1MClXT4uzBp80dTiSg7l8G7Bkk6U5LHKLp3/cRUcOyV44QeOaXD/8Agow+WeTWLBni4NOufc15Ir1VOcufx7lEtHpMk/XzKTmnxKHFEF2fyc9NL0oQ9SM09hVop4tOpR3TWVu2/bn2KtbFYcUZYYOeO1cptcf7nOz5dTHJDFp43FtNSXJB6TLr46KMMkldujVi1VxWplNKMlwjgTi8mnjj1WeCkmpJXZTqlqI45RWRSbaeOKlXAHpdVr56THHKoKUZdSOHqtTkz6jI8uGLg+vyH8Rly6aGDVRdJfPBVl+jH6kssl8L8AT02eelg1OPpQfSQsurxST3T64Ry8up398maUrfYGnPqJZJNb24+yKXP6d0ir1Ix5Meo1EpOot0UT1GdTdWUcoquTfRNSml0U1JX7k10Vqb94j9SvZkNXIlL7SlZo/6WP14jADQvVgCmrCpjXQty+RqUerRBF9iLdkWrsNi9mUV7RSLdjIZEvZgUPtjjFydIIxcpUaoQUUAsaaVMmAFAIBAMZCn8kl0QMAQIqmuxiQwAAAAAQwEwBgAgAAAAAAAACAAGAgGKgoExhVgRasSXJN8CtEZAgsAIgMRAmAMQDEAjUWGAhhSfZFkn2RYYoAAAAAAJWFgAoLCwABphYkMBioYAKhpANCgoaQkMyAaVh7BEolQ6AAooKACgAAAB0IkAqChgQCQ0kJEkUG1BtQwArcROPsW0JpWFVOCXsReKL9i5gFU+lFew9kfgsfRAASSJrhECa6BiSZK7ILokgJLhjt0RQwCgoAAKCgABUDQxPoBCoYAKyDk7ZMrl9zAi+xNDYmREWuBUN9CCItJkNpYBUUtckWuS19kX2BW0FE2AENoUWCCpYtRlwT3Y5tM9H4bUzz4JSyLfNSs8udLw2bJi1sYxlSl2hR7CO3LuySgklwo/krlccT6T7a/BnyZZx3U/chqckvod8tUyCvUyjlUscm3hkukZsOneCVwyva+En7FmWTSlXtVFM29t2yC6WBN8q38h/CSyTjkWotR6xtEMGSUntb4L5Z5Y2lFRV8XQGpRjJRnL6JL27MmqxzzTcuaNmJbIppt38hmf0N/gDzmZejJ37mLNma+02a5tzdmCKT7CK905k8eKUndGvDjjXRdsUekaWM8MHyi9YY+6JexFydhcJ4oL2Qnjj8Ek7Bgkip4YNdFbwQ+DQRkguM/8PD4E9OkuLNAvcDK8Emw9CRrXQwMaxTXTY9mT5NTB9AZNuX5Fsm+zURkQRgtqJx6Iko9BDBgDAQhiKHYxDIgABMqpWFkUMKdjEMlCAYhANiBgUAN0BCQEtwbisCIssLIxGUNPkkRXYwpjsRECT7IskuiMuyM1FiGxBBQ7AAFYrD3AKTYrGxMoLFYAAWG5gIFp3YgAIAAAAAAD//Z;" vertex="1" parent="1">
          <mxGeometry x="260" y="110" width="276.96" height="380" as="geometry" />
        </mxCell>
      </root>
    </mxGraphModel>
  </diagram>
</mxfile>
